<svg width="142" height="141" viewBox="0 0 142 141" fill="none" xmlns="http://www.w3.org/2000/svg">
<g clip-path="url(#clip0_650_1989)">
<g opacity="0.8">
<path opacity="0.4" d="M70.7678 60.837H58.7375V72.869H70.7678V60.837Z" fill="#40E2FF"/>
<path opacity="0.2" d="M82.7996 48.8067H70.7676V60.837H82.7996V48.8067Z" fill="#40E2FF"/>
<path opacity="0.6" d="M94.8283 60.837H82.7981V72.869H94.8283V60.837Z" fill="#40E2FF"/>
</g>
<path d="M117.725 110.281L95.9329 82.1025C94.4504 83.5707 92.8067 84.8759 91.027 85.986L112.776 114.109C113.392 114.906 114.318 115.323 115.252 115.323C115.92 115.323 116.593 115.11 117.164 114.67C118.531 113.613 118.783 111.647 117.725 110.281Z" fill="url(#paint0_linear_650_1989)"/>
<path opacity="0.81" d="M118.364 47.326C108.275 47.326 100.067 39.1184 100.067 29.0291C100.067 28.0407 99.2653 27.2386 98.2769 27.2386C97.2886 27.2386 96.4864 28.0407 96.4864 29.0291C96.4864 39.1184 88.2789 47.326 78.1895 47.326C77.2012 47.326 76.399 48.1281 76.399 49.1165C76.399 50.1048 77.2012 50.907 78.1895 50.907C88.2789 50.907 96.4864 59.1145 96.4864 69.2039C96.4864 70.1922 97.2886 70.9944 98.2769 70.9944C99.2653 70.9944 100.067 70.1922 100.067 69.2039C100.067 59.1145 108.275 50.907 118.364 50.907C119.353 50.907 120.155 50.1048 120.155 49.1165C120.155 48.1281 119.353 47.326 118.364 47.326Z" fill="url(#paint1_linear_650_1989)"/>
<path d="M98.2748 29.0291C98.2748 40.1229 107.268 49.1165 118.362 49.1165C107.268 49.1165 98.2748 58.1101 98.2748 69.2039C98.2748 58.1101 89.2813 49.1165 78.1875 49.1165C89.2813 49.1165 98.2748 40.1229 98.2748 29.0291ZM98.2748 27.2386C97.2865 27.2386 96.4844 28.0408 96.4844 29.0291C96.4844 39.1184 88.2768 47.326 78.1875 47.326C77.1991 47.326 76.397 48.1281 76.397 49.1165C76.397 50.1048 77.1991 50.907 78.1875 50.907C88.2768 50.907 96.4844 59.1145 96.4844 69.2039C96.4844 70.1922 97.2865 70.9944 98.2748 70.9944C99.2632 70.9944 100.065 70.1922 100.065 69.2039C100.065 59.1145 108.273 50.907 118.362 50.907C119.351 50.907 120.153 50.1048 120.153 49.1165C120.153 48.1281 119.351 47.326 118.362 47.326C108.273 47.326 100.065 39.1184 100.065 29.0291C100.065 28.0408 99.265 27.2386 98.2748 27.2386Z" fill="url(#paint2_linear_650_1989)"/>
<path d="M79.2833 83.7497C79.1759 83.7658 79.0684 83.782 78.9592 83.7945C79.1204 83.7748 79.2815 83.7515 79.4427 83.7265C79.3943 83.7336 79.346 83.739 79.2976 83.7462C79.2923 83.7497 79.2887 83.7497 79.2833 83.7497Z" fill="url(#paint3_linear_650_1989)"/>
<path d="M78.7354 83.8214C78.5832 83.8393 78.4293 83.8554 78.2771 83.8715C78.2413 83.8751 78.2072 83.8769 78.1714 83.8804C78.1356 83.884 78.1016 83.8876 78.0658 83.8894C78.3308 83.8661 78.5958 83.8393 78.859 83.807C78.8357 83.8106 78.8124 83.8124 78.7874 83.816C78.7712 83.8178 78.7533 83.8196 78.7354 83.8214Z" fill="url(#paint4_linear_650_1989)"/>
<path d="M96.5543 69.8413C96.5328 69.8986 96.5113 69.9541 96.4899 70.0114C96.4523 70.1116 96.4129 70.2101 96.3735 70.3104C96.343 70.3874 96.3108 70.4662 96.2786 70.5432C96.2463 70.6201 96.2141 70.6971 96.1819 70.7741C96.1407 70.8726 96.0977 70.9693 96.053 71.0678C96.0279 71.1233 96.0028 71.1788 95.9778 71.2343C95.9241 71.3507 95.8704 71.467 95.8148 71.5834C95.7969 71.6192 95.7808 71.655 95.7629 71.6908C95.6985 71.8233 95.634 71.9558 95.566 72.0865C95.557 72.1062 95.5463 72.1241 95.5373 72.1438C95.4621 72.2889 95.3869 72.4339 95.3081 72.5771C95.3046 72.5825 95.3028 72.5879 95.2992 72.5933C94.805 73.5028 94.2428 74.3837 93.609 75.2288C93.6054 75.2324 93.6036 75.236 93.6 75.2396C93.4998 75.3721 93.3995 75.5046 93.2956 75.6353C93.2849 75.6496 93.2742 75.6621 93.2634 75.6765C93.1685 75.7982 93.0718 75.9182 92.9734 76.0363C92.9519 76.0632 92.9304 76.0883 92.9071 76.1151C92.8194 76.2208 92.7299 76.3282 92.6385 76.432C92.6009 76.475 92.5633 76.5162 92.5257 76.5592C92.4487 76.6469 92.37 76.7364 92.2912 76.8242C92.2321 76.8904 92.1712 76.9549 92.1103 77.0193C92.0513 77.0838 91.9922 77.1482 91.9313 77.2127C91.8078 77.3434 91.6824 77.4723 91.5553 77.5976C91.4282 77.7248 91.2993 77.8501 91.1703 77.9736C91.1059 78.0345 91.0414 78.0936 90.977 78.1527C90.9125 78.2136 90.8481 78.2744 90.7818 78.3335C90.6941 78.4141 90.6045 78.4911 90.5168 78.5699C90.4738 78.6075 90.4327 78.6451 90.3897 78.6809C90.2841 78.7722 90.1784 78.8617 90.071 78.9495C90.0441 78.9709 90.0191 78.9924 89.994 79.0139C89.874 79.1124 89.7541 79.2091 89.6323 79.3058C89.6198 79.3165 89.6055 79.3272 89.5929 79.3362C89.4622 79.44 89.3297 79.5403 89.1954 79.6406C89.1919 79.6424 89.1883 79.646 89.1847 79.6477C88.3378 80.2816 87.4569 80.8438 86.5473 81.338C86.542 81.3415 86.5366 81.3433 86.533 81.3469C86.388 81.4257 86.2447 81.5009 86.0979 81.5761C86.08 81.585 86.0621 81.594 86.0442 81.6029C85.9117 81.671 85.7792 81.7354 85.6467 81.7999C85.6109 81.8178 85.5769 81.8339 85.5411 81.85C85.4247 81.9055 85.3083 81.961 85.1901 82.013C85.1346 82.038 85.0791 82.0631 85.0254 82.0864C84.9269 82.1293 84.8285 82.1741 84.73 82.2153C84.653 82.2475 84.576 82.2797 84.499 82.312C84.422 82.3442 84.3432 82.3764 84.2645 82.4069C84.166 82.4463 84.0675 82.4857 83.9672 82.5233C83.91 82.5447 83.8527 82.568 83.7954 82.5895C83.6754 82.6343 83.5554 82.6772 83.4355 82.7202C83.3979 82.7345 83.3585 82.7471 83.3209 82.7596C83.183 82.8079 83.0434 82.8545 82.9037 82.8993C82.884 82.9064 82.8625 82.9136 82.841 82.919C82.687 82.9691 82.5313 83.0174 82.3755 83.064C82.3683 83.0658 82.363 83.0676 82.3558 83.0694C81.4373 83.3415 80.4919 83.5564 79.5269 83.705C82.277 83.2806 84.8589 82.3424 87.1722 80.9888C88.986 79.9271 90.6332 78.6093 92.0638 77.0874C94.0226 75.0032 95.5749 72.536 96.5973 69.8108C96.5919 69.7947 96.5848 69.7804 96.5794 69.7643C96.5704 69.7947 96.5615 69.818 96.5543 69.8413Z" fill="url(#paint5_linear_650_1989)"/>
<path d="M77.5878 83.9252C77.5538 83.927 77.5197 83.9288 77.4857 83.9324C77.5914 83.927 77.697 83.9198 77.8026 83.9127C77.7883 83.9145 77.7758 83.9145 77.7614 83.9145C77.7042 83.9198 77.6451 83.9216 77.5878 83.9252Z" fill="url(#paint6_linear_650_1989)"/>
<path d="M61.9496 45.7432C62.0535 45.6519 62.1591 45.5642 62.2665 45.4764C62.2934 45.455 62.3202 45.4317 62.3471 45.4102C62.4671 45.3117 62.587 45.215 62.707 45.1201C62.7213 45.1094 62.7338 45.0987 62.7482 45.0879C62.8789 44.9841 63.0114 44.8838 63.1439 44.7835C63.1474 44.7799 63.151 44.7782 63.1546 44.7746C63.9997 44.1425 64.8824 43.5785 65.7902 43.0844C65.7956 43.0808 65.8009 43.079 65.8063 43.0754C65.9495 42.9984 66.0946 42.9214 66.2378 42.848C66.2575 42.8373 66.2754 42.8283 66.2951 42.8194C66.4258 42.7531 66.5583 42.6869 66.689 42.6224C66.7248 42.6045 66.7624 42.5866 66.7982 42.5705C66.9128 42.515 67.0292 42.4613 67.1456 42.4076C67.2011 42.3825 67.2584 42.3574 67.3139 42.3324C67.4106 42.2894 67.5073 42.2464 67.6057 42.2052C67.6827 42.1712 67.7615 42.139 67.8385 42.1068C67.9155 42.0745 67.9925 42.0423 68.0695 42.0119C68.1697 41.9725 68.2682 41.9331 68.3685 41.8937C68.424 41.8722 68.4813 41.8507 68.5386 41.8292C68.6585 41.7845 68.7803 41.7397 68.902 41.6967C68.9396 41.6842 68.9754 41.6699 69.013 41.6573C69.1527 41.609 69.2942 41.5625 69.4338 41.5159C69.4535 41.5087 69.4732 41.5034 69.4911 41.4962C69.6469 41.4461 69.8044 41.3977 69.9602 41.3512C69.9656 41.3494 69.971 41.3476 69.9763 41.3458C70.9683 41.0522 71.9906 40.8266 73.038 40.6762C73.0416 40.6762 73.0452 40.6744 73.047 40.6744C73.2135 40.6511 73.3782 40.6278 73.5465 40.6081C73.5627 40.6063 73.5788 40.6045 73.5949 40.6028C73.7489 40.5848 73.9028 40.5669 74.0568 40.5526C74.0908 40.549 74.1231 40.5473 74.1571 40.5437C74.295 40.5311 74.4346 40.5186 74.5743 40.5097C74.6298 40.5061 74.6835 40.5025 74.739 40.4989C74.859 40.4917 74.9771 40.4828 75.0971 40.4774C75.183 40.4738 75.269 40.4703 75.3567 40.4685C75.448 40.4649 75.5376 40.4613 75.6289 40.4595C75.8025 40.4559 75.978 40.4524 76.1517 40.4524C76.1571 40.4524 76.1624 40.4524 76.166 40.4524C76.1714 40.4524 76.1768 40.4524 76.1821 40.4524C76.3558 40.4524 76.5295 40.4541 76.7049 40.4595C76.7963 40.4613 76.8858 40.4667 76.9771 40.4685C77.063 40.472 77.149 40.4738 77.2367 40.4774C77.3567 40.4828 77.4749 40.4917 77.5948 40.4989C77.6503 40.5025 77.704 40.5061 77.7595 40.5097C77.8992 40.5204 78.0371 40.5311 78.1767 40.5437C78.2107 40.5473 78.243 40.549 78.277 40.5526C78.431 40.5669 78.5867 40.5848 78.7407 40.6028C78.7568 40.6045 78.773 40.6063 78.7891 40.6081C78.9556 40.6278 79.1221 40.6511 79.2886 40.6744C79.2922 40.6744 79.2958 40.6744 79.2976 40.6762C80.3432 40.8266 81.3656 41.0522 82.3593 41.3458C82.3646 41.3476 82.37 41.3494 82.3754 41.3512C82.533 41.3977 82.6887 41.4461 82.8445 41.4962C82.8642 41.5034 82.8839 41.5087 82.9036 41.5159C83.045 41.5625 83.1847 41.609 83.3243 41.6573C83.3619 41.6699 83.3978 41.6842 83.4354 41.6967C83.5571 41.7397 83.6789 41.7845 83.7988 41.8292C83.8543 41.8507 83.9116 41.8722 83.9671 41.8937C84.0674 41.9331 84.1677 41.9707 84.2679 42.0119C84.3449 42.0423 84.4219 42.0745 84.4989 42.1068C84.5759 42.139 84.6547 42.1712 84.7317 42.2052C84.8301 42.2464 84.9268 42.2894 85.0235 42.3324C85.079 42.3574 85.1363 42.3825 85.1918 42.4076C85.3082 42.4613 85.4246 42.515 85.5392 42.5705C85.575 42.5884 85.6108 42.6045 85.6466 42.6224C85.7791 42.6869 85.9116 42.7513 86.0423 42.8194C86.062 42.8283 86.0799 42.8391 86.0996 42.848C86.2446 42.9232 86.3879 42.9984 86.5329 43.0754C86.5383 43.079 86.5436 43.0808 86.5508 43.0844C87.1793 43.4263 87.7952 43.8006 88.395 44.2088C88.4057 44.2016 88.4165 44.1945 88.429 44.1855C84.9412 41.8095 80.7299 40.4183 76.2 40.4183C70.594 40.4183 65.4751 42.549 61.6112 46.0422C61.681 45.9796 61.7527 45.9169 61.8225 45.856C61.8637 45.8184 61.9066 45.7808 61.9496 45.7432Z" fill="url(#paint7_linear_650_1989)"/>
<path d="M61.5575 46.0906C61.57 46.0798 61.5807 46.0691 61.5933 46.0583C61.493 46.1479 61.3945 46.241 61.2979 46.3323C61.3193 46.3126 61.3408 46.2929 61.3623 46.2732C61.425 46.2123 61.4912 46.1497 61.5575 46.0906Z" fill="url(#paint8_linear_650_1989)"/>
<path d="M76.8519 83.961C76.9289 83.9592 77.0041 83.9556 77.0793 83.9521C77.0417 83.9538 77.0041 83.9538 76.9665 83.9556C76.9289 83.9592 76.8895 83.961 76.8519 83.961Z" fill="url(#paint9_linear_650_1989)"/>
<g opacity="0.65">
<path d="M82.3755 83.0729C82.5313 83.0264 82.6871 82.978 82.8411 82.9279C82.8625 82.9207 82.8822 82.9154 82.9037 82.9082C83.0434 82.8634 83.183 82.8169 83.3209 82.7685C83.3585 82.756 83.3979 82.7417 83.4355 82.7292C83.5555 82.6862 83.6754 82.6432 83.7954 82.5985C83.8527 82.577 83.91 82.5555 83.9673 82.5322C84.0658 82.4946 84.166 82.4552 84.2645 82.4158C84.3433 82.3836 84.4203 82.3532 84.499 82.3209C84.576 82.2887 84.653 82.2565 84.73 82.2242C84.8285 82.1813 84.927 82.1383 85.0254 82.0953C85.0809 82.0703 85.1364 82.047 85.1902 82.0219C85.3083 81.9682 85.4247 81.9145 85.5411 81.859C85.5769 81.8429 85.6127 81.825 85.6467 81.8089C85.7792 81.7444 85.9135 81.6781 86.0442 81.6119C86.0621 81.6029 86.08 81.594 86.0979 81.585C86.243 81.5098 86.388 81.4346 86.533 81.3559C86.5384 81.3523 86.5438 81.3505 86.5474 81.3469C87.4694 80.8456 88.3504 80.2798 89.1847 79.6567C89.1883 79.6549 89.1919 79.6513 89.1955 79.6495C89.3298 79.5493 89.4623 79.4472 89.593 79.3451C89.6055 79.3344 89.6198 79.3237 89.6323 79.3147C89.7541 79.218 89.8741 79.1213 89.994 79.0229C90.0209 79.0014 90.0459 78.9799 90.071 78.9584C90.1784 78.8689 90.2841 78.7794 90.3897 78.6898C90.4327 78.654 90.4739 78.6164 90.5168 78.5788C90.6064 78.5 90.6941 78.4231 90.7818 78.3425C90.8481 78.2834 90.9125 78.2225 90.977 78.1616C91.0415 78.1026 91.1059 78.0417 91.1704 77.9826C91.3011 77.8591 91.4282 77.7337 91.5553 77.6066C91.6824 77.4795 91.8078 77.3506 91.9313 77.2216C91.9922 77.1572 92.0513 77.0927 92.1104 77.0283C92.1712 76.9638 92.2321 76.8994 92.2912 76.8331C92.37 76.7454 92.4488 76.6576 92.5258 76.5681C92.5634 76.5252 92.601 76.484 92.6386 76.441C92.7299 76.3354 92.8176 76.2297 92.9071 76.1241C92.9286 76.0972 92.9519 76.0722 92.9734 76.0453C93.0719 75.9253 93.1685 75.8054 93.2634 75.6854C93.2742 75.6711 93.2849 75.6586 93.2957 75.6442C93.3977 75.5135 93.4998 75.381 93.6001 75.2485C93.6036 75.2449 93.6054 75.2414 93.609 75.2378C94.2321 74.4034 94.7979 73.5225 95.2992 72.6022C95.3028 72.5968 95.3046 72.5915 95.3082 72.5861C95.3852 72.4429 95.4622 72.2978 95.5374 72.1528C95.5463 72.1331 95.557 72.1152 95.566 72.0955C95.6322 71.9648 95.6985 71.8323 95.763 71.6998C95.7809 71.664 95.797 71.6282 95.8149 71.5924C95.8704 71.476 95.9241 71.3596 95.9778 71.2432C96.0029 71.1877 96.0279 71.1322 96.053 71.0767C96.096 70.98 96.139 70.8816 96.1819 70.7831C96.2141 70.7061 96.2464 70.6291 96.2786 70.5521C96.3108 70.4751 96.3431 70.3963 96.3735 70.3193C96.4129 70.2209 96.4523 70.1206 96.4899 70.0203C96.5114 69.963 96.5329 69.9075 96.5543 69.8502C96.5633 69.827 96.5723 69.8055 96.5794 69.7822C96.5203 69.6032 96.4863 69.4134 96.4863 69.2146C96.4863 59.1253 88.2787 50.9177 78.1894 50.9177C77.201 50.9177 76.3989 50.1156 76.3989 49.1272C76.3989 48.1389 77.201 47.3368 78.1894 47.3368C81.9655 47.3368 85.4766 46.1873 88.3933 44.2195C87.7989 43.8149 87.1848 43.4389 86.5491 43.0933C86.5438 43.0897 86.5384 43.0879 86.5312 43.0844C86.388 43.0074 86.243 42.9304 86.0979 42.857C86.0782 42.848 86.0603 42.8373 86.0406 42.8283C85.9099 42.7621 85.7774 42.6958 85.645 42.6314C85.6091 42.6135 85.5733 42.5974 85.5375 42.5794C85.4229 42.5239 85.3065 42.4702 85.1902 42.4165C85.1347 42.3914 85.0792 42.3664 85.0219 42.3413C84.9252 42.2983 84.8267 42.2554 84.73 42.2142C84.653 42.182 84.5742 42.1479 84.4972 42.1157C84.4203 42.0835 84.3433 42.053 84.2663 42.0208C84.166 41.9814 84.0657 41.942 83.9655 41.9026C83.91 41.8812 83.8527 41.8597 83.7972 41.8382C83.6772 41.7934 83.5555 41.7487 83.4337 41.7057C83.3961 41.6932 83.3603 41.6788 83.3227 41.6663C83.183 41.618 83.0434 41.5714 82.9019 41.5249C82.8822 41.5177 82.8625 41.5123 82.8428 41.5052C82.6871 41.455 82.5313 41.4067 82.3737 41.3601C82.3684 41.3583 82.363 41.3565 82.3576 41.3548C81.3657 41.0611 80.3433 40.8355 79.2959 40.6851C79.2923 40.6851 79.2887 40.6851 79.287 40.6833C79.1204 40.6601 78.9557 40.6368 78.7874 40.6171C78.7713 40.6153 78.7552 40.6135 78.7391 40.6117C78.5851 40.5938 78.4311 40.5759 78.2753 40.5616C78.2413 40.558 78.2091 40.5562 78.1751 40.5526C78.0372 40.5401 77.8975 40.5276 77.7579 40.5186C77.7042 40.515 77.6487 40.5114 77.5932 40.5079C77.4732 40.5007 77.355 40.4917 77.2351 40.4864C77.1491 40.4828 77.0632 40.4792 76.9754 40.4774C76.8841 40.4738 76.7946 40.4703 76.7033 40.4685C76.5296 40.4649 76.3559 40.4613 76.1805 40.4613C76.1751 40.4613 76.1697 40.4613 76.1644 40.4613C76.159 40.4613 76.1536 40.4613 76.15 40.4613C75.9746 40.4613 75.8009 40.4631 75.6272 40.4685C75.5359 40.4703 75.4464 40.4756 75.3551 40.4774C75.2691 40.481 75.1814 40.4828 75.0954 40.4864C74.9755 40.4917 74.8573 40.5007 74.7373 40.5079C74.6818 40.5114 74.6281 40.515 74.5726 40.5186C74.433 40.5293 74.2951 40.5401 74.1554 40.5526C74.1214 40.5562 74.0892 40.558 74.0552 40.5616C73.9012 40.5759 73.7472 40.5938 73.5932 40.6117C73.5771 40.6135 73.561 40.6153 73.5449 40.6171C73.3784 40.6368 73.2119 40.6601 73.0453 40.6833C73.0418 40.6833 73.0382 40.6851 73.0364 40.6851C71.9908 40.8355 70.9684 41.0611 69.9747 41.3548C69.9693 41.3565 69.9639 41.3583 69.9586 41.3601C69.801 41.4067 69.6452 41.455 69.4895 41.5052C69.4698 41.5105 69.4501 41.5177 69.4322 41.5249C69.2907 41.5714 69.151 41.618 69.0114 41.6663C68.9738 41.6788 68.938 41.6914 68.9004 41.7057C68.7786 41.7487 68.6569 41.7934 68.5369 41.8382C68.4796 41.8597 68.4241 41.8812 68.3668 41.9026C68.2666 41.9402 68.1663 41.9796 68.0678 42.0208C67.9908 42.0513 67.9138 42.0835 67.8368 42.1157C67.7581 42.1479 67.6811 42.1802 67.6041 42.2142C67.5056 42.2554 67.4089 42.2983 67.3122 42.3413C67.2567 42.3664 67.1994 42.3914 67.1439 42.4165C67.0275 42.4702 66.9112 42.5239 66.7966 42.5794C66.7608 42.5974 66.7232 42.6135 66.6874 42.6314C66.5549 42.6958 66.4242 42.7603 66.2934 42.8283C66.2738 42.8373 66.2558 42.848 66.2361 42.857C66.0911 42.9322 65.9479 43.0074 65.8046 43.0844C65.7993 43.0879 65.7939 43.0897 65.7885 43.0933C64.8682 43.5946 63.9873 44.1586 63.1529 44.7835C63.1494 44.7871 63.1458 44.7889 63.1422 44.7925C63.0097 44.8927 62.8772 44.993 62.7465 45.0969C62.7322 45.1076 62.7196 45.1183 62.7053 45.1291C62.5836 45.224 62.4636 45.3207 62.3454 45.4191C62.3186 45.4406 62.2917 45.4639 62.2649 45.4854C62.1592 45.5731 62.0536 45.6627 61.948 45.7522C61.905 45.7898 61.862 45.8274 61.819 45.865C61.7313 45.942 61.6418 46.0207 61.5558 46.0995C61.4896 46.1604 61.4251 46.2213 61.3589 46.2822C61.298 46.3395 61.2353 46.3968 61.1745 46.454C57.0152 50.4217 54.4208 56.017 54.4208 62.2049C54.4208 74.2118 64.1896 83.9807 76.1966 83.9807C76.415 83.9807 76.6335 83.9753 76.8501 83.97C76.8895 83.9682 76.9271 83.9664 76.9665 83.9664C77.0113 83.9646 77.0542 83.9628 77.0972 83.961C77.2261 83.9556 77.355 83.9485 77.4839 83.9413C77.518 83.9395 77.552 83.9377 77.586 83.9342C77.6433 83.9306 77.7024 83.927 77.7597 83.9234C77.774 83.9216 77.7865 83.9216 77.8009 83.9216C77.8886 83.9145 77.9781 83.9073 78.0658 83.8983C78.1017 83.8948 78.1357 83.893 78.1715 83.8894C78.2073 83.8858 78.2413 83.884 78.2771 83.8804C78.4311 83.8661 78.5833 83.8482 78.7355 83.8303C78.7534 83.8285 78.7713 83.8267 78.7874 83.8249C78.8107 83.8214 78.834 83.8196 78.859 83.816C78.8913 83.8124 78.9253 83.8088 78.9575 83.8034C79.0667 83.7891 79.1742 83.773 79.2816 83.7587C79.287 83.7587 79.2923 83.7569 79.2977 83.7569C79.346 83.7497 79.3944 83.7444 79.4427 83.7372C79.4714 83.7336 79.4982 83.7282 79.5269 83.7247C80.4919 83.5743 81.4373 83.3612 82.3558 83.089C82.363 83.0765 82.3684 83.0747 82.3755 83.0729Z" fill="url(#paint10_linear_650_1989)"/>
</g>
<path opacity="0.58" d="M54.4369 63.2828C54.4333 63.1932 54.4297 63.1037 54.4261 63.0124C54.4297 63.1019 54.4315 63.1932 54.4369 63.2828Z" fill="#40DFFF"/>
<path opacity="0.58" d="M54.4564 60.7922C54.46 60.7349 54.4636 60.6776 54.4672 60.6221C54.4636 60.6794 54.46 60.7367 54.4564 60.7922Z" fill="#40DFFF"/>
<path opacity="0.58" d="M55.6149 55.0609C55.6274 55.0233 55.6417 54.9857 55.6543 54.9481C55.6399 54.9857 55.6274 55.0233 55.6149 55.0609Z" fill="#40DFFF"/>
<path opacity="0.58" d="M54.5032 60.2103C54.5068 60.1745 54.5085 60.1405 54.5121 60.1047C54.5085 60.1405 54.5068 60.1763 54.5032 60.2103Z" fill="#40DFFF"/>
<path opacity="0.58" d="M55.4537 55.5418C55.461 55.5199 55.4683 55.4999 55.4738 55.4781C55.4665 55.4999 55.461 55.5218 55.4537 55.5418Z" fill="#40DFFF"/>
<path opacity="0.58" d="M54.632 59.0986C54.632 59.095 54.6338 59.0895 54.6338 59.0859C54.6338 59.0895 54.6338 59.095 54.632 59.0986Z" fill="#40DFFF"/>
<path opacity="0.58" d="M54.562 59.6463C54.5638 59.6284 54.5656 59.6105 54.5674 59.5926C54.5656 59.6123 54.5638 59.6284 54.562 59.6463Z" fill="#40DFFF"/>
<path opacity="0.58" d="M55.3035 56.0262C55.3053 56.019 55.3071 56.0135 55.3089 56.0063C55.3071 56.0135 55.3053 56.0208 55.3035 56.0262Z" fill="#40DFFF"/>
<path opacity="0.58" d="M55.6543 69.4796C55.6417 69.442 55.6274 69.4044 55.6149 69.3668C55.6274 69.4026 55.6399 69.4402 55.6543 69.4796Z" fill="#40DFFF"/>
<path opacity="0.58" d="M54.5121 64.3212C54.5085 64.2854 54.5068 64.2514 54.5032 64.2156C54.505 64.2514 54.5085 64.2872 54.5121 64.3212Z" fill="#40DFFF"/>
<path opacity="0.58" d="M55.8513 70.0114C55.8298 69.9541 55.8065 69.8968 55.785 69.8395C55.8065 69.8968 55.828 69.9541 55.8513 70.0114Z" fill="#40DFFF"/>
<path opacity="0.58" d="M56.2882 71.0678C56.2452 70.9693 56.2023 70.8708 56.1593 70.7723C56.2023 70.8726 56.2452 70.9693 56.2882 71.0678Z" fill="#40DFFF"/>
<path opacity="0.58" d="M55.4738 68.9489C55.4665 68.9289 55.461 68.907 55.4537 68.887C55.461 68.907 55.4665 68.927 55.4738 68.9489Z" fill="#40DFFF"/>
<path opacity="0.58" d="M54.6338 65.342C54.6338 65.3366 54.632 65.3329 54.632 65.3275C54.6338 65.3329 54.6338 65.3366 54.6338 65.342Z" fill="#40DFFF"/>
<path opacity="0.58" d="M55.3089 68.4199C55.3071 68.4144 55.3053 68.4072 55.3035 68.4017C55.3053 68.4072 55.3071 68.4126 55.3089 68.4199Z" fill="#40DFFF"/>
<path opacity="0.58" d="M56.5263 71.5834C56.4708 71.467 56.4171 71.3507 56.3634 71.2325C56.4153 71.3507 56.4708 71.467 56.5263 71.5834Z" fill="#40DFFF"/>
<path opacity="0.58" d="M61.2962 46.3323C61.2532 46.3717 61.2102 46.4111 61.1691 46.4505C61.1709 46.4487 61.1726 46.4469 61.1762 46.4451C61.2156 46.4075 61.2568 46.3699 61.2962 46.3323Z" fill="#40DFFF"/>
<path opacity="0.58" d="M59.812 47.8649C59.889 47.7772 59.9678 47.6877 60.0466 47.5999C59.9678 47.6895 59.889 47.7772 59.812 47.8649Z" fill="#40DFFF"/>
<path opacity="0.58" d="M77.0792 83.9521C77.1329 83.9503 77.1849 83.9485 77.2386 83.9449C77.192 83.9467 77.1455 83.9485 77.0989 83.9503C77.0918 83.9521 77.0864 83.9521 77.0792 83.9521Z" fill="#40DFFF"/>
<path opacity="0.58" d="M54.4172 61.6749C54.4082 62.0348 54.4082 62.3929 54.4172 62.7528C54.4136 62.5737 54.41 62.3947 54.41 62.2138C54.41 62.033 54.4118 61.854 54.4172 61.6749Z" fill="#40DFFF"/>
<path opacity="0.58" d="M75.6306 83.9664C75.9905 83.9753 76.3504 83.9753 76.7085 83.9664C76.5294 83.97 76.3504 83.9735 76.1696 83.9735C75.9887 83.9735 75.8097 83.97 75.6306 83.9664Z" fill="#40DFFF"/>
<path opacity="0.58" d="M59.4307 48.3108C59.5184 48.2051 59.6079 48.0977 59.6992 47.9939C59.6079 48.0977 59.5202 48.2033 59.4307 48.3108Z" fill="#40DFFF"/>
<path opacity="0.58" d="M60.775 77.5923C60.7768 77.5941 60.7805 77.5977 60.7823 77.5995C60.7841 77.6013 60.7877 77.605 60.7895 77.6068C60.7859 77.6031 60.7805 77.5977 60.775 77.5923Z" fill="#40DFFF"/>
<path opacity="0.58" d="M57.0403 51.8344C57.5416 50.9123 58.1074 50.0314 58.7305 49.1971C58.0967 50.0439 57.5345 50.9249 57.0403 51.8344Z" fill="#40DFFF"/>
<path opacity="0.58" d="M59.0742 48.7494C59.1691 48.6277 59.2658 48.5077 59.3643 48.3896C59.2658 48.5095 59.1709 48.6295 59.0742 48.7494Z" fill="#40DFFF"/>
<path opacity="0.58" d="M56.3634 53.1934C56.4171 53.0752 56.4708 52.9589 56.5263 52.8425C56.4708 52.9589 56.4153 53.0752 56.3634 53.1934Z" fill="#40DFFF"/>
<path opacity="0.58" d="M55.9675 54.1173C55.998 54.0385 56.0302 53.9615 56.0624 53.8845C56.0302 53.9615 55.998 54.0403 55.9675 54.1173Z" fill="#40DFFF"/>
<path opacity="0.58" d="M56.8021 52.2839C56.8773 52.1388 56.9525 51.9938 57.0313 51.8506C56.9543 51.9938 56.8773 52.1388 56.8021 52.2839Z" fill="#40DFFF"/>
<path opacity="0.58" d="M68.0749 82.4158C67.9961 82.3836 67.9173 82.3514 67.8403 82.3192C67.9173 82.3532 67.9961 82.3854 68.0749 82.4158Z" fill="#40DFFF"/>
<path opacity="0.58" d="M66.6929 81.8053C66.5586 81.7408 66.4261 81.6746 66.2936 81.6065C66.4279 81.6746 66.5604 81.7408 66.6929 81.8053Z" fill="#40DFFF"/>
<path opacity="0.58" d="M67.1494 82.0201C67.0312 81.9664 66.9148 81.9109 66.7966 81.8554C66.9148 81.9127 67.033 81.9664 67.1494 82.0201Z" fill="#40DFFF"/>
<path opacity="0.58" d="M74.7516 83.9252C74.6943 83.9216 74.6352 83.918 74.5779 83.9145C74.6352 83.9198 74.6943 83.9216 74.7516 83.9252Z" fill="#40DFFF"/>
<path opacity="0.58" d="M69.9837 83.0802C69.9764 83.0783 69.9692 83.0765 69.9637 83.0747C69.9692 83.0747 69.9764 83.0765 69.9837 83.0802Z" fill="#40DFFF"/>
<path opacity="0.58" d="M74.168 83.8804C74.1322 83.8769 74.0982 83.8751 74.0624 83.8715C74.0964 83.8751 74.1322 83.8769 74.168 83.8804Z" fill="#40DFFF"/>
<path opacity="0.58" d="M75.3729 83.9574C75.2815 83.9538 75.1902 83.9521 75.1007 83.9467C75.192 83.9503 75.2815 83.9538 75.3729 83.9574Z" fill="#40DFFF"/>
<path opacity="0.58" d="M73.0568 83.7498C73.0512 83.7498 73.0455 83.7479 73.0398 83.7479C73.0455 83.7498 73.0512 83.7498 73.0568 83.7498Z" fill="#40DFFF"/>
<path opacity="0.58" d="M56.7752 72.0883C56.7072 71.9558 56.6427 71.8234 56.5782 71.6909C56.6409 71.8234 56.7072 71.9558 56.7752 72.0883Z" fill="#40DFFF"/>
<path opacity="0.58" d="M59.3661 76.0381C59.2676 75.9182 59.1709 75.7982 59.0742 75.6765C59.1691 75.7982 59.2676 75.9182 59.3661 76.0381Z" fill="#40DFFF"/>
<path opacity="0.58" d="M98.2767 70.9961C98.1961 70.9961 98.1173 70.989 98.0403 70.9782C96.8711 73.8967 95.1129 76.5753 92.8228 78.8653C88.3753 83.3129 82.4613 85.7622 76.1696 85.7622C69.8796 85.7622 63.9657 83.3129 59.5164 78.8653C55.0688 74.4178 52.6194 68.5038 52.6194 62.212C52.6194 55.9221 55.0688 50.0081 59.5164 45.5588C63.9657 41.113 69.8796 38.6637 76.1696 38.6637C81.1668 38.6637 85.9241 40.2106 89.9008 43.0754C91.0664 42.1014 92.1084 40.9859 93.0019 39.7559C88.3198 36.2429 82.5025 34.1624 76.1983 34.1624C60.716 34.1624 48.1665 46.7137 48.1665 62.1941C48.1665 77.6764 60.7178 90.2259 76.1983 90.2259C81.6449 90.2259 86.7263 88.6718 91.0288 85.9842C92.8067 84.8741 94.4522 83.5689 95.9347 82.1007C101.057 77.0211 104.232 69.9792 104.232 62.1941C104.232 60.7653 104.124 59.3598 103.918 57.9883C101.507 61.0876 100.069 64.9801 100.069 69.2021C100.067 70.194 99.265 70.9961 98.2767 70.9961Z" fill="#40DFFF"/>
<path opacity="0.58" d="M59.0421 75.6371C58.9383 75.5046 58.8362 75.3721 58.736 75.2378C58.838 75.3721 58.9401 75.5046 59.0421 75.6371Z" fill="#40DFFF"/>
<path opacity="0.58" d="M59.6989 76.4338C59.6076 76.3282 59.5181 76.2226 59.4286 76.1151C59.5181 76.2208 59.6076 76.3282 59.6989 76.4338Z" fill="#40DFFF"/>
<path opacity="0.58" d="M57.0313 72.5771C56.9525 72.4339 56.8773 72.2889 56.8021 72.1421C56.8773 72.2889 56.9543 72.4321 57.0313 72.5771Z" fill="#40DFFF"/>
<path opacity="0.58" d="M58.7305 75.2288C58.1056 74.3945 57.5398 73.5118 57.0403 72.5915C57.5345 73.501 58.0967 74.3837 58.7305 75.2288Z" fill="#40DFFF"/>
<path opacity="0.58" d="M65.792 81.3433C64.8699 80.842 63.989 80.2762 63.1547 79.6531C63.9998 80.2852 64.8825 80.8492 65.792 81.3433Z" fill="#40DFFF"/>
<path opacity="0.58" d="M62.7071 79.3094C62.5853 79.2127 62.4636 79.116 62.3436 79.0175C62.4654 79.116 62.5853 79.2145 62.7071 79.3094Z" fill="#40DFFF"/>
<path opacity="0.58" d="M62.2684 78.953C62.1609 78.8635 62.0535 78.774 61.9479 78.6827C62.0553 78.774 62.1609 78.8635 62.2684 78.953Z" fill="#40DFFF"/>
<path opacity="0.58" d="M61.3642 78.1581C61.2998 78.0972 61.2335 78.0381 61.1691 77.9754C61.2335 78.0363 61.2998 78.0972 61.3642 78.1581Z" fill="#40DFFF"/>
<path opacity="0.58" d="M60.4082 77.2145C60.3473 77.15 60.2865 77.0838 60.2256 77.0193C60.2865 77.0838 60.3456 77.15 60.4082 77.2145Z" fill="#40DFFF"/>
<path d="M59.5164 45.5606C55.0689 50.0082 52.6195 55.9221 52.6195 62.2139C52.6195 68.5038 55.0689 74.4178 59.5164 78.8671C63.964 83.3147 69.8779 85.764 76.1697 85.764C82.4596 85.764 88.3736 83.3147 92.8229 78.8671C95.1129 76.5771 96.8712 73.8985 98.0404 70.98C97.3725 70.8923 96.8211 70.4357 96.5973 69.8216C95.5749 72.5467 94.0208 75.0158 92.0638 77.0981C90.6332 78.62 88.9859 79.9378 87.1722 80.9996C84.8607 82.3532 82.277 83.2914 79.5268 83.7157C79.4982 83.7193 79.4713 83.7247 79.4427 83.7283C79.2815 83.7515 79.1204 83.7748 78.9592 83.7963C78.927 83.7999 78.893 83.8035 78.8608 83.8088C78.5976 83.8411 78.3344 83.8679 78.0676 83.8912C77.9799 83.8983 77.8921 83.9073 77.8026 83.9145C77.697 83.9216 77.5913 83.9288 77.4857 83.9342C77.4033 83.9395 77.321 83.9449 77.2386 83.9485C77.1849 83.9503 77.133 83.9521 77.0792 83.9556C77.004 83.9592 76.9271 83.961 76.8519 83.9646C76.8035 83.9664 76.757 83.9682 76.7086 83.97C76.3487 83.9789 75.9888 83.9789 75.6307 83.97C75.5448 83.9682 75.4589 83.9646 75.3729 83.961C75.2816 83.9574 75.1921 83.9556 75.1008 83.9503C74.9844 83.9449 74.868 83.9377 74.7516 83.9288C74.6943 83.9252 74.6352 83.9216 74.5779 83.918C74.4401 83.9073 74.304 83.8966 74.1679 83.884C74.1321 83.8804 74.0981 83.8787 74.0623 83.8751C73.9083 83.8607 73.7561 83.8428 73.6039 83.8249C73.586 83.8232 73.5681 83.8214 73.5502 83.8196C73.3855 83.7999 73.2208 83.7784 73.0578 83.7551C73.0525 83.7551 73.0471 83.7533 73.0417 83.7533C71.9961 83.6029 70.9755 83.3773 69.9836 83.0837C69.9764 83.0819 69.9693 83.0801 69.9639 83.0783C69.8081 83.0318 69.6523 82.9834 69.4984 82.9351C69.4769 82.9279 69.4554 82.9207 69.4357 82.9154C69.296 82.8706 69.1582 82.8241 69.0185 82.7757C68.9791 82.7632 68.9415 82.7489 68.9039 82.7345C68.784 82.6916 68.664 82.6486 68.5458 82.6038C68.4885 82.5823 68.4294 82.5591 68.3721 82.5376C68.2737 82.5 68.1752 82.4606 68.0767 82.4212C67.9979 82.389 67.9192 82.3567 67.8422 82.3245C67.7652 82.2923 67.6882 82.2601 67.613 82.2278C67.5145 82.1849 67.416 82.1419 67.3176 82.0989C67.262 82.0738 67.2083 82.0506 67.1546 82.0255C67.0364 81.9718 66.9201 81.9163 66.8019 81.8608C66.7661 81.8447 66.7321 81.8268 66.6963 81.8106C66.562 81.7462 66.4295 81.6799 66.297 81.6119C66.2791 81.603 66.2612 81.594 66.2433 81.585C66.0982 81.5098 65.9532 81.4329 65.8082 81.3559C65.8028 81.3541 65.7992 81.3505 65.7939 81.3487C64.8843 80.8545 64.0016 80.2905 63.1565 79.6585C63.1529 79.6567 63.1493 79.6531 63.1475 79.6513C63.0132 79.5511 62.8807 79.449 62.75 79.3452C62.7375 79.3344 62.725 79.3255 62.7124 79.3147C62.5907 79.218 62.4689 79.1213 62.349 79.0229C62.3239 79.0014 62.2988 78.9799 62.272 78.9584C62.1646 78.8689 62.0589 78.7794 61.9515 78.6881C61.9103 78.6522 61.8691 78.6146 61.8261 78.5788C61.7366 78.5 61.6471 78.4213 61.5594 78.3425C61.4949 78.2834 61.4305 78.2225 61.366 78.1634C61.3015 78.1026 61.2353 78.0435 61.1708 77.9808C61.0437 77.8591 60.9184 77.7373 60.793 77.612C60.7913 77.6102 60.7877 77.6066 60.7859 77.6048C60.7841 77.603 60.7805 77.5994 60.7787 77.5977C60.6552 77.4723 60.5316 77.347 60.4099 77.2199C60.349 77.1554 60.2881 77.0892 60.2273 77.0247C60.1682 76.9602 60.1073 76.8976 60.0482 76.8313C59.9676 76.7436 59.8906 76.6541 59.8119 76.5645C59.7743 76.5234 59.7385 76.4804 59.7009 76.4392C59.6095 76.3336 59.52 76.2279 59.4305 76.1205C59.409 76.0954 59.3875 76.0686 59.366 76.0435C59.2676 75.9235 59.1709 75.8036 59.0742 75.6818C59.0634 75.6693 59.0527 75.655 59.0437 75.6424C58.9399 75.51 58.8378 75.3775 58.7376 75.2432C58.7358 75.2396 58.734 75.2378 58.7304 75.2342C58.0966 74.3873 57.5344 73.5064 57.0402 72.5968C57.0366 72.5915 57.0348 72.5861 57.0312 72.5825C56.9525 72.4393 56.8773 72.2943 56.8021 72.1474C56.7931 72.1295 56.7842 72.1098 56.7734 72.0919C56.7054 71.9594 56.6409 71.8269 56.5765 71.6944C56.5586 71.6586 56.5424 71.6228 56.5263 71.5888C56.4708 71.4724 56.4153 71.356 56.3634 71.2379C56.3383 71.1824 56.3133 71.1269 56.29 71.0731C56.247 70.9747 56.2023 70.8762 56.1611 70.7777C56.1288 70.7007 56.0966 70.6237 56.0644 70.5467C56.0322 70.468 55.9999 70.391 55.9677 70.3122C55.9283 70.2137 55.8889 70.1152 55.8513 70.015C55.8298 69.9577 55.8066 69.9004 55.7851 69.8431C55.7403 69.7231 55.6973 69.6032 55.6544 69.4814C55.6418 69.4438 55.6275 69.4062 55.615 69.3686C55.5666 69.2307 55.5201 69.0911 55.4753 68.9514C55.4682 68.9317 55.4628 68.9102 55.4556 68.8906C55.4055 68.7366 55.3571 68.5808 55.3106 68.4232C55.3088 68.4179 55.307 68.4107 55.3052 68.4053C55.0116 67.4134 54.786 66.3928 54.6356 65.3472C54.6356 65.3418 54.6338 65.3382 54.6338 65.3329C54.6105 65.1681 54.589 65.0034 54.5693 64.8387C54.5675 64.8208 54.5658 64.8029 54.564 64.785C54.5461 64.6328 54.5299 64.4806 54.5138 64.3266C54.5103 64.2908 54.5085 64.2568 54.5049 64.221C54.4923 64.0849 54.4798 63.947 54.4709 63.8092C54.4673 63.7519 54.4637 63.6946 54.4601 63.6373C54.453 63.5209 54.444 63.4027 54.4386 63.2863C54.4351 63.1968 54.4315 63.1073 54.4279 63.016C54.4243 62.9283 54.4207 62.8423 54.4189 62.7546C54.41 62.3947 54.41 62.0366 54.4189 61.6767C54.4207 61.589 54.4243 61.503 54.4279 61.4153C54.4315 61.3258 54.4333 61.2363 54.4386 61.1467C54.444 61.0286 54.453 60.9122 54.4601 60.7958C54.4637 60.7385 54.4673 60.6812 54.4709 60.6257C54.4816 60.4878 54.4923 60.3517 54.5049 60.2139C54.5085 60.1781 54.5103 60.1441 54.5138 60.1082C54.5282 59.9543 54.5461 59.8021 54.564 59.6499C54.5658 59.632 54.5675 59.6141 54.5693 59.5962C54.589 59.4297 54.6105 59.2649 54.6356 59.1002C54.6356 59.0966 54.6374 59.0913 54.6374 59.0877C54.7878 58.042 55.0134 57.0215 55.307 56.0295C55.3088 56.0224 55.3106 56.017 55.3124 56.0098C55.3589 55.8541 55.4073 55.6983 55.4556 55.5443C55.4628 55.5228 55.4699 55.5031 55.4753 55.4816C55.5201 55.342 55.5666 55.2023 55.615 55.0645C55.6275 55.0269 55.6418 54.9893 55.6544 54.9517C55.6973 54.8299 55.7403 54.71 55.7851 54.59C55.8066 54.5327 55.828 54.4754 55.8495 54.4199C55.8871 54.3196 55.9265 54.2211 55.9659 54.1209C55.9964 54.0421 56.0286 53.9651 56.0608 53.8881C56.093 53.8111 56.1253 53.7341 56.1575 53.6571C56.2005 53.5587 56.2434 53.4602 56.2864 53.3617C56.3115 53.3062 56.3347 53.2507 56.3598 53.197C56.4135 53.0806 56.4672 52.9624 56.5227 52.8461C56.5389 52.8103 56.5568 52.7744 56.5729 52.7404C56.6373 52.6079 56.7036 52.4754 56.7698 52.3429C56.7788 52.325 56.7877 52.3053 56.7985 52.2874C56.8737 52.1424 56.9489 51.9974 57.0277 51.8541C57.0312 51.8488 57.033 51.8434 57.0366 51.838C57.5308 50.9285 58.093 50.0475 58.7268 49.2006C58.7286 49.1971 58.7322 49.1935 58.734 49.1899C58.8343 49.0574 58.9345 48.9249 59.0384 48.7924C59.0491 48.7781 59.0599 48.7656 59.0706 48.753C59.1655 48.6313 59.2622 48.5113 59.3607 48.3931C59.3821 48.3663 59.4054 48.3412 59.4269 48.3144C59.5146 48.2087 59.6042 48.1031 59.6955 47.9974C59.7331 47.9545 59.7707 47.9133 59.8083 47.8703C59.8853 47.7826 59.9641 47.6931 60.0428 47.6053C60.1037 47.5391 60.1646 47.4746 60.2255 47.4084C60.2845 47.3439 60.3436 47.2795 60.4045 47.2168C60.6516 46.9572 60.9058 46.7029 61.1673 46.4541C61.2102 46.4147 61.2514 46.3753 61.2944 46.3359C61.3929 46.2446 61.4913 46.1515 61.5898 46.0619C61.5952 46.0566 61.6006 46.0512 61.6059 46.0476C65.4698 42.5544 70.5888 40.4237 76.1947 40.4237C80.7247 40.4237 84.9359 41.8149 88.4237 44.1909C88.934 43.8453 89.4246 43.4747 89.8973 43.079C85.9224 40.2142 81.1633 38.6673 76.1661 38.6673C69.8797 38.6637 63.9658 41.113 59.5164 45.5606Z" fill="url(#paint11_linear_650_1989)"/>
<path opacity="0.58" d="M59.5164 45.5606C55.0689 50.0082 52.6195 55.9221 52.6195 62.2139C52.6195 68.5038 55.0689 74.4178 59.5164 78.8671C63.964 83.3147 69.8779 85.764 76.1697 85.764C82.4596 85.764 88.3736 83.3147 92.8229 78.8671C95.1129 76.5771 96.8712 73.8985 98.0404 70.98C97.3725 70.8923 96.8211 70.4357 96.5973 69.8216C95.5749 72.5467 94.0208 75.0158 92.0638 77.0981C90.6332 78.62 88.9859 79.9378 87.1722 80.9996C84.8607 82.3532 82.277 83.2914 79.5268 83.7157C79.4982 83.7193 79.4713 83.7247 79.4427 83.7283C79.2815 83.7515 79.1204 83.7748 78.9592 83.7963C78.927 83.7999 78.893 83.8035 78.8608 83.8088C78.5976 83.8411 78.3344 83.8679 78.0676 83.8912C77.9799 83.8983 77.8921 83.9073 77.8026 83.9145C77.697 83.9216 77.5913 83.9288 77.4857 83.9342C77.4033 83.9395 77.321 83.9449 77.2386 83.9485C77.1849 83.9503 77.133 83.9521 77.0792 83.9556C77.004 83.9592 76.9271 83.961 76.8519 83.9646C76.8035 83.9664 76.757 83.9682 76.7086 83.97C76.3487 83.9789 75.9888 83.9789 75.6307 83.97C75.5448 83.9682 75.4589 83.9646 75.3729 83.961C75.2816 83.9574 75.1921 83.9556 75.1008 83.9503C74.9844 83.9449 74.868 83.9377 74.7516 83.9288C74.6943 83.9252 74.6352 83.9216 74.5779 83.918C74.4401 83.9073 74.304 83.8966 74.1679 83.884C74.1321 83.8804 74.0981 83.8787 74.0623 83.8751C73.9083 83.8607 73.7561 83.8428 73.6039 83.8249C73.586 83.8232 73.5681 83.8214 73.5502 83.8196C73.3855 83.7999 73.2208 83.7784 73.0578 83.7551C73.0525 83.7551 73.0471 83.7533 73.0417 83.7533C71.9961 83.6029 70.9755 83.3773 69.9836 83.0837C69.9764 83.0819 69.9693 83.0801 69.9639 83.0783C69.8081 83.0318 69.6523 82.9834 69.4984 82.9351C69.4769 82.9279 69.4554 82.9207 69.4357 82.9154C69.296 82.8706 69.1582 82.8241 69.0185 82.7757C68.9791 82.7632 68.9415 82.7489 68.9039 82.7345C68.784 82.6916 68.664 82.6486 68.5458 82.6038C68.4885 82.5823 68.4294 82.5591 68.3721 82.5376C68.2737 82.5 68.1752 82.4606 68.0767 82.4212C67.9979 82.389 67.9192 82.3567 67.8422 82.3245C67.7652 82.2923 67.6882 82.2601 67.613 82.2278C67.5145 82.1849 67.416 82.1419 67.3176 82.0989C67.262 82.0738 67.2083 82.0506 67.1546 82.0255C67.0364 81.9718 66.9201 81.9163 66.8019 81.8608C66.7661 81.8447 66.7321 81.8268 66.6963 81.8106C66.562 81.7462 66.4295 81.6799 66.297 81.6119C66.2791 81.603 66.2612 81.594 66.2433 81.585C66.0982 81.5098 65.9532 81.4329 65.8082 81.3559C65.8028 81.3541 65.7992 81.3505 65.7939 81.3487C64.8843 80.8545 64.0016 80.2905 63.1565 79.6585C63.1529 79.6567 63.1493 79.6531 63.1475 79.6513C63.0132 79.5511 62.8807 79.449 62.75 79.3452C62.7375 79.3344 62.725 79.3255 62.7124 79.3147C62.5907 79.218 62.4689 79.1213 62.349 79.0229C62.3239 79.0014 62.2988 78.9799 62.272 78.9584C62.1646 78.8689 62.0589 78.7794 61.9515 78.6881C61.9103 78.6522 61.8691 78.6146 61.8261 78.5788C61.7366 78.5 61.6471 78.4213 61.5594 78.3425C61.4949 78.2834 61.4305 78.2225 61.366 78.1634C61.3015 78.1026 61.2353 78.0435 61.1708 77.9808C61.0437 77.8591 60.9184 77.7373 60.793 77.612C60.7913 77.6102 60.7877 77.6066 60.7859 77.6048C60.7841 77.603 60.7805 77.5994 60.7787 77.5977C60.6552 77.4723 60.5316 77.347 60.4099 77.2199C60.349 77.1554 60.2881 77.0892 60.2273 77.0247C60.1682 76.9602 60.1073 76.8976 60.0482 76.8313C59.9676 76.7436 59.8906 76.6541 59.8119 76.5645C59.7743 76.5234 59.7385 76.4804 59.7009 76.4392C59.6095 76.3336 59.52 76.2279 59.4305 76.1205C59.409 76.0954 59.3875 76.0686 59.366 76.0435C59.2676 75.9235 59.1709 75.8036 59.0742 75.6818C59.0634 75.6693 59.0527 75.655 59.0437 75.6424C58.9399 75.51 58.8378 75.3775 58.7376 75.2432C58.7358 75.2396 58.734 75.2378 58.7304 75.2342C58.0966 74.3873 57.5344 73.5064 57.0402 72.5968C57.0366 72.5915 57.0348 72.5861 57.0312 72.5825C56.9525 72.4393 56.8773 72.2943 56.8021 72.1474C56.7931 72.1295 56.7842 72.1098 56.7734 72.0919C56.7054 71.9594 56.6409 71.8269 56.5765 71.6944C56.5586 71.6586 56.5424 71.6228 56.5263 71.5888C56.4708 71.4724 56.4153 71.356 56.3634 71.2379C56.3383 71.1824 56.3133 71.1269 56.29 71.0731C56.247 70.9747 56.2023 70.8762 56.1611 70.7777C56.1288 70.7007 56.0966 70.6237 56.0644 70.5467C56.0322 70.468 55.9999 70.391 55.9677 70.3122C55.9283 70.2137 55.8889 70.1152 55.8513 70.015C55.8298 69.9577 55.8066 69.9004 55.7851 69.8431C55.7403 69.7231 55.6973 69.6032 55.6544 69.4814C55.6418 69.4438 55.6275 69.4062 55.615 69.3686C55.5666 69.2307 55.5201 69.0911 55.4753 68.9514C55.4682 68.9317 55.4628 68.9102 55.4556 68.8906C55.4055 68.7366 55.3571 68.5808 55.3106 68.4232C55.3088 68.4179 55.307 68.4107 55.3052 68.4053C55.0116 67.4134 54.786 66.3928 54.6356 65.3472C54.6356 65.3418 54.6338 65.3382 54.6338 65.3329C54.6105 65.1681 54.589 65.0034 54.5693 64.8387C54.5675 64.8208 54.5658 64.8029 54.564 64.785C54.5461 64.6328 54.5299 64.4806 54.5138 64.3266C54.5103 64.2908 54.5085 64.2568 54.5049 64.221C54.4923 64.0849 54.4798 63.947 54.4709 63.8092C54.4673 63.7519 54.4637 63.6946 54.4601 63.6373C54.453 63.5209 54.444 63.4027 54.4386 63.2863C54.4351 63.1968 54.4315 63.1073 54.4279 63.016C54.4243 62.9283 54.4207 62.8423 54.4189 62.7546C54.41 62.3947 54.41 62.0366 54.4189 61.6767C54.4207 61.589 54.4243 61.503 54.4279 61.4153C54.4315 61.3258 54.4333 61.2363 54.4386 61.1467C54.444 61.0286 54.453 60.9122 54.4601 60.7958C54.4637 60.7385 54.4673 60.6812 54.4709 60.6257C54.4816 60.4878 54.4923 60.3517 54.5049 60.2139C54.5085 60.1781 54.5103 60.1441 54.5138 60.1082C54.5282 59.9543 54.5461 59.8021 54.564 59.6499C54.5658 59.632 54.5675 59.6141 54.5693 59.5962C54.589 59.4297 54.6105 59.2649 54.6356 59.1002C54.6356 59.0966 54.6374 59.0913 54.6374 59.0877C54.7878 58.042 55.0134 57.0215 55.307 56.0295C55.3088 56.0224 55.3106 56.017 55.3124 56.0098C55.3589 55.8541 55.4073 55.6983 55.4556 55.5443C55.4628 55.5228 55.4699 55.5031 55.4753 55.4816C55.5201 55.342 55.5666 55.2023 55.615 55.0645C55.6275 55.0269 55.6418 54.9893 55.6544 54.9517C55.6973 54.8299 55.7403 54.71 55.7851 54.59C55.8066 54.5327 55.828 54.4754 55.8495 54.4199C55.8871 54.3196 55.9265 54.2211 55.9659 54.1209C55.9964 54.0421 56.0286 53.9651 56.0608 53.8881C56.093 53.8111 56.1253 53.7341 56.1575 53.6571C56.2005 53.5587 56.2434 53.4602 56.2864 53.3617C56.3115 53.3062 56.3347 53.2507 56.3598 53.197C56.4135 53.0806 56.4672 52.9624 56.5227 52.8461C56.5389 52.8103 56.5568 52.7744 56.5729 52.7404C56.6373 52.6079 56.7036 52.4754 56.7698 52.3429C56.7788 52.325 56.7877 52.3053 56.7985 52.2874C56.8737 52.1424 56.9489 51.9974 57.0277 51.8541C57.0312 51.8488 57.033 51.8434 57.0366 51.838C57.5308 50.9285 58.093 50.0475 58.7268 49.2006C58.7286 49.1971 58.7322 49.1935 58.734 49.1899C58.8343 49.0574 58.9345 48.9249 59.0384 48.7924C59.0491 48.7781 59.0599 48.7656 59.0706 48.753C59.1655 48.6313 59.2622 48.5113 59.3607 48.3931C59.3821 48.3663 59.4054 48.3412 59.4269 48.3144C59.5146 48.2087 59.6042 48.1031 59.6955 47.9974C59.7331 47.9545 59.7707 47.9133 59.8083 47.8703C59.8853 47.7826 59.9641 47.6931 60.0428 47.6053C60.1037 47.5391 60.1646 47.4746 60.2255 47.4084C60.2845 47.3439 60.3436 47.2795 60.4045 47.2168C60.6516 46.9572 60.9058 46.7029 61.1673 46.4541C61.2102 46.4147 61.2514 46.3753 61.2944 46.3359C61.3929 46.2446 61.4913 46.1515 61.5898 46.0619C61.5952 46.0566 61.6006 46.0512 61.6059 46.0476C65.4698 42.5544 70.5888 40.4237 76.1947 40.4237C80.7247 40.4237 84.9359 41.8149 88.4237 44.1909C88.934 43.8453 89.4246 43.4747 89.8973 43.079C85.9224 40.2142 81.1633 38.6673 76.1661 38.6673C69.8797 38.6637 63.9658 41.113 59.5164 45.5606Z" fill="#40DFFF"/>
<g opacity="0.65">
<path d="M77.0991 83.9521C77.1457 83.9503 77.1922 83.9485 77.2388 83.9467C77.3211 83.9431 77.4035 83.9377 77.4859 83.9324C77.357 83.9395 77.228 83.9467 77.0991 83.9521Z" fill="url(#paint12_linear_650_1989)"/>
</g>
<path opacity="0.58" d="M77.0991 83.9521C77.1457 83.9503 77.1922 83.9485 77.2388 83.9467C77.3211 83.9431 77.4035 83.9377 77.4859 83.9324C77.357 83.9395 77.228 83.9467 77.0991 83.9521Z" fill="#40DFFF"/>
<g opacity="0.65">
<path d="M76.1982 83.9717C64.1913 83.9717 54.4224 74.2029 54.4224 62.1959C54.4224 56.008 57.0168 50.4128 61.1761 46.4451C61.1743 46.4469 61.1725 46.4487 61.1689 46.4505C60.9093 46.6975 60.6551 46.9518 60.4062 47.2132C60.3453 47.2759 60.2862 47.3403 60.2271 47.4048C60.1663 47.471 60.1054 47.5355 60.0445 47.6017C59.9657 47.6895 59.887 47.7772 59.81 47.8667C59.7724 47.9097 59.7348 47.9509 59.6972 47.9939C59.6058 48.0977 59.5181 48.2051 59.4286 48.3108C59.4071 48.3376 59.3838 48.3627 59.3623 48.3896C59.2639 48.5095 59.1672 48.6295 59.0723 48.7494C59.0615 48.7638 59.0508 48.7763 59.0401 48.7888C58.9362 48.9195 58.8359 49.052 58.7357 49.1863C58.7339 49.1899 58.7303 49.1935 58.7285 49.1971C58.1036 50.0314 57.5396 50.9123 57.0383 51.8344C57.0347 51.8398 57.0329 51.8452 57.0293 51.8505C56.9506 51.9938 56.8754 52.1388 56.8002 52.2838C56.7912 52.3018 56.7823 52.3214 56.7715 52.3394C56.7035 52.4718 56.639 52.6043 56.5746 52.7368C56.5567 52.7726 56.5405 52.8085 56.5244 52.8425C56.4689 52.9589 56.4152 53.0752 56.3615 53.1934C56.3364 53.2489 56.3114 53.3026 56.2881 53.3581C56.2451 53.4566 56.2021 53.5551 56.1592 53.6536C56.1269 53.7306 56.0947 53.8075 56.0625 53.8845C56.0303 53.9615 55.998 54.0403 55.9676 54.1173C55.9282 54.2158 55.8888 54.316 55.8512 54.4163C55.8297 54.4736 55.8082 54.5309 55.7868 54.5864C55.742 54.7064 55.699 54.8263 55.656 54.9481C55.6435 54.9857 55.6292 55.0233 55.6167 55.0609C55.5683 55.1987 55.5218 55.3384 55.477 55.4781C55.4698 55.4995 55.4627 55.5192 55.4573 55.5407C55.4072 55.6947 55.3588 55.8505 55.3141 56.0063C55.3123 56.0134 55.3105 56.0188 55.3087 56.0259C55.0151 57.0179 54.7895 58.0384 54.6391 59.0841C54.6391 59.0877 54.6373 59.093 54.6373 59.0966C54.614 59.2613 54.5925 59.4261 54.571 59.5926C54.5692 59.6105 54.5674 59.6284 54.5656 59.6463C54.5477 59.7985 54.5316 59.9507 54.5155 60.1047C54.5119 60.1405 54.5101 60.1745 54.5066 60.2103C54.494 60.3464 54.4815 60.4842 54.4725 60.6221C54.469 60.6794 54.4654 60.7367 54.4618 60.7922C54.4546 60.9086 54.4457 61.0268 54.4403 61.1431C54.4367 61.2327 54.4331 61.3222 54.4296 61.4117C54.426 61.4994 54.4224 61.5854 54.4206 61.6731C54.417 61.8522 54.4135 62.0312 54.4135 62.2121C54.4135 62.3929 54.4152 62.5719 54.4206 62.751C54.4224 62.8387 54.426 62.9247 54.4296 63.0124C54.4331 63.1019 54.4349 63.1932 54.4403 63.2828C54.4457 63.4009 54.4546 63.5173 54.4618 63.6337C54.4654 63.691 54.469 63.7483 54.4725 63.8056C54.4833 63.9435 54.494 64.0795 54.5066 64.2174C54.5101 64.2532 54.5119 64.2872 54.5155 64.323C54.5298 64.477 54.5477 64.6292 54.5656 64.7814C54.5674 64.7993 54.5692 64.8172 54.571 64.8351C54.5907 64.9998 54.6122 65.1663 54.6355 65.3293C54.6355 65.3347 54.6373 65.3382 54.6373 65.3436C54.7877 66.3892 55.0133 67.4098 55.3069 68.4017C55.3087 68.4071 55.3105 68.4143 55.3123 68.4196C55.3588 68.5754 55.4072 68.7312 55.4573 68.887C55.4645 68.9084 55.4698 68.9281 55.477 68.9478C55.5218 69.0875 55.5701 69.2272 55.6167 69.365C55.6292 69.4026 55.6435 69.4402 55.656 69.4778C55.699 69.5978 55.742 69.7195 55.7868 69.8395C55.8082 69.8968 55.8297 69.9541 55.853 70.0114C55.8906 70.1099 55.93 70.2101 55.9694 70.3086C56.0016 70.3874 56.032 70.4644 56.0661 70.5432C56.0983 70.6201 56.1305 70.6971 56.1627 70.7741C56.2057 70.8726 56.2487 70.9711 56.2917 71.0696C56.3167 71.1251 56.34 71.1806 56.3651 71.2343C56.4188 71.3525 56.4725 71.4688 56.528 71.5852C56.5441 71.621 56.562 71.6568 56.5781 71.6909C56.6426 71.8233 56.7088 71.9558 56.7751 72.0883C56.784 72.1062 56.793 72.1259 56.8037 72.1438C56.8789 72.2889 56.9541 72.4339 57.0329 72.5789C57.0365 72.5843 57.0383 72.5897 57.0419 72.5933C57.5432 73.5154 58.109 74.3963 58.7321 75.2306C58.7339 75.2342 58.7357 75.236 58.7393 75.2396C58.8395 75.3739 58.9416 75.5064 59.0454 75.6389C59.0562 75.6514 59.0669 75.6657 59.0759 75.6783C59.1725 75.8 59.2692 75.92 59.3677 76.0399C59.3892 76.065 59.4107 76.0919 59.4322 76.1169C59.5217 76.2243 59.6112 76.33 59.7025 76.4356C59.7383 76.4786 59.7759 76.5198 59.8135 76.561C59.8923 76.6505 59.9711 76.74 60.0499 76.8277C60.109 76.8922 60.1681 76.9567 60.2289 77.0211C60.2898 77.0856 60.3489 77.1518 60.4116 77.2163C60.5333 77.3434 60.6551 77.4705 60.7804 77.5941C60.7858 77.5994 60.7911 77.6048 60.7947 77.6084C60.9183 77.7319 61.0454 77.8555 61.1725 77.9772C61.237 78.0381 61.3032 78.099 61.3677 78.1599C61.4321 78.2189 61.4948 78.2798 61.561 78.3389C61.6488 78.4195 61.7383 78.4983 61.8278 78.5752C61.869 78.6111 61.9102 78.6487 61.9532 78.6845C62.0588 78.7758 62.1662 78.8653 62.2737 78.9548C62.2987 78.9763 62.3238 78.9978 62.3507 79.0193C62.4706 79.1178 62.5924 79.2162 62.7141 79.3111C62.7267 79.3219 62.7392 79.3308 62.7517 79.3416C62.8824 79.4454 63.0167 79.5475 63.1492 79.6477C63.1528 79.6495 63.1564 79.6531 63.1582 79.6549C63.9925 80.2798 64.8752 80.8456 65.7955 81.3451C65.8009 81.3469 65.8045 81.3505 65.8099 81.3523C65.9531 81.4311 66.0999 81.5063 66.2449 81.5815C66.2628 81.5904 66.2808 81.5994 66.2987 81.6083C66.4312 81.6764 66.5636 81.7426 66.6979 81.8071C66.732 81.8232 66.7678 81.8411 66.8036 81.8572C66.92 81.9127 67.0381 81.9682 67.1563 82.0219C67.21 82.047 67.2655 82.0703 67.3192 82.0953C67.4177 82.1401 67.5162 82.1831 67.6147 82.2242C67.6916 82.2565 67.7668 82.2887 67.8438 82.3209C67.9226 82.3532 67.9996 82.3854 68.0784 82.4176C68.1769 82.457 68.2753 82.4946 68.3738 82.534C68.4311 82.5555 68.4902 82.5788 68.5475 82.6002C68.6675 82.645 68.7856 82.688 68.9056 82.7309C68.9432 82.7453 68.9826 82.7578 69.0202 82.7721C69.1581 82.8205 69.2977 82.867 69.4374 82.9118C69.4589 82.9189 69.4803 82.9261 69.5 82.9315C69.654 82.9816 69.8098 83.0282 69.9656 83.0747C69.9727 83.0765 69.9799 83.0783 69.9853 83.0801C70.9772 83.3737 71.9978 83.5975 73.0434 83.7497C73.0488 83.7497 73.0541 83.7515 73.0595 83.7515C73.2242 83.7748 73.3872 83.7963 73.5519 83.816C73.5698 83.8178 73.5877 83.8196 73.6056 83.8214C73.7578 83.8393 73.91 83.8554 74.064 83.8715C74.0998 83.8751 74.1338 83.8769 74.1696 83.8804C74.3057 83.893 74.4435 83.9055 74.5796 83.9145C74.6369 83.918 74.696 83.9216 74.7533 83.9252C74.8697 83.9324 74.9861 83.9395 75.1024 83.9467C75.1938 83.9503 75.2833 83.9538 75.3746 83.9574C75.4605 83.961 75.5465 83.9646 75.6324 83.9664C75.8115 83.97 75.9905 83.9735 76.1714 83.9735C76.3522 83.9735 76.5312 83.9717 76.7103 83.9664C76.7586 83.9646 76.8052 83.9628 76.8535 83.961C76.6333 83.9682 76.4167 83.9717 76.1982 83.9717Z" fill="url(#paint13_linear_650_1989)"/>
</g>
<path opacity="0.58" d="M76.1982 83.9717C64.1913 83.9717 54.4224 74.2029 54.4224 62.1959C54.4224 56.008 57.0168 50.4128 61.1761 46.4451C61.1743 46.4469 61.1725 46.4487 61.1689 46.4505C60.9093 46.6975 60.6551 46.9518 60.4062 47.2132C60.3453 47.2759 60.2862 47.3403 60.2271 47.4048C60.1663 47.471 60.1054 47.5355 60.0445 47.6017C59.9657 47.6895 59.887 47.7772 59.81 47.8667C59.7724 47.9097 59.7348 47.9509 59.6972 47.9939C59.6058 48.0977 59.5181 48.2051 59.4286 48.3108C59.4071 48.3376 59.3838 48.3627 59.3623 48.3896C59.2639 48.5095 59.1672 48.6295 59.0723 48.7494C59.0615 48.7638 59.0508 48.7763 59.0401 48.7888C58.9362 48.9195 58.8359 49.052 58.7357 49.1863C58.7339 49.1899 58.7303 49.1935 58.7285 49.1971C58.1036 50.0314 57.5396 50.9123 57.0383 51.8344C57.0347 51.8398 57.0329 51.8452 57.0293 51.8505C56.9506 51.9938 56.8754 52.1388 56.8002 52.2838C56.7912 52.3018 56.7823 52.3214 56.7715 52.3394C56.7035 52.4718 56.639 52.6043 56.5746 52.7368C56.5567 52.7726 56.5405 52.8085 56.5244 52.8425C56.4689 52.9589 56.4152 53.0752 56.3615 53.1934C56.3364 53.2489 56.3114 53.3026 56.2881 53.3581C56.2451 53.4566 56.2021 53.5551 56.1592 53.6536C56.1269 53.7306 56.0947 53.8075 56.0625 53.8845C56.0303 53.9615 55.998 54.0403 55.9676 54.1173C55.9282 54.2158 55.8888 54.316 55.8512 54.4163C55.8297 54.4736 55.8082 54.5309 55.7868 54.5864C55.742 54.7064 55.699 54.8263 55.656 54.9481C55.6435 54.9857 55.6292 55.0233 55.6167 55.0609C55.5683 55.1987 55.5218 55.3384 55.477 55.4781C55.4698 55.4995 55.4627 55.5192 55.4573 55.5407C55.4072 55.6947 55.3588 55.8505 55.3141 56.0063C55.3123 56.0134 55.3105 56.0188 55.3087 56.0259C55.0151 57.0179 54.7895 58.0384 54.6391 59.0841C54.6391 59.0877 54.6373 59.093 54.6373 59.0966C54.614 59.2613 54.5925 59.4261 54.571 59.5926C54.5692 59.6105 54.5674 59.6284 54.5656 59.6463C54.5477 59.7985 54.5316 59.9507 54.5155 60.1047C54.5119 60.1405 54.5101 60.1745 54.5066 60.2103C54.494 60.3464 54.4815 60.4842 54.4725 60.6221C54.469 60.6794 54.4654 60.7367 54.4618 60.7922C54.4546 60.9086 54.4457 61.0268 54.4403 61.1431C54.4367 61.2327 54.4331 61.3222 54.4296 61.4117C54.426 61.4994 54.4224 61.5854 54.4206 61.6731C54.417 61.8522 54.4135 62.0312 54.4135 62.2121C54.4135 62.3929 54.4152 62.5719 54.4206 62.751C54.4224 62.8387 54.426 62.9247 54.4296 63.0124C54.4331 63.1019 54.4349 63.1932 54.4403 63.2828C54.4457 63.4009 54.4546 63.5173 54.4618 63.6337C54.4654 63.691 54.469 63.7483 54.4725 63.8056C54.4833 63.9435 54.494 64.0795 54.5066 64.2174C54.5101 64.2532 54.5119 64.2872 54.5155 64.323C54.5298 64.477 54.5477 64.6292 54.5656 64.7814C54.5674 64.7993 54.5692 64.8172 54.571 64.8351C54.5907 64.9998 54.6122 65.1663 54.6355 65.3293C54.6355 65.3347 54.6373 65.3382 54.6373 65.3436C54.7877 66.3892 55.0133 67.4098 55.3069 68.4017C55.3087 68.4071 55.3105 68.4143 55.3123 68.4196C55.3588 68.5754 55.4072 68.7312 55.4573 68.887C55.4645 68.9084 55.4698 68.9281 55.477 68.9478C55.5218 69.0875 55.5701 69.2272 55.6167 69.365C55.6292 69.4026 55.6435 69.4402 55.656 69.4778C55.699 69.5978 55.742 69.7195 55.7868 69.8395C55.8082 69.8968 55.8297 69.9541 55.853 70.0114C55.8906 70.1099 55.93 70.2101 55.9694 70.3086C56.0016 70.3874 56.032 70.4644 56.0661 70.5432C56.0983 70.6201 56.1305 70.6971 56.1627 70.7741C56.2057 70.8726 56.2487 70.9711 56.2917 71.0696C56.3167 71.1251 56.34 71.1806 56.3651 71.2343C56.4188 71.3525 56.4725 71.4688 56.528 71.5852C56.5441 71.621 56.562 71.6568 56.5781 71.6909C56.6426 71.8233 56.7088 71.9558 56.7751 72.0883C56.784 72.1062 56.793 72.1259 56.8037 72.1438C56.8789 72.2889 56.9541 72.4339 57.0329 72.5789C57.0365 72.5843 57.0383 72.5897 57.0419 72.5933C57.5432 73.5154 58.109 74.3963 58.7321 75.2306C58.7339 75.2342 58.7357 75.236 58.7393 75.2396C58.8395 75.3739 58.9416 75.5064 59.0454 75.6389C59.0562 75.6514 59.0669 75.6657 59.0759 75.6783C59.1725 75.8 59.2692 75.92 59.3677 76.0399C59.3892 76.065 59.4107 76.0919 59.4322 76.1169C59.5217 76.2243 59.6112 76.33 59.7025 76.4356C59.7383 76.4786 59.7759 76.5198 59.8135 76.561C59.8923 76.6505 59.9711 76.74 60.0499 76.8277C60.109 76.8922 60.1681 76.9567 60.2289 77.0211C60.2898 77.0856 60.3489 77.1518 60.4116 77.2163C60.5333 77.3434 60.6551 77.4705 60.7804 77.5941C60.7858 77.5994 60.7911 77.6048 60.7947 77.6084C60.9183 77.7319 61.0454 77.8555 61.1725 77.9772C61.237 78.0381 61.3032 78.099 61.3677 78.1599C61.4321 78.2189 61.4948 78.2798 61.561 78.3389C61.6488 78.4195 61.7383 78.4983 61.8278 78.5752C61.869 78.6111 61.9102 78.6487 61.9532 78.6845C62.0588 78.7758 62.1662 78.8653 62.2737 78.9548C62.2987 78.9763 62.3238 78.9978 62.3507 79.0193C62.4706 79.1178 62.5924 79.2162 62.7141 79.3111C62.7267 79.3219 62.7392 79.3308 62.7517 79.3416C62.8824 79.4454 63.0167 79.5475 63.1492 79.6477C63.1528 79.6495 63.1564 79.6531 63.1582 79.6549C63.9925 80.2798 64.8752 80.8456 65.7955 81.3451C65.8009 81.3469 65.8045 81.3505 65.8099 81.3523C65.9531 81.4311 66.0999 81.5063 66.2449 81.5815C66.2628 81.5904 66.2808 81.5994 66.2987 81.6083C66.4312 81.6764 66.5636 81.7426 66.6979 81.8071C66.732 81.8232 66.7678 81.8411 66.8036 81.8572C66.92 81.9127 67.0381 81.9682 67.1563 82.0219C67.21 82.047 67.2655 82.0703 67.3192 82.0953C67.4177 82.1401 67.5162 82.1831 67.6147 82.2242C67.6916 82.2565 67.7668 82.2887 67.8438 82.3209C67.9226 82.3532 67.9996 82.3854 68.0784 82.4176C68.1769 82.457 68.2753 82.4946 68.3738 82.534C68.4311 82.5555 68.4902 82.5788 68.5475 82.6002C68.6675 82.645 68.7856 82.688 68.9056 82.7309C68.9432 82.7453 68.9826 82.7578 69.0202 82.7721C69.1581 82.8205 69.2977 82.867 69.4374 82.9118C69.4589 82.9189 69.4803 82.9261 69.5 82.9315C69.654 82.9816 69.8098 83.0282 69.9656 83.0747C69.9727 83.0765 69.9799 83.0783 69.9853 83.0801C70.9772 83.3737 71.9978 83.5975 73.0434 83.7497C73.0488 83.7497 73.0541 83.7515 73.0595 83.7515C73.2242 83.7748 73.3872 83.7963 73.5519 83.816C73.5698 83.8178 73.5877 83.8196 73.6056 83.8214C73.7578 83.8393 73.91 83.8554 74.064 83.8715C74.0998 83.8751 74.1338 83.8769 74.1696 83.8804C74.3057 83.893 74.4435 83.9055 74.5796 83.9145C74.6369 83.918 74.696 83.9216 74.7533 83.9252C74.8697 83.9324 74.9861 83.9395 75.1024 83.9467C75.1938 83.9503 75.2833 83.9538 75.3746 83.9574C75.4605 83.961 75.5465 83.9646 75.6324 83.9664C75.8115 83.97 75.9905 83.9735 76.1714 83.9735C76.3522 83.9735 76.5312 83.9717 76.7103 83.9664C76.7586 83.9646 76.8052 83.9628 76.8535 83.961C76.6333 83.9682 76.4167 83.9717 76.1982 83.9717Z" fill="#40DFFF"/>
<g opacity="0.65">
<path d="M79.5269 83.7157C79.4983 83.7193 79.4714 83.7247 79.4427 83.7282C79.4714 83.7229 79.4983 83.7193 79.5269 83.7157Z" fill="url(#paint14_linear_650_1989)"/>
</g>
<path opacity="0.58" d="M79.5269 83.7157C79.4983 83.7193 79.4714 83.7247 79.4427 83.7282C79.4714 83.7229 79.4983 83.7193 79.5269 83.7157Z" fill="#40DFFF"/>
<g opacity="0.65">
<path d="M78.9592 83.7963C78.927 83.7999 78.8929 83.8034 78.8607 83.8088C78.8929 83.8034 78.9252 83.7999 78.9592 83.7963Z" fill="url(#paint15_linear_650_1989)"/>
</g>
<path opacity="0.58" d="M78.9592 83.7963C78.927 83.7999 78.8929 83.8034 78.8607 83.8088C78.8929 83.8034 78.9252 83.7999 78.9592 83.7963Z" fill="#40DFFF"/>
<g opacity="0.65">
<path d="M78.0675 83.8894C77.9797 83.8966 77.892 83.9055 77.8025 83.9127C77.8902 83.9055 77.978 83.8966 78.0675 83.8894Z" fill="url(#paint16_linear_650_1989)"/>
</g>
<path opacity="0.58" d="M78.0675 83.8894C77.9797 83.8966 77.892 83.9055 77.8025 83.9127C77.8902 83.9055 77.978 83.8966 78.0675 83.8894Z" fill="#40DFFF"/>
<path d="M96.7245 69.3668C96.7119 69.4044 96.6976 69.442 96.6851 69.4778C96.6994 69.4402 96.7119 69.4026 96.7245 69.3668Z" fill="url(#paint17_linear_650_1989)"/>
<path d="M95.7094 84.7578L116.305 111.389C116.524 111.672 116.619 112.023 116.574 112.378C116.529 112.732 116.348 113.047 116.065 113.266C115.766 113.497 115.457 113.545 115.249 113.545C114.83 113.545 114.443 113.355 114.189 113.026L93.6109 86.4175C93.6109 86.4175 95.0361 85.3415 95.7094 84.7578ZM95.9296 82.115C94.4471 83.5832 92.8034 84.8885 91.0237 85.9986L112.773 114.122C113.389 114.918 114.314 115.336 115.249 115.336C115.917 115.336 116.59 115.123 117.161 114.682C118.527 113.626 118.778 111.662 117.722 110.294L95.9296 82.115Z" fill="url(#paint18_linear_650_1989)"/>
<path d="M119.643 85.0192C119.643 79.3684 115.061 74.7866 109.41 74.7866C115.061 74.7866 119.643 70.2048 119.643 64.554C119.643 70.2048 124.224 74.7866 129.875 74.7866C124.224 74.7866 119.643 79.3684 119.643 85.0192Z" fill="url(#paint19_linear_650_1989)"/>
<path opacity="0.81" d="M118.353 47.3352C108.264 47.3352 100.057 39.1276 100.057 29.0383C100.057 28.05 99.2544 27.2478 98.2661 27.2478C97.2777 27.2478 96.4756 28.05 96.4756 29.0383C96.4756 39.1276 88.268 47.3352 78.1787 47.3352C77.1903 47.3352 76.3882 48.1373 76.3882 49.1257C76.3882 50.114 77.1903 50.9162 78.1787 50.9162C88.268 50.9162 96.4756 59.1237 96.4756 69.2131C96.4756 70.2014 97.2777 71.0036 98.2661 71.0036C99.2544 71.0036 100.057 70.2014 100.057 69.2131C100.057 59.1237 108.264 50.9162 118.353 50.9162C119.342 50.9162 120.144 50.114 120.144 49.1257C120.144 48.1373 119.342 47.3352 118.353 47.3352Z" fill="url(#paint20_linear_650_1989)"/>
<path d="M98.2661 29.0363C98.2661 40.1301 107.26 49.1237 118.353 49.1237C107.26 49.1237 98.2661 58.1172 98.2661 69.211C98.2661 58.1172 89.2725 49.1237 78.1787 49.1237C89.2725 49.1255 98.2661 40.1319 98.2661 29.0363ZM98.2661 27.2458C97.2777 27.2458 96.4756 28.0479 96.4756 29.0363C96.4756 39.1256 88.268 47.3332 78.1787 47.3332C77.1903 47.3332 76.3882 48.1353 76.3882 49.1237C76.3882 50.112 77.1903 50.9141 78.1787 50.9141C88.268 50.9141 96.4756 59.1217 96.4756 69.211C96.4756 70.1994 97.2777 71.0015 98.2661 71.0015C99.2544 71.0015 100.057 70.1994 100.057 69.211C100.057 59.1217 108.264 50.9141 118.353 50.9141C119.342 50.9141 120.144 50.112 120.144 49.1237C120.144 48.1353 119.342 47.3332 118.353 47.3332C108.264 47.3332 100.057 39.1256 100.057 29.0363C100.057 28.0479 99.2544 27.2458 98.2661 27.2458Z" fill="url(#paint21_linear_650_1989)"/>
<path opacity="0.4" d="M22.6435 72.8672H10.6115V84.8974H22.6435H34.6755V72.8672H22.6435Z" fill="#40E2FF"/>
<path opacity="0.2" d="M34.6756 48.8067H22.6436V60.837H34.6756V48.8067Z" fill="#40E2FF"/>
<path opacity="0.4" d="M46.7056 96.9295H34.6754V108.96H46.7056V96.9295Z" fill="#40E2FF"/>
<path opacity="0.6" d="M46.7056 60.837H34.6754V72.869H46.7056V60.837Z" fill="#40E2FF"/>
<path opacity="0.4" d="M46.7056 36.7747H34.6754V48.8067H46.7056V36.7747Z" fill="#40E2FF"/>
<path opacity="0.6" d="M58.7378 108.96H46.7058V120.992H58.7378V108.96Z" fill="#40E2FF"/>
<path opacity="0.2" d="M58.7377 84.8974H46.7056H34.6754V96.9295H46.7056H58.7377H70.7679V89.7102C66.7071 88.9153 62.9596 87.2412 59.7332 84.8974H58.7377Z" fill="#40E2FF"/>
<path opacity="0.6" d="M58.7378 84.8974V84.1419C55.0297 81.1894 52.0898 77.3166 50.2581 72.869H46.7058V84.8992H58.7378V84.8974Z" fill="#40E2FF"/>
<path opacity="0.4" d="M82.8001 96.9295H70.7681V108.96H82.8001V96.9295Z" fill="#40E2FF"/>
<path d="M119.632 85.0264C119.632 79.3756 115.05 74.7938 109.399 74.7938C115.05 74.7938 119.632 70.2119 119.632 64.5612C119.632 70.2119 124.214 74.7938 129.864 74.7938C124.214 74.7938 119.632 79.3756 119.632 85.0264Z" fill="url(#paint22_linear_650_1989)"/>
</g>
<defs>
<linearGradient id="paint0_linear_650_1989" x1="73.2876" y1="98.7128" x2="118.379" y2="98.7128" gradientUnits="userSpaceOnUse">
<stop stop-color="#40DFFF" stop-opacity="0"/>
<stop offset="1" stop-color="#40DFFF"/>
</linearGradient>
<linearGradient id="paint1_linear_650_1989" x1="76.3971" y1="49.1169" x2="120.154" y2="49.1169" gradientUnits="userSpaceOnUse">
<stop stop-color="#40DFFF"/>
<stop offset="1" stop-color="#40DFFF" stop-opacity="0"/>
</linearGradient>
<linearGradient id="paint2_linear_650_1989" x1="120.154" y1="49.1169" x2="76.3968" y2="49.1169" gradientUnits="userSpaceOnUse">
<stop stop-color="#40DEFF" stop-opacity="0.1"/>
<stop offset="0.766" stop-color="#40DEFF"/>
<stop offset="0.9903" stop-color="#9AF0FC"/>
</linearGradient>
<linearGradient id="paint3_linear_650_1989" x1="83.5589" y1="88.1274" x2="50.2539" y2="54.8227" gradientUnits="userSpaceOnUse">
<stop stop-color="#40DEFF" stop-opacity="0.1"/>
<stop offset="0.766" stop-color="#40DEFF"/>
<stop offset="0.9903" stop-color="#9AF0FC"/>
</linearGradient>
<linearGradient id="paint4_linear_650_1989" x1="83.1469" y1="88.5393" x2="49.843" y2="55.2348" gradientUnits="userSpaceOnUse">
<stop stop-color="#40DEFF" stop-opacity="0.1"/>
<stop offset="0.766" stop-color="#40DEFF"/>
<stop offset="0.9903" stop-color="#9AF0FC"/>
</linearGradient>
<linearGradient id="paint5_linear_650_1989" x1="91.4939" y1="80.1924" x2="58.1894" y2="46.8878" gradientUnits="userSpaceOnUse">
<stop stop-color="#40DEFF" stop-opacity="0.1"/>
<stop offset="0.766" stop-color="#40DEFF"/>
<stop offset="0.9903" stop-color="#9AF0FC"/>
</linearGradient>
<linearGradient id="paint6_linear_650_1989" x1="82.7003" y1="88.9854" x2="49.4001" y2="55.681" gradientUnits="userSpaceOnUse">
<stop stop-color="#40DEFF" stop-opacity="0.1"/>
<stop offset="0.766" stop-color="#40DEFF"/>
<stop offset="0.9903" stop-color="#9AF0FC"/>
</linearGradient>
<linearGradient id="paint7_linear_650_1989" x1="100.791" y1="70.8952" x2="67.4865" y2="37.5906" gradientUnits="userSpaceOnUse">
<stop stop-color="#40DEFF" stop-opacity="0.1"/>
<stop offset="0.766" stop-color="#40DEFF"/>
<stop offset="0.9903" stop-color="#9AF0FC"/>
</linearGradient>
<linearGradient id="paint8_linear_650_1989" x1="93.464" y1="78.222" x2="60.1595" y2="44.9175" gradientUnits="userSpaceOnUse">
<stop stop-color="#40DEFF" stop-opacity="0.1"/>
<stop offset="0.766" stop-color="#40DEFF"/>
<stop offset="0.9903" stop-color="#9AF0FC"/>
</linearGradient>
<linearGradient id="paint9_linear_650_1989" x1="82.3435" y1="89.3415" x2="49.0471" y2="56.0372" gradientUnits="userSpaceOnUse">
<stop stop-color="#40DEFF" stop-opacity="0.1"/>
<stop offset="0.766" stop-color="#40DEFF"/>
<stop offset="0.9903" stop-color="#9AF0FC"/>
</linearGradient>
<linearGradient id="paint10_linear_650_1989" x1="87.0541" y1="43.3677" x2="65.3011" y2="81.045" gradientUnits="userSpaceOnUse">
<stop stop-color="#40DFFF"/>
<stop offset="1" stop-color="#40DFFF" stop-opacity="0.1"/>
</linearGradient>
<linearGradient id="paint11_linear_650_1989" x1="92.7084" y1="78.9779" x2="59.4038" y2="45.6733" gradientUnits="userSpaceOnUse">
<stop stop-color="#40DEFF" stop-opacity="0.1"/>
<stop offset="0.766" stop-color="#40DEFF"/>
<stop offset="0.9903" stop-color="#9AF0FC"/>
</linearGradient>
<linearGradient id="paint12_linear_650_1989" x1="77.3446" y1="83.851" x2="77.2393" y2="84.0332" gradientUnits="userSpaceOnUse">
<stop stop-color="#40DFFF"/>
<stop offset="1" stop-color="#40DFFF" stop-opacity="0.1"/>
</linearGradient>
<linearGradient id="paint13_linear_650_1989" x1="74.7893" y1="54.3048" x2="60.8283" y2="78.4861" gradientUnits="userSpaceOnUse">
<stop stop-color="#40DFFF"/>
<stop offset="1" stop-color="#40DFFF" stop-opacity="0.1"/>
</linearGradient>
<linearGradient id="paint14_linear_650_1989" x1="79.4981" y1="83.6985" x2="79.4714" y2="83.7446" gradientUnits="userSpaceOnUse">
<stop stop-color="#40DFFF"/>
<stop offset="1" stop-color="#40DFFF" stop-opacity="0.1"/>
</linearGradient>
<linearGradient id="paint15_linear_650_1989" x1="78.9242" y1="83.7757" x2="78.8943" y2="83.8275" gradientUnits="userSpaceOnUse">
<stop stop-color="#40DFFF"/>
<stop offset="1" stop-color="#40DFFF" stop-opacity="0.1"/>
</linearGradient>
<linearGradient id="paint16_linear_650_1989" x1="77.9726" y1="83.8352" x2="77.8966" y2="83.9668" gradientUnits="userSpaceOnUse">
<stop stop-color="#40DFFF"/>
<stop offset="1" stop-color="#40DFFF" stop-opacity="0.1"/>
</linearGradient>
<linearGradient id="paint17_linear_650_1989" x1="-60.966" y1="69.4219" x2="254.337" y2="69.4219" gradientUnits="userSpaceOnUse">
<stop offset="0.1109" stop-color="#40E0FF"/>
<stop offset="0.3116" stop-color="#33DEFF" stop-opacity="0.7968"/>
<stop offset="0.7344" stop-color="#1CDAFF" stop-opacity="0.3689"/>
<stop offset="1" stop-color="#13D9FF" stop-opacity="0.1"/>
</linearGradient>
<linearGradient id="paint18_linear_650_1989" x1="91.0241" y1="98.7252" x2="118.375" y2="98.7252" gradientUnits="userSpaceOnUse">
<stop stop-color="#40DEFF" stop-opacity="0.1"/>
<stop offset="0.766" stop-color="#40DEFF"/>
<stop offset="0.9903" stop-color="#9AF0FC"/>
</linearGradient>
<linearGradient id="paint19_linear_650_1989" x1="124.759" y1="79.9028" x2="114.526" y2="69.6699" gradientUnits="userSpaceOnUse">
<stop stop-color="#40E0FF"/>
<stop offset="0.0251" stop-color="#3EE0FF" stop-opacity="0.9774"/>
<stop offset="0.384" stop-color="#26DCFF" stop-opacity="0.6544"/>
<stop offset="0.7178" stop-color="#18DAFF" stop-opacity="0.354"/>
<stop offset="1" stop-color="#13D9FF" stop-opacity="0.1"/>
</linearGradient>
<linearGradient id="paint20_linear_650_1989" x1="76.3868" y1="49.1251" x2="120.144" y2="49.1251" gradientUnits="userSpaceOnUse">
<stop stop-color="#40DFFF"/>
<stop offset="1" stop-color="#40DFFF" stop-opacity="0"/>
</linearGradient>
<linearGradient id="paint21_linear_650_1989" x1="120.144" y1="49.1249" x2="76.3868" y2="49.1249" gradientUnits="userSpaceOnUse">
<stop stop-color="#40DEFF" stop-opacity="0.1"/>
<stop offset="0.766" stop-color="#40DEFF"/>
<stop offset="0.9903" stop-color="#9AF0FC"/>
</linearGradient>
<linearGradient id="paint22_linear_650_1989" x1="124.749" y1="79.9108" x2="114.516" y2="69.6779" gradientUnits="userSpaceOnUse">
<stop stop-color="#40E0FF"/>
<stop offset="0.0251" stop-color="#3EE0FF" stop-opacity="0.9774"/>
<stop offset="0.384" stop-color="#26DCFF" stop-opacity="0.6544"/>
<stop offset="0.7178" stop-color="#18DAFF" stop-opacity="0.354"/>
<stop offset="1" stop-color="#13D9FF" stop-opacity="0.1"/>
</linearGradient>
<clipPath id="clip0_650_1989">
<rect width="141" height="141" fill="white" transform="translate(0.875)"/>
</clipPath>
</defs>
</svg>
