<svg width="142" height="141" viewBox="0 0 142 141" fill="none" xmlns="http://www.w3.org/2000/svg">
<g opacity="0.8">
<path d="M104.763 58.0323C103.49 58.0323 102.242 58.1372 101.026 58.3404C97.1377 51.5213 89.9292 46.9429 81.6784 46.9429C80.7711 46.9429 79.8756 46.998 78.9958 47.1068C75.208 39.9127 67.7963 35.0262 59.2741 35.0262C47.3876 35.0262 37.6631 44.5318 36.9157 56.5442C36.9 56.5442 36.8856 56.5442 36.8698 56.5442C24.4956 56.5442 14.4656 66.8443 14.4656 79.5516C14.4656 92.2431 24.472 102.534 36.8266 102.559H36.8712L47.3981 102.541L45.8116 99.1946C35.3909 104.286 22.934 99.7925 17.8653 89.1004C12.7638 78.3401 17.1075 65.3614 27.5675 60.113C38.0276 54.8646 50.6431 59.3329 55.7459 70.0932C56.6676 72.0376 57.2812 74.037 57.6038 76.0679C56.5745 76.4285 54.9553 76.9031 52.6858 76.928C51.376 76.9424 50.1317 76.772 48.8927 76.4573C48.6856 75.6497 48.405 74.8499 48.0353 74.0698C44.9633 67.5916 37.3681 64.9012 31.0708 68.061C24.7735 71.2208 22.1579 79.0337 25.2298 85.5132C28.3017 91.9914 35.897 94.6818 42.1943 91.522C42.1982 91.5194 42.2021 91.5168 42.2074 91.5154L39.9365 86.7246C39.1538 85.0726 40.402 83.1689 42.1838 83.2961L60.8776 84.6413C62.6594 84.7698 63.6388 86.8335 62.6397 88.357L53.3295 102.558H104.764H105.559V102.543C117.565 102.128 127.169 92.3257 127.169 80.295C127.167 67.9994 117.136 58.0323 104.763 58.0323Z" fill="url(#paint0_linear_650_2607)"/>
</g>
<path d="M59.2256 81.0148C71.5991 81.0148 81.6298 70.714 81.6298 58.0074C81.6298 45.3008 71.5991 35 59.2256 35C46.852 35 36.8213 45.3008 36.8213 58.0074C36.8213 70.714 46.852 81.0148 59.2256 81.0148Z" fill="url(#paint1_radial_650_2607)"/>
<path d="M104.697 102.581C117.071 102.581 127.102 92.6139 127.102 80.3186C127.102 68.0232 117.071 58.0559 104.697 58.0559C92.3239 58.0559 82.2932 68.0232 82.2932 80.3186C82.2932 92.6139 92.3239 102.581 104.697 102.581Z" fill="url(#paint2_linear_650_2607)"/>
<path d="M81.6181 92.976C93.9917 92.976 104.022 82.6753 104.022 69.9686C104.022 57.262 93.9917 46.9613 81.6181 46.9613C69.2446 46.9613 59.2139 57.262 59.2139 69.9686C59.2139 82.6753 69.2446 92.976 81.6181 92.976Z" fill="url(#paint3_radial_650_2607)"/>
<path d="M45.8666 99.1605C35.4459 104.252 22.9615 99.7754 17.8928 89.0846C12.7912 78.3244 17.135 65.3457 27.595 60.0973C38.055 54.8489 50.6706 59.3172 55.7734 70.0775C56.6951 72.0232 57.3087 74.0213 57.6312 76.0522C56.602 76.4128 54.9828 76.8874 52.7133 76.9123C51.4035 76.9267 50.1592 76.7563 48.9202 76.4416C48.7131 75.634 48.4325 74.8342 48.0628 74.0541C44.9908 67.5759 37.3956 64.8855 31.0983 68.0452C24.801 71.205 22.1854 79.0179 25.2573 85.4975C28.3292 91.9757 35.9245 94.666 42.2218 91.5063C42.2257 91.5036 42.2296 91.501 42.2349 91.4997L39.964 86.7089C39.1813 85.0569 40.4295 83.1532 42.2113 83.2804L58.7129 84.4669C59.0472 82.887 59.2242 81.2481 59.2242 79.566C59.2242 66.86 49.1929 56.5586 36.82 56.5586C24.447 56.5586 14.4131 66.86 14.4131 79.566C14.4131 92.272 24.4444 102.573 36.8174 102.573C40.2577 102.573 43.5171 101.776 46.4304 100.352L45.8666 99.1605Z" fill="url(#paint4_radial_650_2607)"/>
<path d="M104.772 58.0388C104.523 58.0388 104.276 58.0467 104.029 58.0546C104.016 58.0546 104.002 58.0546 103.989 58.0559C103.761 58.0638 103.536 58.0769 103.31 58.0913C103.258 58.0952 103.207 58.0978 103.154 58.1005C102.933 58.1162 102.711 58.1359 102.492 58.1582C102.441 58.1634 102.39 58.1686 102.339 58.1739C102.113 58.1975 101.889 58.225 101.666 58.2552C101.632 58.2604 101.599 58.2644 101.566 58.2696C101.389 58.2945 101.212 58.3168 101.038 58.347C97.1493 51.5279 89.9408 46.9495 81.69 46.9495C81.6624 46.9495 81.6349 46.9521 81.6061 46.9521C81.2049 46.9534 80.8076 46.9665 80.4116 46.9888C80.2989 46.9954 80.1888 47.0072 80.076 47.015C79.7613 47.0373 79.448 47.0648 79.1372 47.1016C79.094 47.1068 79.0494 47.1081 79.0074 47.1134C75.2196 39.9193 67.8079 35.0328 59.2857 35.0328C47.3992 35.0328 37.6747 44.5383 36.9273 56.5507C36.9116 56.5507 36.8972 56.5507 36.8814 56.5507C25.9245 56.5507 16.8057 64.6285 14.8613 75.3009C15.0619 74.2337 15.3346 73.1743 15.6847 72.1294C16.6261 69.3039 18.0683 66.7368 19.9681 64.4948C21.9374 62.1702 24.3131 60.3005 27.0311 58.937C30.1253 57.3846 33.4267 56.5979 36.8447 56.5979H36.846C40.4962 56.5979 44.0807 57.5131 47.3022 59.2556C47.251 59.1966 47.1894 59.1441 47.116 59.1061C44.381 57.6508 41.3405 56.7946 38.2489 56.5966C38.974 45.2437 48.2055 36.3557 59.2831 36.3557C66.8849 36.3557 73.8666 40.5512 77.6164 47.3336C67.2009 49.2937 59.2805 58.6695 59.2805 69.9136C59.2805 70.2794 59.5768 70.5757 59.9426 70.5757C60.3084 70.5757 60.6047 70.2794 60.6047 69.9136C60.6047 58.8072 68.7899 49.632 79.2867 48.4153C79.5856 48.3799 79.8885 48.355 80.1914 48.3327C80.2897 48.3261 80.3867 48.3156 80.4864 48.3091C80.8587 48.2881 81.2324 48.2763 81.6048 48.275C81.6244 48.275 81.6428 48.2737 81.6624 48.2737C81.6637 48.2737 81.6651 48.2737 81.6664 48.2737C81.6742 48.2737 81.6821 48.2724 81.69 48.2724C88.9968 48.2724 95.8369 52.2332 99.6574 58.6275C93.2527 60.1117 87.788 64.3387 84.7685 70.3895C84.6046 70.716 84.7383 71.1146 85.0648 71.2771C85.1592 71.3243 85.2601 71.3466 85.3598 71.3466C85.6023 71.3466 85.8357 71.2116 85.9524 70.9808C89.0768 64.7216 94.9794 60.5352 101.784 59.5755C101.802 59.5728 101.821 59.5702 101.838 59.5676C102.055 59.5374 102.273 59.5112 102.493 59.4876C102.537 59.4824 102.58 59.4784 102.623 59.4745C102.833 59.4535 103.044 59.4352 103.256 59.4194C103.302 59.4168 103.348 59.4142 103.394 59.4116C103.857 59.3814 104.324 59.3644 104.793 59.3644C104.797 59.3644 104.802 59.3631 104.806 59.3631C116.415 59.3814 125.855 68.7664 125.855 80.3015C125.855 85.7636 123.749 90.9333 119.927 94.8575C116.112 98.7751 110.996 101.037 105.522 101.227L105.236 101.24H104.773H55.8493L54.9813 102.563H104.772H105.567V102.548C117.572 102.133 127.176 92.331 127.176 80.3002C127.176 68.0059 117.145 58.0388 104.772 58.0388Z" fill="url(#paint5_linear_650_2607)"/>
<path d="M36.837 101.239C25.2363 101.215 15.7976 91.4879 15.7976 79.5555C15.7976 71.5643 20.022 64.5708 26.2944 60.8092C16.777 66.4601 12.9997 78.8082 17.8915 89.124C21.5482 96.8372 29.0582 101.32 36.8737 101.32C37.4742 101.32 38.0773 101.292 38.6791 101.239H36.879H36.837Z" fill="url(#paint6_linear_650_2607)"/>
<path d="M52.2424 104.389C51.777 105.099 51.0467 105.443 50.319 105.443C49.4812 105.443 48.6461 104.986 48.2265 104.101L47.4975 102.563H46.071L47.0622 104.653C47.6706 105.936 48.9188 106.732 50.3204 106.732C51.5279 106.732 52.6502 106.12 53.3228 105.096L54.984 102.563H53.4421L52.2424 104.389Z" fill="url(#paint7_linear_650_2607)"/>
<path d="M36.8344 102.563C24.4811 102.538 14.4734 92.247 14.4734 79.5555C14.4734 78.1002 14.6058 76.6776 14.8576 75.2983C13.9477 80.1507 14.5809 85.1552 16.7246 89.676C18.5969 93.625 21.5049 96.9198 25.1341 99.2051C28.6714 101.431 32.7293 102.609 36.8711 102.609C37.3458 102.609 37.8178 102.592 38.2871 102.562H36.8764H36.8344V102.563Z" fill="url(#paint8_linear_650_2607)"/>
<path d="M38.679 101.239H44.4662C44.7415 101.136 45.0169 101.029 45.2896 100.913L45.443 101.239H46.8695L45.911 99.2169C43.5694 100.362 41.1229 101.022 38.679 101.239Z" fill="url(#paint9_linear_650_2607)"/>
<path d="M47.3887 59.9937C47.2707 60.2166 47.0426 60.3425 46.8079 60.3425C46.703 60.3425 46.5981 60.3176 46.4998 60.2651C43.5891 58.7167 40.4451 57.9169 37.1529 57.8736L36.9143 57.871H36.8802C33.0242 57.871 29.4082 58.9422 26.2956 60.8079C26.723 60.5549 27.1609 60.3136 27.6106 60.0881C30.5895 58.5934 33.7427 57.8854 36.8487 57.8854C44.6656 57.8854 52.1782 62.3721 55.8349 70.0853C56.7592 72.0336 57.3728 74.0344 57.6967 76.0692C56.6662 76.4311 55.043 76.9057 52.7708 76.9306C52.7197 76.9306 52.6673 76.932 52.6161 76.932C51.3614 76.932 50.163 76.7628 48.9712 76.46C48.7628 75.651 48.4835 74.8499 48.1125 74.0685C45.9111 69.4245 41.3878 66.7236 36.6822 66.7236C34.8126 66.7236 32.9141 67.1498 31.1205 68.0492C24.8127 71.2142 22.1931 79.0402 25.2703 85.5302C27.4716 90.1742 31.995 92.8751 36.7006 92.8751C38.5702 92.8751 40.4687 92.449 42.2623 91.5495C42.2662 91.5469 42.2702 91.5443 42.2754 91.543L40.0006 86.7443C39.2415 85.1434 40.3887 83.3039 42.0814 83.3039C42.1377 83.3039 42.1941 83.3066 42.2518 83.3105L60.9771 84.657C62.7615 84.7855 63.7422 86.8531 62.7418 88.3793L54.3114 101.239H55.8533L63.8209 89.0873C64.5538 87.9702 64.6364 86.587 64.0425 85.386C63.4643 84.2165 62.3524 83.4639 61.0702 83.3708L42.3449 82.0243C42.257 82.0177 42.1692 82.0151 42.0827 82.0151C40.8542 82.0151 39.7214 82.6458 39.0527 83.7038C38.3657 84.7894 38.2844 86.1333 38.8364 87.2976L40.5421 90.8966C39.3097 91.3555 38.0222 91.5875 36.7019 91.5875C34.5975 91.5875 32.5338 90.9884 30.735 89.8556C28.8824 88.6887 27.3956 87.0026 26.4372 84.9809C23.6629 79.1307 26.0242 72.0533 31.7013 69.2056C33.2733 68.4163 34.9502 68.0164 36.6848 68.0164C38.7892 68.0164 40.8528 68.6156 42.6517 69.7484C44.5043 70.9153 45.9911 72.6013 46.9495 74.6231C47.2681 75.2944 47.529 76.022 47.7244 76.7825C47.8411 77.2388 48.199 77.5954 48.6553 77.7108C50.0096 78.0556 51.3063 78.2234 52.6174 78.2234C52.6738 78.2234 52.7302 78.2234 52.7866 78.2221C55.262 78.1946 57.0188 77.6754 58.1254 77.2886C58.7141 77.0827 59.0707 76.4849 58.9724 75.8686C58.6263 73.6909 57.9628 71.5603 57.0031 69.5347C55.1308 65.5856 52.2215 62.2895 48.591 60.0042C48.1702 59.7393 47.7414 59.4902 47.3074 59.2556C47.4766 59.4535 47.5198 59.7459 47.3887 59.9937Z" fill="url(#paint10_linear_650_2607)"/>
<path d="M54.3076 101.239L53.4409 102.563H54.9828L55.8494 101.239H54.3076Z" fill="url(#paint11_linear_650_2607)"/>
<path d="M54.3076 101.239L53.4409 102.563H54.9828L55.8494 101.239H54.3076Z" fill="url(#paint12_linear_650_2607)"/>
<path d="M38.679 101.239C38.0759 101.292 37.4741 101.32 36.8736 101.32C29.0581 101.32 21.5481 96.8372 17.8914 89.124C13.0009 78.8082 16.7769 66.4588 26.2943 60.8092C29.4069 58.9422 33.0229 57.8723 36.8789 57.8723H36.913L37.1516 57.875C40.4438 57.9182 43.5891 58.718 46.4985 60.2664C46.5968 60.3189 46.703 60.3438 46.8066 60.3438C47.0413 60.3438 47.2694 60.2166 47.3874 59.995C47.5199 59.7472 47.4753 59.4548 47.3022 59.2556C44.0808 57.5144 40.4962 56.5992 36.8461 56.5979H36.8448C33.4267 56.5979 30.124 57.3846 27.0311 58.937C24.3132 60.3005 21.9375 62.1702 19.9682 64.4948C18.0684 66.7368 16.6261 69.3039 15.6821 72.1267C15.3321 73.1717 15.0581 74.2311 14.8588 75.2983C14.607 76.6776 14.4746 78.1002 14.4746 79.5555C14.4746 92.247 24.481 102.538 36.8356 102.563H36.8802H38.2909C40.4071 102.427 42.4734 101.983 44.4676 101.24H38.679V101.239Z" fill="url(#paint13_linear_650_2607)"/>
<path d="M38.5794 101.256C37.9763 101.309 37.3745 101.337 36.774 101.337C28.9585 101.337 21.4484 96.8543 17.7918 89.141C12.9013 78.8252 16.6773 66.4758 26.1947 60.8263C29.3072 58.9592 32.9233 57.8894 36.7793 57.8894H36.8134L37.052 57.892C40.3442 57.9353 43.4895 58.735 46.3989 60.2835C46.4972 60.3359 46.6034 60.3608 46.707 60.3608C46.9417 60.3608 47.1698 60.2336 47.2878 60.0121C47.4202 59.7643 47.3757 59.4719 47.2026 59.2726C43.9812 57.5314 40.3966 56.6163 36.7465 56.615H36.7452C33.3271 56.615 30.0244 57.4016 26.9315 58.954C24.2136 60.3176 21.8378 62.1872 19.8686 64.5118C17.9688 66.7538 16.5265 69.3223 15.5825 72.1438C15.2325 73.1887 14.9584 74.2481 14.7592 75.3154C14.5074 76.6946 14.375 78.1172 14.375 79.5725C14.375 92.2641 24.3814 102.555 36.736 102.58H36.7806H38.1913C40.3075 102.444 42.3738 102 44.368 101.257H38.5794V101.256Z" fill="url(#paint14_linear_650_2607)"/>
<path d="M46.8709 101.239H45.4431L46.0711 102.563H47.4976L46.8709 101.239Z" fill="url(#paint15_linear_650_2607)"/>
<path d="M46.8709 101.239H45.4431L46.0711 102.563H47.4976L46.8709 101.239Z" fill="url(#paint16_linear_650_2607)"/>
<defs>
<linearGradient id="paint0_linear_650_2607" x1="70.5009" y1="134.137" x2="71.1131" y2="28.8378" gradientUnits="userSpaceOnUse">
<stop offset="0.2604" stop-color="#40DFFF" stop-opacity="0"/>
<stop offset="1" stop-color="#40DFFF"/>
</linearGradient>
<radialGradient id="paint1_radial_650_2607" cx="0" cy="0" r="1" gradientUnits="userSpaceOnUse" gradientTransform="translate(30.0709 35.0058) rotate(71.5651) scale(27.0501 26.3419)">
<stop stop-color="#40DFFF"/>
<stop offset="1" stop-color="#40DFFF" stop-opacity="0"/>
</radialGradient>
<linearGradient id="paint2_linear_650_2607" x1="165.591" y1="-4.79656" x2="98.0595" y2="89.5978" gradientUnits="userSpaceOnUse">
<stop offset="0.4626" stop-color="#40DFFF"/>
<stop offset="1" stop-color="#40DFFF" stop-opacity="0"/>
</linearGradient>
<radialGradient id="paint3_radial_650_2607" cx="0" cy="0" r="1" gradientUnits="userSpaceOnUse" gradientTransform="translate(59.2096 43.2894) rotate(84.4789) scale(42.8938 41.7709)">
<stop offset="0.0067815" stop-color="#40DFFF"/>
<stop offset="1" stop-color="#40DFFF" stop-opacity="0"/>
</radialGradient>
<radialGradient id="paint4_radial_650_2607" cx="0" cy="0" r="1" gradientUnits="userSpaceOnUse" gradientTransform="translate(5.63129 81.2958) scale(44.6349)">
<stop stop-color="#40DFFF"/>
<stop offset="1" stop-color="#40DFFF" stop-opacity="0"/>
</radialGradient>
<linearGradient id="paint5_linear_650_2607" x1="30.5669" y1="119.922" x2="101.899" y2="48.5896" gradientUnits="userSpaceOnUse">
<stop stop-color="#40DEFF" stop-opacity="0.1"/>
<stop offset="0.766" stop-color="#40DEFF"/>
<stop offset="0.9903" stop-color="#9AF0FC"/>
</linearGradient>
<linearGradient id="paint6_linear_650_2607" x1="11.8467" y1="101.202" x2="83.1793" y2="29.8693" gradientUnits="userSpaceOnUse">
<stop stop-color="#40DEFF" stop-opacity="0.1"/>
<stop offset="0.766" stop-color="#40DEFF"/>
<stop offset="0.9903" stop-color="#9AF0FC"/>
</linearGradient>
<linearGradient id="paint7_linear_650_2607" x1="70.084" y1="75.3357" x2="43.5471" y2="112.426" gradientUnits="userSpaceOnUse">
<stop stop-color="#40DEFF" stop-opacity="0.1"/>
<stop offset="0.7458" stop-color="#40DEFF"/>
<stop offset="0.7648" stop-color="#49E0FF"/>
<stop offset="0.8702" stop-color="#75E9FD"/>
<stop offset="0.9521" stop-color="#90EEFC"/>
<stop offset="1" stop-color="#9AF0FC"/>
</linearGradient>
<linearGradient id="paint8_linear_650_2607" x1="47.7389" y1="59.3486" x2="21.2019" y2="96.4393" gradientUnits="userSpaceOnUse">
<stop stop-color="#40DEFF" stop-opacity="0.1"/>
<stop offset="0.7458" stop-color="#40DEFF"/>
<stop offset="0.7648" stop-color="#49E0FF"/>
<stop offset="0.8702" stop-color="#75E9FD"/>
<stop offset="0.9521" stop-color="#90EEFC"/>
<stop offset="1" stop-color="#9AF0FC"/>
</linearGradient>
<linearGradient id="paint9_linear_650_2607" x1="64.2791" y1="71.1824" x2="37.742" y2="108.273" gradientUnits="userSpaceOnUse">
<stop stop-color="#40DEFF" stop-opacity="0.1"/>
<stop offset="0.7458" stop-color="#40DEFF"/>
<stop offset="0.7648" stop-color="#49E0FF"/>
<stop offset="0.8702" stop-color="#75E9FD"/>
<stop offset="0.9521" stop-color="#90EEFC"/>
<stop offset="1" stop-color="#9AF0FC"/>
</linearGradient>
<linearGradient id="paint10_linear_650_2607" x1="53.5867" y1="63.5325" x2="27.0498" y2="100.623" gradientUnits="userSpaceOnUse">
<stop stop-color="#40DEFF" stop-opacity="0.1"/>
<stop offset="0.7458" stop-color="#40DEFF"/>
<stop offset="0.7648" stop-color="#49E0FF"/>
<stop offset="0.8702" stop-color="#75E9FD"/>
<stop offset="0.9521" stop-color="#90EEFC"/>
<stop offset="1" stop-color="#9AF0FC"/>
</linearGradient>
<linearGradient id="paint11_linear_650_2607" x1="33.5956" y1="122.951" x2="104.928" y2="51.6181" gradientUnits="userSpaceOnUse">
<stop stop-color="#40DEFF" stop-opacity="0.1"/>
<stop offset="0.766" stop-color="#40DEFF"/>
<stop offset="0.9903" stop-color="#9AF0FC"/>
</linearGradient>
<linearGradient id="paint12_linear_650_2607" x1="72.4438" y1="77.024" x2="45.9069" y2="114.115" gradientUnits="userSpaceOnUse">
<stop stop-color="#40DEFF" stop-opacity="0.1"/>
<stop offset="0.7458" stop-color="#40DEFF"/>
<stop offset="0.7648" stop-color="#49E0FF"/>
<stop offset="0.8702" stop-color="#75E9FD"/>
<stop offset="0.9521" stop-color="#90EEFC"/>
<stop offset="1" stop-color="#9AF0FC"/>
</linearGradient>
<linearGradient id="paint13_linear_650_2607" x1="12.8367" y1="102.192" x2="84.1693" y2="30.8594" gradientUnits="userSpaceOnUse">
<stop stop-color="#40DEFF" stop-opacity="0.1"/>
<stop offset="0.766" stop-color="#40DEFF"/>
<stop offset="0.9903" stop-color="#9AF0FC"/>
</linearGradient>
<linearGradient id="paint14_linear_650_2607" x1="48.4699" y1="59.9602" x2="21.9329" y2="97.0509" gradientUnits="userSpaceOnUse">
<stop stop-color="#40DEFF" stop-opacity="0.1"/>
<stop offset="0.7458" stop-color="#40DEFF"/>
<stop offset="0.7648" stop-color="#49E0FF"/>
<stop offset="0.8702" stop-color="#75E9FD"/>
<stop offset="0.9521" stop-color="#90EEFC"/>
<stop offset="1" stop-color="#9AF0FC"/>
</linearGradient>
<linearGradient id="paint15_linear_650_2607" x1="29.5082" y1="118.863" x2="100.841" y2="47.5308" gradientUnits="userSpaceOnUse">
<stop stop-color="#40DEFF" stop-opacity="0.1"/>
<stop offset="0.766" stop-color="#40DEFF"/>
<stop offset="0.9903" stop-color="#9AF0FC"/>
</linearGradient>
<linearGradient id="paint16_linear_650_2607" x1="67.0368" y1="73.1556" x2="40.4999" y2="110.246" gradientUnits="userSpaceOnUse">
<stop stop-color="#40DEFF" stop-opacity="0.1"/>
<stop offset="0.7458" stop-color="#40DEFF"/>
<stop offset="0.7648" stop-color="#49E0FF"/>
<stop offset="0.8702" stop-color="#75E9FD"/>
<stop offset="0.9521" stop-color="#90EEFC"/>
<stop offset="1" stop-color="#9AF0FC"/>
</linearGradient>
</defs>
</svg>
