<svg width="142" height="141" viewBox="0 0 142 141" fill="none" xmlns="http://www.w3.org/2000/svg">
<path opacity="0.7" d="M109.778 33.7887C109.778 32.8049 108.973 32 107.989 32H6.41363C5.42981 32 4.62488 32.8049 4.62488 33.7887V39.638H109.779V33.7887H109.778ZM94.6928 37.5079C93.7299 37.5079 92.9473 36.7268 92.9473 35.7623C92.9473 34.7979 93.7284 34.0168 94.6928 34.0168C95.6572 34.0168 96.4383 34.7979 96.4383 35.7623C96.4383 36.7268 95.6572 37.5079 94.6928 37.5079ZM99.9696 37.5079C99.0067 37.5079 98.2241 36.7268 98.2241 35.7623C98.2241 34.7979 99.0052 34.0168 99.9696 34.0168C100.934 34.0168 101.715 34.7979 101.715 35.7623C101.715 36.7268 100.934 37.5079 99.9696 37.5079ZM105.246 37.5079C104.283 37.5079 103.501 36.7268 103.501 35.7623C103.501 34.7979 104.282 34.0168 105.246 34.0168C106.209 34.0168 106.992 34.7979 106.992 35.7623C106.992 36.7268 106.209 37.5079 105.246 37.5079Z" fill="#40DFFF"/>
<path opacity="0.6" d="M13.6297 82.635V69.7664C13.6297 68.9868 14.3645 68.3533 15.2694 68.3533H62.5892C62.9276 68.3533 63.2421 68.4413 63.5029 68.5933C63.2406 68.4413 62.9261 68.3518 62.5862 68.3518H15.2679C14.3616 68.3518 13.6282 68.9839 13.6282 69.7649V82.6335C13.6282 83.1701 13.9755 83.6367 14.4868 83.8752C13.9755 83.6367 13.6297 83.1701 13.6297 82.635Z" fill="url(#paint0_linear_650_1816)"/>
<path opacity="0.6" d="M70.9336 82.4904V46.8287C70.9336 45.1488 72.2111 43.7819 73.7807 43.7819H99.415C100.985 43.7819 102.262 45.1488 102.262 46.8287V59.0086L109.779 61.6306V39.638H4.62476V87.8969C4.62476 88.8807 5.42969 89.6856 6.4135 89.6856H81.8852L80.4379 85.5372H73.7792C72.2096 85.5372 70.9336 84.1703 70.9336 82.4904ZM12.1658 46.5067C12.1658 45.0042 13.3881 43.7834 14.8892 43.7834H29.4839C30.9864 43.7834 32.2072 45.0057 32.2072 46.5067V60.9852C32.2072 62.4877 30.9849 63.7085 29.4839 63.7085H14.8892C13.3866 63.7085 12.1658 62.4862 12.1658 60.9852V46.5067ZM65.7179 82.6335C65.7179 84.2344 64.3138 85.5372 62.5876 85.5372H15.2678C13.5417 85.5372 12.1375 84.2344 12.1375 82.6335V69.7649C12.1375 68.164 13.5417 66.8612 15.2678 66.8612H62.5876C64.3138 66.8612 65.7179 68.164 65.7179 69.7649V82.6335ZM65.7179 60.6349C65.7179 62.3148 64.3973 63.6817 62.7755 63.6817H39.6529C38.0296 63.6817 36.7104 62.3148 36.7104 60.6349V46.8287C36.7104 45.1488 38.0311 43.7819 39.6529 43.7819H62.7755C64.3987 43.7819 65.7179 45.1488 65.7179 46.8287V60.6349Z" fill="url(#paint1_linear_650_1816)"/>
<path opacity="0.6" d="M72.4271 82.4919V46.8302C72.4271 45.9716 73.0338 45.274 73.7835 45.274H99.4178C99.6041 45.274 99.783 45.3172 99.944 45.3962C99.7815 45.3172 99.6026 45.2725 99.4148 45.2725H73.7791C73.0308 45.2725 72.4226 45.9686 72.4226 46.8287V82.4904C72.4226 83.1358 72.764 83.6889 73.2514 83.9244C72.7669 83.6874 72.4271 83.1358 72.4271 82.4919Z" fill="url(#paint2_linear_650_1816)"/>
<path opacity="0.6" d="M38.2027 60.6364V46.8302C38.2027 45.9716 38.8526 45.274 39.656 45.274H62.7786C62.9798 45.274 63.1706 45.3172 63.3435 45.3962C63.1691 45.3172 62.9768 45.2725 62.7756 45.2725H39.653C38.8511 45.2725 38.2012 45.9686 38.2012 46.8287V60.6349C38.2012 61.2788 38.5664 61.8318 39.0881 62.0689C38.5664 61.8318 38.2027 61.2803 38.2027 60.6364Z" fill="url(#paint3_linear_650_1816)"/>
<path opacity="0.6" d="M14.3034 62.0703C13.9188 61.8616 13.6595 61.4547 13.6595 60.9867V46.5082C13.6595 45.827 14.211 45.2755 14.8922 45.2755H29.4869C29.6986 45.2755 29.8983 45.3291 30.0727 45.4231C29.8983 45.3277 29.6971 45.274 29.4839 45.274H14.8892C14.208 45.274 13.6565 45.8255 13.6565 46.5067V60.9852C13.6565 61.4532 13.9188 61.8616 14.3034 62.0703Z" fill="url(#paint4_linear_650_1816)"/>
<path d="M30.7166 46.5067V60.9852C30.7166 61.6664 30.1651 62.2179 29.4839 62.2179H14.8892C14.6775 62.2179 14.4777 62.1642 14.3033 62.0703C14.4777 62.1657 14.679 62.2194 14.8921 62.2194H29.4868C30.168 62.2194 30.7196 61.6679 30.7196 60.9867V46.5082C30.7196 46.0387 30.4572 45.6317 30.0727 45.4231C30.4557 45.6317 30.7166 46.0387 30.7166 46.5067Z" fill="url(#paint5_linear_650_1816)"/>
<path d="M100.773 46.8302C100.773 46.1848 100.432 45.6317 99.9441 45.3962C100.43 45.6332 100.77 46.1848 100.77 46.8287V58.5122L100.789 58.5197L102.261 59.0324V59.0086L100.773 58.4899V46.8302Z" fill="url(#paint6_linear_650_1816)"/>
<path d="M63.3419 45.3962C63.8622 45.6332 64.2259 46.1848 64.2259 46.8287V60.6349C64.2259 61.4935 63.576 62.1911 62.774 62.1911H39.653C39.4517 62.1911 39.2609 62.1479 39.088 62.0688C39.2624 62.1479 39.4547 62.1926 39.6559 62.1926H62.7785C63.5804 62.1926 64.2304 61.4964 64.2304 60.6364V46.8302C64.2304 46.1863 63.8637 45.6332 63.3419 45.3962Z" fill="url(#paint7_linear_650_1816)"/>
<path d="M79.9251 84.0466H73.7807C73.5944 84.0466 73.4155 84.0034 73.2545 83.9244C73.417 84.0034 73.5959 84.0481 73.7837 84.0481H79.9191L80.4393 85.5372H80.4468L79.937 84.0779L79.9251 84.0466Z" fill="url(#paint8_linear_650_1816)"/>
<path d="M63.5045 68.5933C63.9412 68.8467 64.2274 69.2775 64.2274 69.7649V82.6335C64.2274 83.4131 63.4925 84.0466 62.5877 84.0466H15.2679C14.9847 84.0466 14.7194 83.9855 14.4868 83.8767C14.7194 83.9855 14.9862 84.0481 15.2709 84.0481H62.5907C63.497 84.0481 64.2304 83.4161 64.2304 82.635V69.7664C64.2304 69.2775 63.9412 68.8467 63.5045 68.5933Z" fill="url(#paint9_linear_650_1816)"/>
<path opacity="0.6" d="M62.774 43.7819H39.6529C38.0296 43.7819 36.7104 45.1488 36.7104 46.8287V60.6349C36.7104 62.3148 38.0311 63.6817 39.6529 63.6817H62.7755C64.3988 63.6817 65.718 62.3148 65.718 60.6349V46.8287C65.718 45.1488 64.3973 43.7819 62.774 43.7819ZM64.2303 60.6364C64.2303 61.495 63.5804 62.1926 62.7785 62.1926H39.6544C39.4532 62.1926 39.2609 62.1479 39.0865 62.0689C38.5648 61.8333 38.1996 61.2803 38.1996 60.6349V46.8287C38.1996 45.9701 38.8495 45.2725 39.6514 45.2725H62.774C62.9752 45.2725 63.1675 45.3172 63.3419 45.3962C63.8636 45.6317 64.2288 46.1848 64.2288 46.8302V60.6364H64.2303Z" fill="url(#paint10_linear_650_1816)"/>
<path d="M62.774 43.7819H39.6529C38.0296 43.7819 36.7104 45.1488 36.7104 46.8287V60.6349C36.7104 62.3148 38.0311 63.6817 39.6529 63.6817H62.7755C64.3988 63.6817 65.718 62.3148 65.718 60.6349V46.8287C65.718 45.1488 64.3973 43.7819 62.774 43.7819ZM64.2303 60.6364C64.2303 61.495 63.5804 62.1926 62.7785 62.1926H39.6544C39.4532 62.1926 39.2609 62.1479 39.0865 62.0689C38.5648 61.8333 38.1996 61.2803 38.1996 60.6349V46.8287C38.1996 45.9701 38.8495 45.2725 39.6514 45.2725H62.774C62.9752 45.2725 63.1675 45.3172 63.3419 45.3962C63.8636 45.6317 64.2288 46.1848 64.2288 46.8302V60.6364H64.2303Z" fill="url(#paint11_linear_650_1816)"/>
<path opacity="0.6" d="M62.5862 66.8612H15.2679C13.5417 66.8612 12.1376 68.164 12.1376 69.7649V82.6335C12.1376 84.2344 13.5417 85.5372 15.2679 85.5372H62.5877C64.3139 85.5372 65.718 84.2344 65.718 82.6335V69.7649C65.718 68.164 64.3139 66.8612 62.5862 66.8612ZM64.2304 82.635C64.2304 83.4146 63.4955 84.0481 62.5907 84.0481H15.2694C14.9847 84.0481 14.7178 83.9855 14.4853 83.8767C13.974 83.6382 13.6267 83.1716 13.6267 82.635V69.7664C13.6267 68.9868 14.3616 68.3533 15.2664 68.3533H62.5862C62.9261 68.3533 63.2421 68.4428 63.503 68.5948C63.9412 68.8482 64.2289 69.279 64.2289 69.7679V82.635H64.2304Z" fill="url(#paint12_linear_650_1816)"/>
<path d="M62.5862 66.8612H15.2679C13.5417 66.8612 12.1376 68.164 12.1376 69.7649V82.6335C12.1376 84.2344 13.5417 85.5372 15.2679 85.5372H62.5877C64.3139 85.5372 65.718 84.2344 65.718 82.6335V69.7649C65.718 68.164 64.3139 66.8612 62.5862 66.8612ZM64.2304 82.635C64.2304 83.4146 63.4955 84.0481 62.5907 84.0481H15.2694C14.9847 84.0481 14.7178 83.9855 14.4853 83.8767C13.974 83.6382 13.6267 83.1716 13.6267 82.635V69.7664C13.6267 68.9868 14.3616 68.3533 15.2664 68.3533H62.5862C62.9261 68.3533 63.2421 68.4428 63.503 68.5948C63.9412 68.8482 64.2289 69.279 64.2289 69.7679V82.635H64.2304Z" fill="url(#paint13_linear_650_1816)"/>
<path opacity="0.6" d="M73.7823 84.0481C73.5945 84.0481 73.4156 84.0049 73.2532 83.9244C72.7657 83.6889 72.4244 83.1358 72.4244 82.4904V46.8287C72.4244 45.9701 73.0311 45.2725 73.7808 45.2725H99.4151C99.6029 45.2725 99.7818 45.3157 99.9443 45.3962C100.432 45.6317 100.773 46.1848 100.773 46.8302V58.4899L102.261 59.0086V46.8287C102.261 45.1488 100.983 43.7819 99.4136 43.7819H73.7793C72.2097 43.7819 70.9323 45.1488 70.9323 46.8287V82.4904C70.9323 84.1703 72.2097 85.5372 73.7793 85.5372H80.438L79.9177 84.0481H73.7823Z" fill="url(#paint14_linear_650_1816)"/>
<path opacity="0.6" d="M14.8891 63.7085H29.4838C30.9864 63.7085 32.2072 62.4862 32.2072 60.9852V46.5067C32.2072 45.0042 30.9849 43.7834 29.4838 43.7834H14.8891C13.3866 43.7834 12.1658 45.0057 12.1658 46.5067V60.9852C12.1658 62.4862 13.3881 63.7085 14.8891 63.7085ZM13.6564 46.5067C13.6564 45.8255 14.2079 45.274 14.8891 45.274H29.4838C29.697 45.274 29.8967 45.3277 30.0726 45.4231C30.4587 45.6317 30.7196 46.0402 30.7196 46.5082V60.9867C30.7196 61.6679 30.168 62.2194 29.4868 62.2194H14.8921C14.679 62.2194 14.4777 62.1657 14.3033 62.0703C13.9173 61.8616 13.6564 61.4547 13.6564 60.9852V46.5067Z" fill="url(#paint15_linear_650_1816)"/>
<path d="M14.8891 63.7085H29.4838C30.9864 63.7085 32.2072 62.4862 32.2072 60.9852V46.5067C32.2072 45.0042 30.9849 43.7834 29.4838 43.7834H14.8891C13.3866 43.7834 12.1658 45.0057 12.1658 46.5067V60.9852C12.1658 62.4862 13.3881 63.7085 14.8891 63.7085ZM13.6564 46.5067C13.6564 45.8255 14.2079 45.274 14.8891 45.274H29.4838C29.697 45.274 29.8967 45.3277 30.0726 45.4231C30.4587 45.6317 30.7196 46.0402 30.7196 46.5082V60.9867C30.7196 61.6679 30.168 62.2194 29.4868 62.2194H14.8921C14.679 62.2194 14.4777 62.1657 14.3033 62.0703C13.9173 61.8616 13.6564 61.4547 13.6564 60.9852V46.5067Z" fill="url(#paint16_linear_650_1816)"/>
<path d="M73.7823 84.0481C73.5945 84.0481 73.4156 84.0049 73.2532 83.9244C72.7657 83.6889 72.4244 83.1358 72.4244 82.4904V46.8287C72.4244 45.9701 73.0311 45.2725 73.7808 45.2725H99.4151C99.6029 45.2725 99.7818 45.3157 99.9443 45.3962C100.432 45.6317 100.773 46.1848 100.773 46.8302V58.4899L102.261 59.0086V46.8287C102.261 45.1488 100.983 43.7819 99.4136 43.7819H73.7793C72.2097 43.7819 70.9323 45.1488 70.9323 46.8287V82.4904C70.9323 84.1703 72.2097 85.5372 73.7793 85.5372H80.438L79.9177 84.0481H73.7823Z" fill="url(#paint17_linear_650_1816)"/>
<path opacity="0.65" d="M90.3597 79.2528L105.563 84.5564C106.047 84.7263 106.384 85.1482 106.441 85.6609C106.499 86.1886 106.253 86.691 105.8 86.9727L95.5217 93.369C95.5187 93.3704 95.5173 93.3719 95.5158 93.3749L95.3682 93.6119L100.137 107.279C100.137 107.279 100.137 107.279 100.137 107.281C100.161 107.347 100.187 107.409 100.219 107.467C100.229 107.487 100.243 107.505 100.253 107.522C100.275 107.56 100.298 107.597 100.325 107.631C100.339 107.652 100.357 107.67 100.374 107.688C100.399 107.716 100.423 107.746 100.451 107.771C100.471 107.789 100.49 107.806 100.511 107.822C100.538 107.844 100.566 107.868 100.594 107.889C100.617 107.904 100.639 107.917 100.661 107.931C100.691 107.949 100.721 107.967 100.752 107.982C100.776 107.993 100.8 108.004 100.825 108.014C100.857 108.028 100.889 108.04 100.922 108.05C100.948 108.059 100.973 108.067 100.998 108.072C101.031 108.081 101.065 108.089 101.098 108.095C101.125 108.099 101.15 108.104 101.177 108.107C101.211 108.111 101.246 108.113 101.28 108.114C101.308 108.116 101.335 108.117 101.363 108.116C101.389 108.116 101.413 108.113 101.438 108.111C101.469 108.108 101.502 108.105 101.533 108.101C101.559 108.096 101.583 108.092 101.608 108.087C101.639 108.081 101.671 108.072 101.702 108.064C101.726 108.056 101.75 108.049 101.773 108.041C101.805 108.031 101.835 108.017 101.866 108.004C101.888 107.993 101.912 107.985 101.934 107.973C101.964 107.958 101.994 107.94 102.024 107.922C102.045 107.908 102.067 107.897 102.086 107.883C102.116 107.862 102.145 107.84 102.173 107.816C102.191 107.801 102.21 107.786 102.228 107.771C102.258 107.743 102.288 107.712 102.316 107.682C102.329 107.667 102.344 107.652 102.358 107.637C102.398 107.588 102.437 107.536 102.473 107.479L106.071 101.697L114.967 87.402C115.012 87.329 115.065 87.2619 115.123 87.1993C115.207 87.1083 115.301 87.0293 115.405 86.9638L135.482 74.4693C136.424 73.8835 136.305 72.4898 135.283 72.1335L105.294 61.6724L83.9172 54.2148C83.9172 54.2148 83.9172 54.2148 83.9157 54.2148C83.8561 54.1939 83.7965 54.179 83.7384 54.1671C83.7309 54.1656 83.7234 54.1641 83.7145 54.1626C83.6579 54.1522 83.6027 54.1462 83.5476 54.1447C83.5371 54.1447 83.5282 54.1432 83.5177 54.1432C83.473 54.1417 83.4298 54.1447 83.3851 54.1477C83.3687 54.1492 83.3523 54.1492 83.3359 54.1507C83.2778 54.1581 83.2226 54.1686 83.166 54.182C83.157 54.185 83.1466 54.1879 83.1376 54.1909C83.0929 54.2043 83.0482 54.2177 83.0035 54.2356C82.9856 54.2431 82.9677 54.252 82.9498 54.2595C82.9155 54.2744 82.8827 54.2908 82.8499 54.3087C82.8306 54.3191 82.8127 54.331 82.7948 54.343C82.765 54.3608 82.7352 54.3817 82.7068 54.4026C82.689 54.416 82.6711 54.4294 82.6547 54.4428C82.6263 54.4652 82.601 54.489 82.5742 54.5129C82.5593 54.5278 82.5429 54.5412 82.528 54.5561C82.5011 54.5844 82.4758 54.6142 82.4505 54.6441C82.44 54.6575 82.4281 54.6694 82.4177 54.6843C82.3834 54.729 82.3521 54.7752 82.3237 54.8244C82.3208 54.8304 82.3178 54.8349 82.3148 54.8408C82.2895 54.884 82.2671 54.9303 82.2477 54.9765C82.2403 54.9944 82.2343 55.0122 82.2284 55.0301C82.2149 55.0659 82.203 55.1017 82.1926 55.1375C82.1866 55.1583 82.1821 55.1807 82.1777 55.2016C82.1702 55.2358 82.1628 55.2716 82.1583 55.3074C82.1553 55.3297 82.1523 55.3521 82.1508 55.376C82.1479 55.4117 82.1464 55.449 82.1464 55.4863C82.1464 55.5086 82.1464 55.531 82.1479 55.5533C82.1493 55.5936 82.1553 55.6338 82.1613 55.6741C82.1643 55.6935 82.1657 55.7128 82.1702 55.7322C82.1821 55.7918 82.1971 55.853 82.2194 55.9141L90.3597 79.2528Z" fill="url(#paint18_linear_650_1816)"/>
<path d="M137.597 73.016C137.48 71.9532 136.781 71.0752 135.774 70.7249L84.4076 52.8076C84.1095 52.7033 83.7994 52.6511 83.4864 52.6511C82.5771 52.6511 81.7125 53.1028 81.1759 53.8585C80.6408 54.6113 80.5081 55.5399 80.8092 56.406L88.5605 78.6267L90.3581 79.2542L82.2179 55.9141C82.197 55.853 82.1806 55.7933 82.1687 55.7322C82.1642 55.7128 82.1627 55.6935 82.1597 55.6741C82.1538 55.6338 82.1478 55.5921 82.1463 55.5533C82.1448 55.531 82.1448 55.5086 82.1448 55.4863C82.1448 55.449 82.1463 55.4132 82.1493 55.376C82.1508 55.3536 82.1538 55.3312 82.1567 55.3074C82.1612 55.2716 82.1687 55.2358 82.1761 55.2016C82.1806 55.1807 82.1851 55.1583 82.191 55.1375C82.2015 55.1002 82.2134 55.0659 82.2268 55.0301C82.2328 55.0122 82.2387 54.9944 82.2462 54.9765C82.2656 54.9303 82.2879 54.8855 82.3133 54.8408C82.3162 54.8349 82.3192 54.8304 82.3222 54.8244C82.3505 54.7752 82.3818 54.729 82.4161 54.6843C82.4265 54.6709 82.4385 54.6575 82.4489 54.6441C82.4742 54.6142 82.4996 54.5844 82.5264 54.5561C82.5413 54.5412 82.5562 54.5263 82.5726 54.5129C82.598 54.489 82.6248 54.4652 82.6531 54.4428C82.671 54.4294 82.6874 54.416 82.7053 54.4026C82.7336 54.3817 82.7634 54.3623 82.7932 54.343C82.8111 54.331 82.8305 54.3206 82.8484 54.3087C82.8812 54.2908 82.914 54.2744 82.9483 54.2595C82.9661 54.252 82.984 54.2431 83.0019 54.2356C83.0452 54.2177 83.0899 54.2043 83.1361 54.1909C83.145 54.1879 83.1555 54.1849 83.1644 54.182C83.2196 54.1671 83.2762 54.1566 83.3343 54.1507C83.3507 54.1492 83.3671 54.1492 83.3835 54.1477C83.4163 54.1447 83.4506 54.1417 83.4849 54.1417C83.4953 54.1417 83.5058 54.1432 83.5162 54.1432C83.5266 54.1432 83.5356 54.1447 83.546 54.1447C83.6012 54.1477 83.6578 54.1536 83.7129 54.1626C83.7204 54.1641 83.7279 54.1656 83.7368 54.1671C83.7964 54.179 83.8546 54.1939 83.9142 54.2148C83.9142 54.2148 83.9142 54.2148 83.9157 54.2148L105.294 61.6723L135.283 72.1335C136.305 72.4898 136.423 73.8835 135.482 74.4693L115.407 86.9638C115.302 87.0293 115.208 87.1098 115.125 87.1993C115.067 87.2619 115.013 87.329 114.968 87.402L106.072 101.697L102.474 107.479C102.438 107.536 102.399 107.588 102.359 107.637C102.346 107.654 102.331 107.667 102.317 107.682C102.289 107.713 102.261 107.745 102.229 107.771C102.212 107.788 102.192 107.801 102.174 107.816C102.146 107.84 102.118 107.862 102.088 107.883C102.067 107.898 102.046 107.91 102.025 107.922C101.995 107.94 101.966 107.958 101.936 107.973C101.913 107.985 101.891 107.993 101.867 108.004C101.837 108.017 101.806 108.029 101.775 108.041C101.751 108.05 101.727 108.056 101.703 108.064C101.672 108.072 101.641 108.08 101.609 108.087C101.584 108.092 101.56 108.098 101.535 108.101C101.504 108.105 101.471 108.11 101.439 108.111C101.414 108.113 101.39 108.116 101.365 108.116C101.354 108.116 101.343 108.117 101.332 108.117C101.316 108.117 101.298 108.114 101.281 108.114C101.247 108.113 101.213 108.111 101.179 108.107C101.152 108.104 101.126 108.099 101.1 108.095C101.065 108.089 101.033 108.081 101 108.072C100.974 108.065 100.949 108.058 100.924 108.05C100.891 108.04 100.86 108.028 100.827 108.014C100.803 108.004 100.778 107.993 100.754 107.982C100.722 107.967 100.693 107.949 100.663 107.931C100.64 107.917 100.618 107.904 100.596 107.889C100.566 107.868 100.539 107.846 100.512 107.822C100.493 107.806 100.472 107.789 100.453 107.771C100.426 107.746 100.4 107.716 100.375 107.688C100.359 107.669 100.341 107.651 100.326 107.631C100.301 107.597 100.277 107.56 100.254 107.522C100.242 107.503 100.231 107.487 100.22 107.467C100.189 107.409 100.16 107.347 100.138 107.281C100.138 107.281 100.138 107.281 100.138 107.279L95.3681 93.6119L94.356 95.2382L98.728 107.771C99.1185 108.889 100.14 109.612 101.331 109.612C102.313 109.612 103.213 109.11 103.738 108.268L116.217 88.2159L136.269 75.7364C137.21 75.1491 137.72 74.1086 137.597 73.016Z" fill="url(#paint19_linear_650_1816)"/>
<path d="M137.597 73.016C137.48 71.9532 136.781 71.0752 135.774 70.7249L84.4076 52.8076C84.1095 52.7033 83.7994 52.6511 83.4864 52.6511C82.5771 52.6511 81.7125 53.1028 81.1759 53.8585C80.6408 54.6113 80.5081 55.5399 80.8092 56.406L88.5605 78.6267L90.3581 79.2542L82.2179 55.9141C82.197 55.853 82.1806 55.7933 82.1687 55.7322C82.1642 55.7128 82.1627 55.6935 82.1597 55.6741C82.1538 55.6338 82.1478 55.5921 82.1463 55.5533C82.1448 55.531 82.1448 55.5086 82.1448 55.4863C82.1448 55.449 82.1463 55.4132 82.1493 55.376C82.1508 55.3536 82.1538 55.3312 82.1567 55.3074C82.1612 55.2716 82.1687 55.2358 82.1761 55.2016C82.1806 55.1807 82.1851 55.1583 82.191 55.1375C82.2015 55.1002 82.2134 55.0659 82.2268 55.0301C82.2328 55.0122 82.2387 54.9944 82.2462 54.9765C82.2656 54.9303 82.2879 54.8855 82.3133 54.8408C82.3162 54.8349 82.3192 54.8304 82.3222 54.8244C82.3505 54.7752 82.3818 54.729 82.4161 54.6843C82.4265 54.6709 82.4385 54.6575 82.4489 54.6441C82.4742 54.6142 82.4996 54.5844 82.5264 54.5561C82.5413 54.5412 82.5562 54.5263 82.5726 54.5129C82.598 54.489 82.6248 54.4652 82.6531 54.4428C82.671 54.4294 82.6874 54.416 82.7053 54.4026C82.7336 54.3817 82.7634 54.3623 82.7932 54.343C82.8111 54.331 82.8305 54.3206 82.8484 54.3087C82.8812 54.2908 82.914 54.2744 82.9483 54.2595C82.9661 54.252 82.984 54.2431 83.0019 54.2356C83.0452 54.2177 83.0899 54.2043 83.1361 54.1909C83.145 54.1879 83.1555 54.1849 83.1644 54.182C83.2196 54.1671 83.2762 54.1566 83.3343 54.1507C83.3507 54.1492 83.3671 54.1492 83.3835 54.1477C83.4163 54.1447 83.4506 54.1417 83.4849 54.1417C83.4953 54.1417 83.5058 54.1432 83.5162 54.1432C83.5266 54.1432 83.5356 54.1447 83.546 54.1447C83.6012 54.1477 83.6578 54.1536 83.7129 54.1626C83.7204 54.1641 83.7279 54.1656 83.7368 54.1671C83.7964 54.179 83.8546 54.1939 83.9142 54.2148C83.9142 54.2148 83.9142 54.2148 83.9157 54.2148L105.294 61.6723L135.283 72.1335C136.305 72.4898 136.423 73.8835 135.482 74.4693L115.407 86.9638C115.302 87.0293 115.208 87.1098 115.125 87.1993C115.067 87.2619 115.013 87.329 114.968 87.402L106.072 101.697L102.474 107.479C102.438 107.536 102.399 107.588 102.359 107.637C102.346 107.654 102.331 107.667 102.317 107.682C102.289 107.713 102.261 107.745 102.229 107.771C102.212 107.788 102.192 107.801 102.174 107.816C102.146 107.84 102.118 107.862 102.088 107.883C102.067 107.898 102.046 107.91 102.025 107.922C101.995 107.94 101.966 107.958 101.936 107.973C101.913 107.985 101.891 107.993 101.867 108.004C101.837 108.017 101.806 108.029 101.775 108.041C101.751 108.05 101.727 108.056 101.703 108.064C101.672 108.072 101.641 108.08 101.609 108.087C101.584 108.092 101.56 108.098 101.535 108.101C101.504 108.105 101.471 108.11 101.439 108.111C101.414 108.113 101.39 108.116 101.365 108.116C101.354 108.116 101.343 108.117 101.332 108.117C101.316 108.117 101.298 108.114 101.281 108.114C101.247 108.113 101.213 108.111 101.179 108.107C101.152 108.104 101.126 108.099 101.1 108.095C101.065 108.089 101.033 108.081 101 108.072C100.974 108.065 100.949 108.058 100.924 108.05C100.891 108.04 100.86 108.028 100.827 108.014C100.803 108.004 100.778 107.993 100.754 107.982C100.722 107.967 100.693 107.949 100.663 107.931C100.64 107.917 100.618 107.904 100.596 107.889C100.566 107.868 100.539 107.846 100.512 107.822C100.493 107.806 100.472 107.789 100.453 107.771C100.426 107.746 100.4 107.716 100.375 107.688C100.359 107.669 100.341 107.651 100.326 107.631C100.301 107.597 100.277 107.56 100.254 107.522C100.242 107.503 100.231 107.487 100.22 107.467C100.189 107.409 100.16 107.347 100.138 107.281C100.138 107.281 100.138 107.281 100.138 107.279L95.3681 93.6119L94.356 95.2382L98.728 107.771C99.1185 108.889 100.14 109.612 101.331 109.612C102.313 109.612 103.213 109.11 103.738 108.268L116.217 88.2159L136.269 75.7364C137.21 75.1491 137.72 74.1086 137.597 73.016Z" fill="url(#paint20_linear_650_1816)"/>
<path d="M83.7159 54.1611C83.7237 54.1627 83.7315 54.1642 83.7409 54.1658C83.7315 54.1658 83.7237 54.1627 83.7159 54.1611Z" fill="url(#paint21_linear_650_1816)"/>
<path d="M83.7159 54.1611C83.7237 54.1627 83.7315 54.1642 83.7409 54.1658C83.7315 54.1658 83.7237 54.1627 83.7159 54.1611Z" fill="url(#paint22_linear_650_1816)"/>
<path d="M83.7159 54.1611C83.7237 54.1627 83.7315 54.1642 83.7409 54.1658C83.7315 54.1658 83.7237 54.1627 83.7159 54.1611Z" fill="url(#paint23_linear_650_1816)"/>
<path d="M100.596 107.891C100.566 107.87 100.539 107.847 100.512 107.824C100.539 107.847 100.566 107.871 100.596 107.891Z" fill="url(#paint24_linear_650_1816)"/>
<path d="M100.596 107.891C100.566 107.87 100.539 107.847 100.512 107.824C100.539 107.847 100.566 107.871 100.596 107.891Z" fill="url(#paint25_linear_650_1816)"/>
<path d="M100.596 107.891C100.566 107.87 100.539 107.847 100.512 107.824C100.539 107.847 100.566 107.871 100.596 107.891Z" fill="url(#paint26_linear_650_1816)"/>
<path d="M101.773 108.044C101.749 108.053 101.725 108.061 101.702 108.066C101.725 108.059 101.749 108.052 101.773 108.044Z" fill="url(#paint27_linear_650_1816)"/>
<path d="M101.773 108.044C101.749 108.053 101.725 108.061 101.702 108.066C101.725 108.059 101.749 108.052 101.773 108.044Z" fill="url(#paint28_linear_650_1816)"/>
<path d="M101.773 108.044C101.749 108.053 101.725 108.061 101.702 108.066C101.725 108.059 101.749 108.052 101.773 108.044Z" fill="url(#paint29_linear_650_1816)"/>
<path d="M101.608 108.09C101.584 108.095 101.559 108.101 101.533 108.104C101.559 108.099 101.584 108.095 101.608 108.09Z" fill="url(#paint30_linear_650_1816)"/>
<path d="M101.608 108.09C101.584 108.095 101.559 108.101 101.533 108.104C101.559 108.099 101.584 108.095 101.608 108.09Z" fill="url(#paint31_linear_650_1816)"/>
<path d="M101.608 108.09C101.584 108.095 101.559 108.101 101.533 108.104C101.559 108.099 101.584 108.095 101.608 108.09Z" fill="url(#paint32_linear_650_1816)"/>
<path d="M83.5192 54.1417C83.5298 54.1417 83.5389 54.1432 83.5495 54.1432C83.5389 54.1432 83.5283 54.1417 83.5192 54.1417Z" fill="url(#paint33_linear_650_1816)"/>
<path d="M83.5192 54.1417C83.5298 54.1417 83.5389 54.1432 83.5495 54.1432C83.5389 54.1432 83.5283 54.1417 83.5192 54.1417Z" fill="url(#paint34_linear_650_1816)"/>
<path d="M83.5192 54.1417C83.5298 54.1417 83.5389 54.1432 83.5495 54.1432C83.5389 54.1432 83.5283 54.1417 83.5192 54.1417Z" fill="url(#paint35_linear_650_1816)"/>
<path d="M82.3176 54.8414C82.3207 54.8352 82.3238 54.8306 82.3269 54.8244C82.3223 54.8306 82.3207 54.8352 82.3176 54.8414Z" fill="url(#paint36_linear_650_1816)"/>
<path d="M82.3176 54.8414C82.3207 54.8352 82.3238 54.8306 82.3269 54.8244C82.3223 54.8306 82.3207 54.8352 82.3176 54.8414Z" fill="url(#paint37_linear_650_1816)"/>
<path d="M82.3176 54.8414C82.3207 54.8352 82.3238 54.8306 82.3269 54.8244C82.3223 54.8306 82.3207 54.8352 82.3176 54.8414Z" fill="url(#paint38_linear_650_1816)"/>
<path d="M100.451 107.774C100.424 107.749 100.399 107.719 100.374 107.691C100.4 107.719 100.424 107.748 100.451 107.774Z" fill="url(#paint39_linear_650_1816)"/>
<path d="M100.451 107.774C100.424 107.749 100.399 107.719 100.374 107.691C100.4 107.719 100.424 107.748 100.451 107.774Z" fill="url(#paint40_linear_650_1816)"/>
<path d="M100.451 107.774C100.424 107.749 100.399 107.719 100.374 107.691C100.4 107.719 100.424 107.748 100.451 107.774Z" fill="url(#paint41_linear_650_1816)"/>
<path d="M105.296 61.6723L83.917 54.2148L105.296 61.6723Z" fill="url(#paint42_linear_650_1816)"/>
<path d="M105.296 61.6723L83.917 54.2148L105.296 61.6723Z" fill="url(#paint43_linear_650_1816)"/>
<path d="M105.296 61.6723L83.917 54.2148L105.296 61.6723Z" fill="url(#paint44_linear_650_1816)"/>
<path d="M82.1505 55.3745C82.152 55.3521 82.155 55.3297 82.158 55.3059C82.155 55.3297 82.1535 55.3521 82.1505 55.3745Z" fill="url(#paint45_linear_650_1816)"/>
<path d="M82.1505 55.3745C82.152 55.3521 82.155 55.3297 82.158 55.3059C82.155 55.3297 82.1535 55.3521 82.1505 55.3745Z" fill="url(#paint46_linear_650_1816)"/>
<path d="M82.1505 55.3745C82.152 55.3521 82.155 55.3297 82.158 55.3059C82.155 55.3297 82.1535 55.3521 82.1505 55.3745Z" fill="url(#paint47_linear_650_1816)"/>
<path d="M82.1791 55.2028C82.1836 55.1815 82.1882 55.1587 82.1943 55.1375C82.1882 55.1587 82.1836 55.18 82.1791 55.2028Z" fill="url(#paint48_linear_650_1816)"/>
<path d="M82.1791 55.2028C82.1836 55.1815 82.1882 55.1587 82.1943 55.1375C82.1882 55.1587 82.1836 55.18 82.1791 55.2028Z" fill="url(#paint49_linear_650_1816)"/>
<path d="M82.1791 55.2028C82.1836 55.1815 82.1882 55.1587 82.1943 55.1375C82.1882 55.1587 82.1836 55.18 82.1791 55.2028Z" fill="url(#paint50_linear_650_1816)"/>
<path d="M82.2295 55.0311C82.2356 55.0129 82.2416 54.9947 82.2492 54.9765C82.2432 54.9947 82.2371 55.0129 82.2295 55.0311Z" fill="url(#paint51_linear_650_1816)"/>
<path d="M82.2295 55.0311C82.2356 55.0129 82.2416 54.9947 82.2492 54.9765C82.2432 54.9947 82.2371 55.0129 82.2295 55.0311Z" fill="url(#paint52_linear_650_1816)"/>
<path d="M82.2295 55.0311C82.2356 55.0129 82.2416 54.9947 82.2492 54.9765C82.2432 54.9947 82.2371 55.0129 82.2295 55.0311Z" fill="url(#paint53_linear_650_1816)"/>
<path d="M83.1389 54.1911C83.148 54.188 83.1587 54.185 83.1678 54.182C83.1587 54.1835 83.1495 54.188 83.1389 54.1911Z" fill="url(#paint54_linear_650_1816)"/>
<path d="M83.1389 54.1911C83.148 54.188 83.1587 54.185 83.1678 54.182C83.1587 54.1835 83.1495 54.188 83.1389 54.1911Z" fill="url(#paint55_linear_650_1816)"/>
<path d="M83.1389 54.1911C83.148 54.188 83.1587 54.185 83.1678 54.182C83.1587 54.1835 83.1495 54.188 83.1389 54.1911Z" fill="url(#paint56_linear_650_1816)"/>
<path d="M83.3372 54.1507C83.3539 54.1492 83.3706 54.1492 83.3873 54.1477C83.3706 54.1477 83.3539 54.1477 83.3372 54.1507Z" fill="url(#paint57_linear_650_1816)"/>
<path d="M83.3372 54.1507C83.3539 54.1492 83.3706 54.1492 83.3873 54.1477C83.3706 54.1477 83.3539 54.1477 83.3372 54.1507Z" fill="url(#paint58_linear_650_1816)"/>
<path d="M83.3372 54.1507C83.3539 54.1492 83.3706 54.1492 83.3873 54.1477C83.3706 54.1477 83.3539 54.1477 83.3372 54.1507Z" fill="url(#paint59_linear_650_1816)"/>
<path d="M100.326 107.633C100.3 107.598 100.277 107.561 100.254 107.524C100.277 107.561 100.299 107.598 100.326 107.633Z" fill="url(#paint60_linear_650_1816)"/>
<path d="M100.326 107.633C100.3 107.598 100.277 107.561 100.254 107.524C100.277 107.561 100.299 107.598 100.326 107.633Z" fill="url(#paint61_linear_650_1816)"/>
<path d="M100.326 107.633C100.3 107.598 100.277 107.561 100.254 107.524C100.277 107.561 100.299 107.598 100.326 107.633Z" fill="url(#paint62_linear_650_1816)"/>
<path d="M100.218 107.469C100.187 107.411 100.159 107.348 100.136 107.282C100.16 107.348 100.187 107.409 100.218 107.469Z" fill="url(#paint63_linear_650_1816)"/>
<path d="M100.218 107.469C100.187 107.411 100.159 107.348 100.136 107.282C100.16 107.348 100.187 107.409 100.218 107.469Z" fill="url(#paint64_linear_650_1816)"/>
<path d="M100.218 107.469C100.187 107.411 100.159 107.348 100.136 107.282C100.16 107.348 100.187 107.409 100.218 107.469Z" fill="url(#paint65_linear_650_1816)"/>
<path d="M82.656 54.4421C82.6727 54.4284 82.6909 54.4148 82.7092 54.4011C82.6909 54.4148 82.6742 54.4284 82.656 54.4421Z" fill="url(#paint66_linear_650_1816)"/>
<path d="M82.656 54.4421C82.6727 54.4284 82.6909 54.4148 82.7092 54.4011C82.6909 54.4148 82.6742 54.4284 82.656 54.4421Z" fill="url(#paint67_linear_650_1816)"/>
<path d="M82.656 54.4421C82.6727 54.4284 82.6909 54.4148 82.7092 54.4011C82.6909 54.4148 82.6742 54.4284 82.656 54.4421Z" fill="url(#paint68_linear_650_1816)"/>
<path d="M82.9526 54.2599C82.9709 54.2523 82.9891 54.2432 83.0073 54.2356C82.9876 54.2432 82.9709 54.2523 82.9526 54.2599Z" fill="url(#paint69_linear_650_1816)"/>
<path d="M82.9526 54.2599C82.9709 54.2523 82.9891 54.2432 83.0073 54.2356C82.9876 54.2432 82.9709 54.2523 82.9526 54.2599Z" fill="url(#paint70_linear_650_1816)"/>
<path d="M82.9526 54.2599C82.9709 54.2523 82.9891 54.2432 83.0073 54.2356C82.9876 54.2432 82.9709 54.2523 82.9526 54.2599Z" fill="url(#paint71_linear_650_1816)"/>
<path d="M82.7963 54.3436C82.8145 54.3314 82.8342 54.3208 82.8524 54.3087C82.8342 54.3208 82.816 54.3314 82.7963 54.3436Z" fill="url(#paint72_linear_650_1816)"/>
<path d="M82.7963 54.3436C82.8145 54.3314 82.8342 54.3208 82.8524 54.3087C82.8342 54.3208 82.816 54.3314 82.7963 54.3436Z" fill="url(#paint73_linear_650_1816)"/>
<path d="M82.7963 54.3436C82.8145 54.3314 82.8342 54.3208 82.8524 54.3087C82.8342 54.3208 82.816 54.3314 82.7963 54.3436Z" fill="url(#paint74_linear_650_1816)"/>
<path opacity="0.8" d="M95.368 93.6119L95.5156 93.3749C95.5171 93.3719 95.5186 93.3705 95.5215 93.369L105.799 86.9727C106.254 86.6895 106.498 86.1871 106.44 85.6609C106.384 85.1497 106.047 84.7263 105.562 84.5564L90.3595 79.2528L88.5618 78.6252L79.2678 75.3831C79.1232 75.3324 78.9741 75.3071 78.8236 75.3071C78.3838 75.3071 77.968 75.5247 77.7086 75.8899C77.4507 76.2536 77.3866 76.7008 77.5312 77.1197L86.703 103.414C86.8908 103.952 87.3842 104.301 87.9581 104.301C88.4321 104.301 88.8674 104.058 89.1208 103.651L94.3574 95.2367L95.368 93.6119Z" fill="#40DFFF"/>
<defs>
<linearGradient id="paint0_linear_650_1816" x1="4.62224" y1="76.114" x2="109.78" y2="76.114" gradientUnits="userSpaceOnUse">
<stop stop-color="#13D9FF" stop-opacity="0.1"/>
<stop offset="0.0533" stop-color="#16D9FF" stop-opacity="0.1426"/>
<stop offset="0.6593" stop-color="#35DEFF" stop-opacity="0.6274"/>
<stop offset="1" stop-color="#40E0FF" stop-opacity="0.9"/>
</linearGradient>
<linearGradient id="paint1_linear_650_1816" x1="4.62219" y1="64.661" x2="109.78" y2="64.661" gradientUnits="userSpaceOnUse">
<stop stop-color="#13D9FF" stop-opacity="0.1"/>
<stop offset="0.0533" stop-color="#16D9FF" stop-opacity="0.1426"/>
<stop offset="0.6593" stop-color="#35DEFF" stop-opacity="0.6274"/>
<stop offset="1" stop-color="#40E0FF" stop-opacity="0.9"/>
</linearGradient>
<linearGradient id="paint2_linear_650_1816" x1="4.62202" y1="64.5986" x2="109.78" y2="64.5986" gradientUnits="userSpaceOnUse">
<stop stop-color="#13D9FF" stop-opacity="0.1"/>
<stop offset="0.0533" stop-color="#16D9FF" stop-opacity="0.1426"/>
<stop offset="0.6593" stop-color="#35DEFF" stop-opacity="0.6274"/>
<stop offset="1" stop-color="#40E0FF" stop-opacity="0.9"/>
</linearGradient>
<linearGradient id="paint3_linear_650_1816" x1="4.62232" y1="53.671" x2="109.78" y2="53.671" gradientUnits="userSpaceOnUse">
<stop stop-color="#13D9FF" stop-opacity="0.1"/>
<stop offset="0.0533" stop-color="#16D9FF" stop-opacity="0.1426"/>
<stop offset="0.6593" stop-color="#35DEFF" stop-opacity="0.6274"/>
<stop offset="1" stop-color="#40E0FF" stop-opacity="0.9"/>
</linearGradient>
<linearGradient id="paint4_linear_650_1816" x1="4.62224" y1="53.6714" x2="109.78" y2="53.6714" gradientUnits="userSpaceOnUse">
<stop stop-color="#13D9FF" stop-opacity="0.1"/>
<stop offset="0.0533" stop-color="#16D9FF" stop-opacity="0.1426"/>
<stop offset="0.6593" stop-color="#35DEFF" stop-opacity="0.6274"/>
<stop offset="1" stop-color="#40E0FF" stop-opacity="0.9"/>
</linearGradient>
<linearGradient id="paint5_linear_650_1816" x1="87.5833" y1="20.5433" x2="3.79722" y2="68.9172" gradientUnits="userSpaceOnUse">
<stop stop-color="#9AF0FC"/>
<stop offset="0.0723" stop-color="#74EAFD"/>
<stop offset="0.1542" stop-color="#4EE4FF"/>
<stop offset="0.1975" stop-color="#40E2FF"/>
<stop offset="1" stop-color="#40E2FF" stop-opacity="0.1"/>
</linearGradient>
<linearGradient id="paint6_linear_650_1816" x1="104.677" y1="50.1504" x2="20.8909" y2="98.5242" gradientUnits="userSpaceOnUse">
<stop stop-color="#9AF0FC"/>
<stop offset="0.0723" stop-color="#74EAFD"/>
<stop offset="0.1542" stop-color="#4EE4FF"/>
<stop offset="0.1975" stop-color="#40E2FF"/>
<stop offset="1" stop-color="#40E2FF" stop-opacity="0.1"/>
</linearGradient>
<linearGradient id="paint7_linear_650_1816" x1="95.8967" y1="34.9423" x2="12.1106" y2="83.3162" gradientUnits="userSpaceOnUse">
<stop stop-color="#9AF0FC"/>
<stop offset="0.0723" stop-color="#74EAFD"/>
<stop offset="0.1542" stop-color="#4EE4FF"/>
<stop offset="0.1975" stop-color="#40E2FF"/>
<stop offset="1" stop-color="#40E2FF" stop-opacity="0.1"/>
</linearGradient>
<linearGradient id="paint8_linear_650_1816" x1="112.694" y1="64.0357" x2="28.9075" y2="112.41" gradientUnits="userSpaceOnUse">
<stop stop-color="#9AF0FC"/>
<stop offset="0.0723" stop-color="#74EAFD"/>
<stop offset="0.1542" stop-color="#4EE4FF"/>
<stop offset="0.1975" stop-color="#40E2FF"/>
<stop offset="1" stop-color="#40E2FF" stop-opacity="0.1"/>
</linearGradient>
<linearGradient id="paint9_linear_650_1816" x1="102.845" y1="46.9779" x2="19.0594" y2="95.3518" gradientUnits="userSpaceOnUse">
<stop stop-color="#9AF0FC"/>
<stop offset="0.0723" stop-color="#74EAFD"/>
<stop offset="0.1542" stop-color="#4EE4FF"/>
<stop offset="0.1975" stop-color="#40E2FF"/>
<stop offset="1" stop-color="#40E2FF" stop-opacity="0.1"/>
</linearGradient>
<linearGradient id="paint10_linear_650_1816" x1="4.62222" y1="53.7321" x2="109.78" y2="53.7321" gradientUnits="userSpaceOnUse">
<stop stop-color="#13D9FF" stop-opacity="0.1"/>
<stop offset="0.0533" stop-color="#16D9FF" stop-opacity="0.1426"/>
<stop offset="0.6593" stop-color="#35DEFF" stop-opacity="0.6274"/>
<stop offset="1" stop-color="#40E0FF" stop-opacity="0.9"/>
</linearGradient>
<linearGradient id="paint11_linear_650_1816" x1="92.8621" y1="29.6863" x2="9.07599" y2="78.0602" gradientUnits="userSpaceOnUse">
<stop stop-color="#9AF0FC"/>
<stop offset="0.0723" stop-color="#74EAFD"/>
<stop offset="0.1542" stop-color="#4EE4FF"/>
<stop offset="0.1975" stop-color="#40E2FF"/>
<stop offset="1" stop-color="#40E2FF" stop-opacity="0.1"/>
</linearGradient>
<linearGradient id="paint12_linear_650_1816" x1="4.62227" y1="76.1991" x2="109.78" y2="76.1991" gradientUnits="userSpaceOnUse">
<stop stop-color="#13D9FF" stop-opacity="0.1"/>
<stop offset="0.0533" stop-color="#16D9FF" stop-opacity="0.1426"/>
<stop offset="0.6593" stop-color="#35DEFF" stop-opacity="0.6274"/>
<stop offset="1" stop-color="#40E0FF" stop-opacity="0.9"/>
</linearGradient>
<linearGradient id="paint13_linear_650_1816" x1="99.5191" y1="41.2165" x2="15.733" y2="89.5904" gradientUnits="userSpaceOnUse">
<stop stop-color="#9AF0FC"/>
<stop offset="0.0723" stop-color="#74EAFD"/>
<stop offset="0.1542" stop-color="#4EE4FF"/>
<stop offset="0.1975" stop-color="#40E2FF"/>
<stop offset="1" stop-color="#40E2FF" stop-opacity="0.1"/>
</linearGradient>
<linearGradient id="paint14_linear_650_1816" x1="4.6223" y1="64.6595" x2="109.78" y2="64.6595" gradientUnits="userSpaceOnUse">
<stop stop-color="#13D9FF" stop-opacity="0.1"/>
<stop offset="0.0533" stop-color="#16D9FF" stop-opacity="0.1426"/>
<stop offset="0.6593" stop-color="#35DEFF" stop-opacity="0.6274"/>
<stop offset="1" stop-color="#40E0FF" stop-opacity="0.9"/>
</linearGradient>
<linearGradient id="paint15_linear_650_1816" x1="4.62214" y1="53.7454" x2="109.78" y2="53.7454" gradientUnits="userSpaceOnUse">
<stop stop-color="#13D9FF" stop-opacity="0.1"/>
<stop offset="0.0533" stop-color="#16D9FF" stop-opacity="0.1426"/>
<stop offset="0.6593" stop-color="#35DEFF" stop-opacity="0.6274"/>
<stop offset="1" stop-color="#40E0FF" stop-opacity="0.9"/>
</linearGradient>
<linearGradient id="paint16_linear_650_1816" x1="85.6112" y1="17.1274" x2="1.82503" y2="65.5013" gradientUnits="userSpaceOnUse">
<stop stop-color="#9AF0FC"/>
<stop offset="0.0723" stop-color="#74EAFD"/>
<stop offset="0.1542" stop-color="#4EE4FF"/>
<stop offset="0.1975" stop-color="#40E2FF"/>
<stop offset="1" stop-color="#40E2FF" stop-opacity="0.1"/>
</linearGradient>
<linearGradient id="paint17_linear_650_1816" x1="103.978" y1="48.9395" x2="20.1919" y2="97.3135" gradientUnits="userSpaceOnUse">
<stop stop-color="#9AF0FC"/>
<stop offset="0.0723" stop-color="#74EAFD"/>
<stop offset="0.1542" stop-color="#4EE4FF"/>
<stop offset="0.1975" stop-color="#40E2FF"/>
<stop offset="1" stop-color="#40E2FF" stop-opacity="0.1"/>
</linearGradient>
<linearGradient id="paint18_linear_650_1816" x1="82.147" y1="81.1304" x2="136.125" y2="81.1304" gradientUnits="userSpaceOnUse">
<stop stop-color="#40E2FF"/>
<stop offset="1" stop-color="#40E2FF" stop-opacity="0.1"/>
</linearGradient>
<linearGradient id="paint19_linear_650_1816" x1="80.6524" y1="81.1308" x2="137.616" y2="81.1308" gradientUnits="userSpaceOnUse">
<stop stop-color="#40E2FF"/>
<stop offset="1" stop-color="#40E2FF" stop-opacity="0.1"/>
</linearGradient>
<linearGradient id="paint20_linear_650_1816" x1="113.086" y1="57.5686" x2="87.4232" y2="102.018" gradientUnits="userSpaceOnUse">
<stop offset="0.0341" stop-color="#9AF0FC"/>
<stop offset="0.0939" stop-color="#74EAFD"/>
<stop offset="0.1617" stop-color="#4EE4FF"/>
<stop offset="0.1975" stop-color="#40E2FF"/>
<stop offset="1" stop-color="#40E2FF" stop-opacity="0.1"/>
</linearGradient>
<linearGradient id="paint21_linear_650_1816" x1="82.0741" y1="54.1645" x2="138.472" y2="54.1645" gradientUnits="userSpaceOnUse">
<stop stop-color="#40E2FF"/>
<stop offset="1" stop-color="#40E2FF" stop-opacity="0.1"/>
</linearGradient>
<linearGradient id="paint22_linear_650_1816" x1="80.5152" y1="54.1645" x2="140.03" y2="54.1645" gradientUnits="userSpaceOnUse">
<stop stop-color="#40E2FF"/>
<stop offset="1" stop-color="#40E2FF" stop-opacity="0.1"/>
</linearGradient>
<linearGradient id="paint23_linear_650_1816" x1="89.8563" y1="43.5486" x2="63.0388" y2="89.9919" gradientUnits="userSpaceOnUse">
<stop stop-color="#9AF0FC"/>
<stop offset="0.0723" stop-color="#74EAFD"/>
<stop offset="0.1542" stop-color="#4EE4FF"/>
<stop offset="0.1975" stop-color="#40E2FF"/>
<stop offset="1" stop-color="#40E2FF" stop-opacity="0.1"/>
</linearGradient>
<linearGradient id="paint24_linear_650_1816" x1="82.1445" y1="107.858" x2="136.125" y2="107.858" gradientUnits="userSpaceOnUse">
<stop stop-color="#40E2FF"/>
<stop offset="1" stop-color="#40E2FF" stop-opacity="0.1"/>
</linearGradient>
<linearGradient id="paint25_linear_650_1816" x1="80.6524" y1="107.858" x2="137.616" y2="107.858" gradientUnits="userSpaceOnUse">
<stop stop-color="#40E2FF"/>
<stop offset="1" stop-color="#40E2FF" stop-opacity="0.1"/>
</linearGradient>
<linearGradient id="paint26_linear_650_1816" x1="125.462" y1="64.7187" x2="99.8034" y2="109.166" gradientUnits="userSpaceOnUse">
<stop stop-color="#9AF0FC"/>
<stop offset="0.0723" stop-color="#74EAFD"/>
<stop offset="0.1542" stop-color="#4EE4FF"/>
<stop offset="0.1975" stop-color="#40E2FF"/>
<stop offset="1" stop-color="#40E2FF" stop-opacity="0.1"/>
</linearGradient>
<linearGradient id="paint27_linear_650_1816" x1="82.1425" y1="108.055" x2="136.127" y2="108.055" gradientUnits="userSpaceOnUse">
<stop stop-color="#40E2FF"/>
<stop offset="1" stop-color="#40E2FF" stop-opacity="0.1"/>
</linearGradient>
<linearGradient id="paint28_linear_650_1816" x1="80.6503" y1="108.055" x2="137.619" y2="108.055" gradientUnits="userSpaceOnUse">
<stop stop-color="#40E2FF"/>
<stop offset="1" stop-color="#40E2FF" stop-opacity="0.1"/>
</linearGradient>
<linearGradient id="paint29_linear_650_1816" x1="126.438" y1="65.2867" x2="100.786" y2="109.733" gradientUnits="userSpaceOnUse">
<stop stop-color="#9AF0FC"/>
<stop offset="0.0723" stop-color="#74EAFD"/>
<stop offset="0.1542" stop-color="#4EE4FF"/>
<stop offset="0.1975" stop-color="#40E2FF"/>
<stop offset="1" stop-color="#40E2FF" stop-opacity="0.1"/>
</linearGradient>
<linearGradient id="paint30_linear_650_1816" x1="82.1444" y1="108.097" x2="136.125" y2="108.097" gradientUnits="userSpaceOnUse">
<stop stop-color="#40E2FF"/>
<stop offset="1" stop-color="#40E2FF" stop-opacity="0.1"/>
</linearGradient>
<linearGradient id="paint31_linear_650_1816" x1="80.6523" y1="108.097" x2="137.616" y2="108.097" gradientUnits="userSpaceOnUse">
<stop stop-color="#40E2FF"/>
<stop offset="1" stop-color="#40E2FF" stop-opacity="0.1"/>
</linearGradient>
<linearGradient id="paint32_linear_650_1816" x1="126.329" y1="65.2308" x2="100.681" y2="109.672" gradientUnits="userSpaceOnUse">
<stop stop-color="#9AF0FC"/>
<stop offset="0.0723" stop-color="#74EAFD"/>
<stop offset="0.1542" stop-color="#4EE4FF"/>
<stop offset="0.1975" stop-color="#40E2FF"/>
<stop offset="1" stop-color="#40E2FF" stop-opacity="0.1"/>
</linearGradient>
<linearGradient id="paint33_linear_650_1816" x1="82.1186" y1="54.1426" x2="137.112" y2="54.1426" gradientUnits="userSpaceOnUse">
<stop stop-color="#40E2FF"/>
<stop offset="1" stop-color="#40E2FF" stop-opacity="0.1"/>
</linearGradient>
<linearGradient id="paint34_linear_650_1816" x1="80.5985" y1="54.1426" x2="138.631" y2="54.1426" gradientUnits="userSpaceOnUse">
<stop stop-color="#40E2FF"/>
<stop offset="1" stop-color="#40E2FF" stop-opacity="0.1"/>
</linearGradient>
<linearGradient id="paint35_linear_650_1816" x1="89.5493" y1="43.7139" x2="63.3686" y2="89.0187" gradientUnits="userSpaceOnUse">
<stop stop-color="#9AF0FC"/>
<stop offset="0.0723" stop-color="#74EAFD"/>
<stop offset="0.1542" stop-color="#4EE4FF"/>
<stop offset="0.1975" stop-color="#40E2FF"/>
<stop offset="1" stop-color="#40E2FF" stop-opacity="0.1"/>
</linearGradient>
<linearGradient id="paint36_linear_650_1816" x1="82.1379" y1="54.833" x2="138.136" y2="54.833" gradientUnits="userSpaceOnUse">
<stop stop-color="#40E2FF"/>
<stop offset="1" stop-color="#40E2FF" stop-opacity="0.1"/>
</linearGradient>
<linearGradient id="paint37_linear_650_1816" x1="80.59" y1="54.833" x2="139.682" y2="54.833" gradientUnits="userSpaceOnUse">
<stop stop-color="#40E2FF"/>
<stop offset="1" stop-color="#40E2FF" stop-opacity="0.1"/>
</linearGradient>
<linearGradient id="paint38_linear_650_1816" x1="89.071" y1="43.1431" x2="62.4524" y2="89.252" gradientUnits="userSpaceOnUse">
<stop stop-color="#9AF0FC"/>
<stop offset="0.0723" stop-color="#74EAFD"/>
<stop offset="0.1542" stop-color="#4EE4FF"/>
<stop offset="0.1975" stop-color="#40E2FF"/>
<stop offset="1" stop-color="#40E2FF" stop-opacity="0.1"/>
</linearGradient>
<linearGradient id="paint39_linear_650_1816" x1="82.1438" y1="107.732" x2="136.126" y2="107.732" gradientUnits="userSpaceOnUse">
<stop stop-color="#40E2FF"/>
<stop offset="1" stop-color="#40E2FF" stop-opacity="0.1"/>
</linearGradient>
<linearGradient id="paint40_linear_650_1816" x1="80.6516" y1="107.732" x2="137.617" y2="107.732" gradientUnits="userSpaceOnUse">
<stop stop-color="#40E2FF"/>
<stop offset="1" stop-color="#40E2FF" stop-opacity="0.1"/>
</linearGradient>
<linearGradient id="paint41_linear_650_1816" x1="125.304" y1="64.6221" x2="99.6414" y2="109.073" gradientUnits="userSpaceOnUse">
<stop stop-color="#9AF0FC"/>
<stop offset="0.0723" stop-color="#74EAFD"/>
<stop offset="0.1542" stop-color="#4EE4FF"/>
<stop offset="0.1975" stop-color="#40E2FF"/>
<stop offset="1" stop-color="#40E2FF" stop-opacity="0.1"/>
</linearGradient>
<linearGradient id="paint42_linear_650_1816" x1="82.1443" y1="57.943" x2="136.125" y2="57.943" gradientUnits="userSpaceOnUse">
<stop stop-color="#40E2FF"/>
<stop offset="1" stop-color="#40E2FF" stop-opacity="0.1"/>
</linearGradient>
<linearGradient id="paint43_linear_650_1816" x1="80.6522" y1="57.943" x2="137.616" y2="57.943" gradientUnits="userSpaceOnUse">
<stop stop-color="#40E2FF"/>
<stop offset="1" stop-color="#40E2FF" stop-opacity="0.1"/>
</linearGradient>
<linearGradient id="paint44_linear_650_1816" x1="99.3881" y1="49.66" x2="73.725" y2="94.1098" gradientUnits="userSpaceOnUse">
<stop stop-color="#9AF0FC"/>
<stop offset="0.0723" stop-color="#74EAFD"/>
<stop offset="0.1542" stop-color="#4EE4FF"/>
<stop offset="0.1975" stop-color="#40E2FF"/>
<stop offset="1" stop-color="#40E2FF" stop-opacity="0.1"/>
</linearGradient>
<linearGradient id="paint45_linear_650_1816" x1="82.1442" y1="55.3408" x2="136.111" y2="55.3408" gradientUnits="userSpaceOnUse">
<stop stop-color="#40E2FF"/>
<stop offset="1" stop-color="#40E2FF" stop-opacity="0.1"/>
</linearGradient>
<linearGradient id="paint46_linear_650_1816" x1="80.6524" y1="55.3408" x2="137.602" y2="55.3408" gradientUnits="userSpaceOnUse">
<stop stop-color="#40E2FF"/>
<stop offset="1" stop-color="#40E2FF" stop-opacity="0.1"/>
</linearGradient>
<linearGradient id="paint47_linear_650_1816" x1="88.9212" y1="43.6174" x2="63.2532" y2="88.0628" gradientUnits="userSpaceOnUse">
<stop stop-color="#9AF0FC"/>
<stop offset="0.0723" stop-color="#74EAFD"/>
<stop offset="0.1542" stop-color="#4EE4FF"/>
<stop offset="0.1975" stop-color="#40E2FF"/>
<stop offset="1" stop-color="#40E2FF" stop-opacity="0.1"/>
</linearGradient>
<linearGradient id="paint48_linear_650_1816" x1="82.1438" y1="55.1698" x2="137.121" y2="55.1698" gradientUnits="userSpaceOnUse">
<stop stop-color="#40E2FF"/>
<stop offset="1" stop-color="#40E2FF" stop-opacity="0.1"/>
</linearGradient>
<linearGradient id="paint49_linear_650_1816" x1="80.6241" y1="55.1698" x2="138.639" y2="55.1698" gradientUnits="userSpaceOnUse">
<stop stop-color="#40E2FF"/>
<stop offset="1" stop-color="#40E2FF" stop-opacity="0.1"/>
</linearGradient>
<linearGradient id="paint50_linear_650_1816" x1="88.9957" y1="43.3728" x2="62.85" y2="88.6482" gradientUnits="userSpaceOnUse">
<stop stop-color="#9AF0FC"/>
<stop offset="0.0723" stop-color="#74EAFD"/>
<stop offset="0.1542" stop-color="#4EE4FF"/>
<stop offset="0.1975" stop-color="#40E2FF"/>
<stop offset="1" stop-color="#40E2FF" stop-opacity="0.1"/>
</linearGradient>
<linearGradient id="paint51_linear_650_1816" x1="82.1426" y1="55.0034" x2="137.109" y2="55.0034" gradientUnits="userSpaceOnUse">
<stop stop-color="#40E2FF"/>
<stop offset="1" stop-color="#40E2FF" stop-opacity="0.1"/>
</linearGradient>
<linearGradient id="paint52_linear_650_1816" x1="80.6232" y1="55.0034" x2="138.627" y2="55.0034" gradientUnits="userSpaceOnUse">
<stop stop-color="#40E2FF"/>
<stop offset="1" stop-color="#40E2FF" stop-opacity="0.1"/>
</linearGradient>
<linearGradient id="paint53_linear_650_1816" x1="88.9611" y1="43.3564" x2="62.8105" y2="88.629" gradientUnits="userSpaceOnUse">
<stop stop-color="#9AF0FC"/>
<stop offset="0.0723" stop-color="#74EAFD"/>
<stop offset="0.1542" stop-color="#4EE4FF"/>
<stop offset="0.1975" stop-color="#40E2FF"/>
<stop offset="1" stop-color="#40E2FF" stop-opacity="0.1"/>
</linearGradient>
<linearGradient id="paint54_linear_650_1816" x1="82.1257" y1="54.1862" x2="137.117" y2="54.1862" gradientUnits="userSpaceOnUse">
<stop stop-color="#40E2FF"/>
<stop offset="1" stop-color="#40E2FF" stop-opacity="0.1"/>
</linearGradient>
<linearGradient id="paint55_linear_650_1816" x1="80.6056" y1="54.1862" x2="138.636" y2="54.1862" gradientUnits="userSpaceOnUse">
<stop stop-color="#40E2FF"/>
<stop offset="1" stop-color="#40E2FF" stop-opacity="0.1"/>
</linearGradient>
<linearGradient id="paint56_linear_650_1816" x1="89.2848" y1="43.5672" x2="63.1434" y2="88.8479" gradientUnits="userSpaceOnUse">
<stop stop-color="#9AF0FC"/>
<stop offset="0.0723" stop-color="#74EAFD"/>
<stop offset="0.1542" stop-color="#4EE4FF"/>
<stop offset="0.1975" stop-color="#40E2FF"/>
<stop offset="1" stop-color="#40E2FF" stop-opacity="0.1"/>
</linearGradient>
<linearGradient id="paint57_linear_650_1816" x1="82.1221" y1="54.1486" x2="137.105" y2="54.1486" gradientUnits="userSpaceOnUse">
<stop stop-color="#40E2FF"/>
<stop offset="1" stop-color="#40E2FF" stop-opacity="0.1"/>
</linearGradient>
<linearGradient id="paint58_linear_650_1816" x1="80.6023" y1="54.1486" x2="138.624" y2="54.1486" gradientUnits="userSpaceOnUse">
<stop stop-color="#40E2FF"/>
<stop offset="1" stop-color="#40E2FF" stop-opacity="0.1"/>
</linearGradient>
<linearGradient id="paint59_linear_650_1816" x1="89.4227" y1="43.6554" x2="63.2993" y2="88.9213" gradientUnits="userSpaceOnUse">
<stop stop-color="#9AF0FC"/>
<stop offset="0.0723" stop-color="#74EAFD"/>
<stop offset="0.1542" stop-color="#4EE4FF"/>
<stop offset="0.1975" stop-color="#40E2FF"/>
<stop offset="1" stop-color="#40E2FF" stop-opacity="0.1"/>
</linearGradient>
<linearGradient id="paint60_linear_650_1816" x1="82.1451" y1="107.578" x2="136.123" y2="107.578" gradientUnits="userSpaceOnUse">
<stop stop-color="#40E2FF"/>
<stop offset="1" stop-color="#40E2FF" stop-opacity="0.1"/>
</linearGradient>
<linearGradient id="paint61_linear_650_1816" x1="80.653" y1="107.578" x2="137.614" y2="107.578" gradientUnits="userSpaceOnUse">
<stop stop-color="#40E2FF"/>
<stop offset="1" stop-color="#40E2FF" stop-opacity="0.1"/>
</linearGradient>
<linearGradient id="paint62_linear_650_1816" x1="125.143" y1="64.5312" x2="99.4801" y2="108.979" gradientUnits="userSpaceOnUse">
<stop stop-color="#9AF0FC"/>
<stop offset="0.0723" stop-color="#74EAFD"/>
<stop offset="0.1542" stop-color="#4EE4FF"/>
<stop offset="0.1975" stop-color="#40E2FF"/>
<stop offset="1" stop-color="#40E2FF" stop-opacity="0.1"/>
</linearGradient>
<linearGradient id="paint63_linear_650_1816" x1="82.1427" y1="107.375" x2="136.128" y2="107.375" gradientUnits="userSpaceOnUse">
<stop stop-color="#40E2FF"/>
<stop offset="1" stop-color="#40E2FF" stop-opacity="0.1"/>
</linearGradient>
<linearGradient id="paint64_linear_650_1816" x1="80.6505" y1="107.375" x2="137.619" y2="107.375" gradientUnits="userSpaceOnUse">
<stop stop-color="#40E2FF"/>
<stop offset="1" stop-color="#40E2FF" stop-opacity="0.1"/>
</linearGradient>
<linearGradient id="paint65_linear_650_1816" x1="124.974" y1="64.4307" x2="99.3119" y2="108.882" gradientUnits="userSpaceOnUse">
<stop stop-color="#9AF0FC"/>
<stop offset="0.0723" stop-color="#74EAFD"/>
<stop offset="0.1542" stop-color="#4EE4FF"/>
<stop offset="0.1975" stop-color="#40E2FF"/>
<stop offset="1" stop-color="#40E2FF" stop-opacity="0.1"/>
</linearGradient>
<linearGradient id="paint66_linear_650_1816" x1="82.1348" y1="54.4223" x2="137.121" y2="54.4223" gradientUnits="userSpaceOnUse">
<stop stop-color="#40E2FF"/>
<stop offset="1" stop-color="#40E2FF" stop-opacity="0.1"/>
</linearGradient>
<linearGradient id="paint67_linear_650_1816" x1="80.6149" y1="54.4223" x2="138.64" y2="54.4223" gradientUnits="userSpaceOnUse">
<stop stop-color="#40E2FF"/>
<stop offset="1" stop-color="#40E2FF" stop-opacity="0.1"/>
</linearGradient>
<linearGradient id="paint68_linear_650_1816" x1="89.0377" y1="43.4155" x2="62.8952" y2="88.6943" gradientUnits="userSpaceOnUse">
<stop stop-color="#9AF0FC"/>
<stop offset="0.0723" stop-color="#74EAFD"/>
<stop offset="0.1542" stop-color="#4EE4FF"/>
<stop offset="0.1975" stop-color="#40E2FF"/>
<stop offset="1" stop-color="#40E2FF" stop-opacity="0.1"/>
</linearGradient>
<linearGradient id="paint69_linear_650_1816" x1="82.1293" y1="54.2479" x2="137.117" y2="54.2479" gradientUnits="userSpaceOnUse">
<stop stop-color="#40E2FF"/>
<stop offset="1" stop-color="#40E2FF" stop-opacity="0.1"/>
</linearGradient>
<linearGradient id="paint70_linear_650_1816" x1="80.6093" y1="54.2479" x2="138.636" y2="54.2479" gradientUnits="userSpaceOnUse">
<stop stop-color="#40E2FF"/>
<stop offset="1" stop-color="#40E2FF" stop-opacity="0.1"/>
</linearGradient>
<linearGradient id="paint71_linear_650_1816" x1="89.1819" y1="43.5042" x2="63.0373" y2="88.7852" gradientUnits="userSpaceOnUse">
<stop stop-color="#9AF0FC"/>
<stop offset="0.0723" stop-color="#74EAFD"/>
<stop offset="0.1542" stop-color="#4EE4FF"/>
<stop offset="0.1975" stop-color="#40E2FF"/>
<stop offset="1" stop-color="#40E2FF" stop-opacity="0.1"/>
</linearGradient>
<linearGradient id="paint72_linear_650_1816" x1="82.1323" y1="54.3264" x2="137.122" y2="54.3264" gradientUnits="userSpaceOnUse">
<stop stop-color="#40E2FF"/>
<stop offset="1" stop-color="#40E2FF" stop-opacity="0.1"/>
</linearGradient>
<linearGradient id="paint73_linear_650_1816" x1="80.6123" y1="54.3264" x2="138.641" y2="54.3264" gradientUnits="userSpaceOnUse">
<stop stop-color="#40E2FF"/>
<stop offset="1" stop-color="#40E2FF" stop-opacity="0.1"/>
</linearGradient>
<linearGradient id="paint74_linear_650_1816" x1="89.1017" y1="43.4544" x2="62.9565" y2="88.7365" gradientUnits="userSpaceOnUse">
<stop stop-color="#9AF0FC"/>
<stop offset="0.0723" stop-color="#74EAFD"/>
<stop offset="0.1542" stop-color="#4EE4FF"/>
<stop offset="0.1975" stop-color="#40E2FF"/>
<stop offset="1" stop-color="#40E2FF" stop-opacity="0.1"/>
</linearGradient>
</defs>
</svg>
