<svg width="142" height="141" viewBox="0 0 142 141" fill="none" xmlns="http://www.w3.org/2000/svg">
<g opacity="0.8">
<path fill-rule="evenodd" clip-rule="evenodd" d="M79.6269 49.0452C80.5011 48.9384 81.391 48.8823 82.2926 48.8823C90.4916 48.8823 97.6549 53.4333 101.519 60.2083C102.727 60.0064 103.967 59.9022 105.232 59.9022C117.529 59.9022 127.496 69.8067 127.496 82.0252C127.496 93.9804 117.953 103.721 106.022 104.134V104.148H105.232H37.7638H37.7195C25.4451 104.125 15.5001 93.8971 15.5001 81.2864C15.5001 68.6602 25.4685 58.4234 37.7638 58.4234C37.7795 58.4234 37.7938 58.4234 37.8094 58.4234C38.5521 46.4863 48.2156 37.0404 60.0276 37.0404C68.4976 37.0404 75.8628 41.8963 79.6269 49.0452Z" fill="url(#paint0_linear_650_1686)"/>
<path d="M37.7638 104.149C50.0597 104.149 60.0275 93.9133 60.0275 81.2864C60.0275 68.6595 50.0597 58.4234 37.7638 58.4234C25.4679 58.4234 15.5001 68.6595 15.5001 81.2864C15.5001 93.9133 25.4679 104.149 37.7638 104.149Z" fill="url(#paint1_radial_650_1686)"/>
<path d="M60.0301 82.7261C72.326 82.7261 82.2938 72.49 82.2938 59.8631C82.2938 47.2362 72.326 37 60.0301 37C47.7342 37 37.7664 47.2362 37.7664 59.8631C37.7664 72.49 47.7342 82.7261 60.0301 82.7261Z" fill="url(#paint2_radial_650_1686)"/>
<path d="M105.218 104.156C117.514 104.156 127.482 94.2512 127.482 82.033C127.482 69.8148 117.514 59.91 105.218 59.91C92.9223 59.91 82.9545 69.8148 82.9545 82.033C82.9545 94.2512 92.9223 104.156 105.218 104.156Z" fill="url(#paint3_linear_650_1686)"/>
<path d="M82.2834 94.6111C94.5793 94.6111 104.547 84.3749 104.547 71.748C104.547 59.1211 94.5793 48.885 82.2834 48.885C69.9875 48.885 60.0197 59.1211 60.0197 71.748C60.0197 84.3749 69.9875 94.6111 82.2834 94.6111Z" fill="url(#paint4_radial_650_1686)"/>
</g>
<path d="M105.233 59.8865C104.985 59.8865 104.74 59.8943 104.494 59.9022C104.481 59.9022 104.468 59.9022 104.455 59.9035C104.229 59.9113 104.004 59.9243 103.78 59.9386C103.728 59.9425 103.677 59.9452 103.625 59.9478C103.405 59.9634 103.184 59.9829 102.967 60.0051C102.916 60.0103 102.865 60.0155 102.814 60.0207C102.59 60.0442 102.367 60.0715 102.146 60.1015C102.112 60.1067 102.08 60.1106 102.047 60.1158C101.871 60.1406 101.695 60.1627 101.522 60.1927C97.6575 53.4164 90.4943 48.8667 82.2952 48.8667C82.2678 48.8667 82.2405 48.8693 82.2118 48.8693C81.8131 48.8706 81.4184 48.8837 81.0249 48.9058C80.9128 48.9123 80.8034 48.924 80.6913 48.9319C80.3786 48.954 80.0673 48.9814 79.7585 49.0178C79.7155 49.0231 79.6712 49.0244 79.6295 49.0296C75.8654 41.8806 68.5015 37.0248 60.0315 37.0248C48.2195 37.0248 38.556 46.4707 37.8134 58.4077C37.7977 58.4077 37.7834 58.4077 37.7677 58.4077C25.4711 58.4077 15.504 68.6432 15.504 81.2708C15.504 93.8827 25.4477 104.109 37.7248 104.134H37.7691H105.236H106.026V104.12C117.956 103.706 127.5 93.9661 127.5 82.0108C127.496 69.7911 117.528 59.8865 105.233 59.8865ZM120.29 96.4742C116.499 100.367 111.415 102.615 105.975 102.804L105.691 102.817H105.231H37.7638H37.7221C26.1942 102.794 16.816 93.1271 16.816 81.2695C16.816 69.3885 26.2138 59.7224 37.7651 59.7224H37.799L38.0361 59.725C41.3077 59.768 44.4333 60.5627 47.3244 62.1014C47.4221 62.1535 47.5277 62.1783 47.6306 62.1783C47.8638 62.1783 48.0905 62.0519 48.2078 61.8317C48.3772 61.5125 48.256 61.1164 47.9381 60.9471C45.2203 59.5009 42.1989 58.6501 39.1267 58.4533C39.8472 47.1717 49.0208 38.3394 60.0289 38.3394C67.583 38.3394 74.5209 42.5086 78.2471 49.2485C67.897 51.1963 60.0263 60.5132 60.0263 71.6868C60.0263 72.0503 60.3207 72.3447 60.6842 72.3447C61.0477 72.3447 61.3422 72.0503 61.3422 71.6868C61.3422 60.65 69.4761 51.5324 79.907 50.3233C80.2041 50.2882 80.505 50.2634 80.806 50.2413C80.9037 50.2347 81.0001 50.2243 81.0991 50.2178C81.4692 50.197 81.8405 50.1852 82.2105 50.1839C82.23 50.1839 82.2483 50.1826 82.2678 50.1826C82.2691 50.1826 82.2704 50.1826 82.2717 50.1826C82.2796 50.1826 82.2874 50.1813 82.2952 50.1813C89.5562 50.1813 96.3533 54.1173 100.15 60.4715C93.7853 61.9464 88.3549 66.1469 85.3544 72.1597C85.1915 72.4841 85.3244 72.8802 85.6488 73.0418C85.7426 73.0887 85.8429 73.1108 85.942 73.1108C86.183 73.1108 86.4149 72.9766 86.5309 72.7473C89.6357 66.5273 95.5013 62.3672 102.263 61.4135C102.281 61.4109 102.3 61.4083 102.317 61.4057C102.533 61.3757 102.749 61.3497 102.968 61.3262C103.011 61.321 103.054 61.3171 103.097 61.3132C103.306 61.2923 103.515 61.2741 103.726 61.2585C103.772 61.2559 103.818 61.2533 103.863 61.2506C104.323 61.2207 104.787 61.2037 105.253 61.2037C105.257 61.2037 105.262 61.2024 105.266 61.2024C116.802 61.2207 126.183 70.5467 126.183 82.0095C126.18 87.4374 124.089 92.5746 120.29 96.4742Z" fill="url(#paint5_linear_650_1686)"/>
<defs>
<linearGradient id="paint0_linear_650_1686" x1="68.5641" y1="157.14" x2="73.5599" y2="28.5907" gradientUnits="userSpaceOnUse">
<stop offset="0.2604" stop-color="#40DFFF" stop-opacity="0"/>
<stop offset="1" stop-color="#40DFFF"/>
</linearGradient>
<radialGradient id="paint1_radial_650_1686" cx="0" cy="0" r="1" gradientUnits="userSpaceOnUse" gradientTransform="translate(14.0787 60.7332) rotate(37.8416) scale(44.8493 43.6752)">
<stop stop-color="#40DFFF"/>
<stop offset="1" stop-color="#40DFFF" stop-opacity="0"/>
</radialGradient>
<radialGradient id="paint2_radial_650_1686" cx="0" cy="0" r="1" gradientUnits="userSpaceOnUse" gradientTransform="translate(31.0589 37.0033) rotate(71.5651) scale(26.8804 26.1766)">
<stop stop-color="#40DFFF"/>
<stop offset="1" stop-color="#40DFFF" stop-opacity="0"/>
</radialGradient>
<linearGradient id="paint3_linear_650_1686" x1="165.729" y1="-2.54787" x2="98.6213" y2="91.2543" gradientUnits="userSpaceOnUse">
<stop offset="0.4626" stop-color="#40DFFF"/>
<stop offset="1" stop-color="#40DFFF" stop-opacity="0"/>
</linearGradient>
<radialGradient id="paint4_radial_650_1686" cx="0" cy="0" r="1" gradientUnits="userSpaceOnUse" gradientTransform="translate(60.0147 45.2342) rotate(84.4789) scale(42.6248 41.5088)">
<stop offset="0.0067815" stop-color="#40DFFF"/>
<stop offset="1" stop-color="#40DFFF" stop-opacity="0"/>
</radialGradient>
<linearGradient id="paint5_linear_650_1686" x1="31.4922" y1="121.382" x2="102.377" y2="50.4972" gradientUnits="userSpaceOnUse">
<stop stop-color="#40DEFF" stop-opacity="0.1"/>
<stop offset="0.766" stop-color="#40DEFF"/>
<stop offset="0.9903" stop-color="#9AF0FC"/>
</linearGradient>
</defs>
</svg>
