<svg width="128" height="130" viewBox="0 0 128 130" fill="none" xmlns="http://www.w3.org/2000/svg">
<path d="M31.6 35C31.6 29.6 36 25.1 41.5 25.1C47 25.1 51.4 29.5 51.4 35C51.4 40.5 47 44.9 41.5 44.9C36 44.9 31.6 40.5 31.6 35ZM74.4 44.8C79.8 44.8 84.3 40.4 84.3 34.9C84.3 29.4 79.9 25 74.4 25C68.9 25 64.5 29.4 64.5 34.9C64.5 40.4 68.9 44.8 74.4 44.8ZM48 61.3C48 66.7 52.4 71.2 57.9 71.2C63.4 71.2 67.8 66.8 67.8 61.3C67.8 55.8 63.4 51.4 57.9 51.4C52.4 51.4 48 55.8 48 61.3ZM48.1 48.1H36.5C30.1 48.1 25 53.3 25 59.6V71.1H34.9V59.6C34.9 58.7 35.6 58 36.5 58H41.8C42.6 54 45 50.5 48.1 48.1ZM97.1 87.1L102.1 90L97.2 98.6L92.2 95.7C90.8 96.9 89.3 97.8 87.5 98.4V104.2H77.6V98.4C75.9 97.8 74.3 96.9 72.9 95.7L67.9 98.6L63 90L68 87.1C67.8 86.2 67.7 85.3 67.7 84.4C67.7 83.5 67.7 82.6 68 81.7L63 78.8L67.9 70.2L72.9 73.1C74.3 71.9 75.8 71 77.6 70.4V64.6H87.5V70.4C89.2 71 90.8 71.9 92.2 73.1L97.2 70.2L102.1 78.8L97.1 81.7C97.3 82.6 97.4 83.5 97.4 84.4C97.4 85.3 97.4 86.2 97.1 87.1ZM87.5 84.3C87.5 81.6 85.3 79.4 82.6 79.4C79.9 79.4 77.7 81.6 77.7 84.3C77.7 87 79.9 89.2 82.6 89.2C85.3 89.2 87.5 87 87.5 84.3ZM38.2 86V97.5H48.1V86C48.1 85.1 48.8 84.4 49.7 84.4H56.3C56.3 80.9 57 77.6 58.2 74.5H49.7C43.4 74.5 38.2 79.7 38.2 86ZM67.7 48.1C70.9 50.5 73.2 53.9 74 58H79.3C79.5 58 79.8 58 79.9 58C80.8 58 81.7 58 82.5 58C85.4 58 88.1 58.5 90.7 59.3C90.5 53.1 85.5 48.1 79.2 48.1H67.6H67.7Z" fill="url(#paint0_linear_254_2)" stroke="url(#paint1_linear_254_2)" stroke-width="2" stroke-miterlimit="10"/>
<defs>
<linearGradient id="paint0_linear_254_2" x1="25" y1="64.6" x2="102.1" y2="64.6" gradientUnits="userSpaceOnUse">
<stop offset="0.2" stop-color="#40E2FF"/>
<stop offset="0.3" stop-color="#40E2FF" stop-opacity="0.7"/>
<stop offset="0.5" stop-color="#40E2FF" stop-opacity="0.5"/>
<stop offset="0.6" stop-color="#40E2FF" stop-opacity="0.4"/>
<stop offset="0.7" stop-color="#40E2FF" stop-opacity="0.3"/>
<stop offset="0.8" stop-color="#40E2FF" stop-opacity="0.2"/>
<stop offset="0.9" stop-color="#40E2FF" stop-opacity="0.1"/>
<stop offset="1" stop-color="#40E2FF" stop-opacity="0.1"/>
</linearGradient>
<linearGradient id="paint1_linear_254_2" x1="24" y1="64.6" x2="103.4" y2="64.6" gradientUnits="userSpaceOnUse">
<stop stop-color="#40E2FF"/>
<stop offset="0.3" stop-color="#40E2FF" stop-opacity="0.8"/>
<stop offset="0.5" stop-color="#40E2FF" stop-opacity="0.7"/>
<stop offset="0.7" stop-color="#40E2FF" stop-opacity="0.4"/>
<stop offset="1" stop-color="#40E2FF" stop-opacity="0.1"/>
</linearGradient>
</defs>
</svg>
