<svg width="142" height="141" viewBox="0 0 142 141" fill="none" xmlns="http://www.w3.org/2000/svg">
<g opacity="0.65">
<path d="M53.2637 45.1322L77.3439 114.166C77.8229 115.541 79.696 115.7 80.4842 114.434L97.2776 87.4517C97.426 87.2122 97.6279 87.012 97.8674 86.8619L124.85 70.0685C126.116 69.2803 125.957 67.4072 124.582 66.9282L55.5479 42.8498C54.1556 42.3636 52.7776 43.7416 53.2637 45.1322Z" fill="url(#paint0_linear_650_1781)"/>
<path d="M54.9686 42.7496C55.158 42.7496 55.3528 42.7818 55.5477 42.8497L124.582 66.9299C125.956 67.4089 126.115 69.282 124.85 70.0702L97.8672 86.8636C97.6277 87.012 97.4276 87.214 97.2774 87.4534L80.484 114.436C80.1212 115.019 79.5296 115.299 78.9505 115.299C78.2695 115.299 77.6029 114.912 77.3437 114.17L53.2635 45.1321C52.8453 43.9364 53.8068 42.7496 54.9686 42.7496ZM54.9686 40.9623C53.8158 40.9623 52.722 41.5343 52.041 42.4941C51.3636 43.4485 51.1938 44.6245 51.5763 45.7219L75.6565 114.756C76.1498 116.17 77.4438 117.085 78.9505 117.085C80.1962 117.085 81.3365 116.447 82.0014 115.38L98.7948 88.3971C98.7984 88.39 98.8038 88.3846 98.8109 88.3811L125.794 71.5876C126.986 70.8459 127.631 69.5251 127.477 68.1417C127.329 66.7977 126.444 65.686 125.17 65.2427L56.1357 41.1607C55.7568 41.0285 55.3636 40.9623 54.9686 40.9623Z" fill="url(#paint1_linear_650_1781)"/>
</g>
<path d="M54.9686 42.7496C55.158 42.7496 55.3528 42.7818 55.5477 42.8497L124.582 66.9299C125.956 67.4089 126.115 69.282 124.85 70.0702L97.8672 86.8636C97.6277 87.012 97.4276 87.214 97.2774 87.4534L80.484 114.436C80.1212 115.019 79.5296 115.299 78.9505 115.299C78.2695 115.299 77.6029 114.912 77.3437 114.17L53.2635 45.1321C52.8453 43.9364 53.8068 42.7496 54.9686 42.7496ZM54.9686 40.9623C53.8158 40.9623 52.722 41.5343 52.041 42.4941C51.3636 43.4485 51.1938 44.6245 51.5763 45.7219L75.6565 114.756C76.1498 116.17 77.4438 117.085 78.9505 117.085C80.1962 117.085 81.3365 116.447 82.0014 115.38L98.7948 88.3971C98.7984 88.39 98.8038 88.3846 98.8109 88.3811L125.794 71.5876C126.986 70.8459 127.631 69.5251 127.477 68.1417C127.329 66.7977 126.444 65.686 125.17 65.2427L56.1357 41.1607C55.7568 41.0285 55.3636 40.9623 54.9686 40.9623Z" fill="url(#paint2_linear_650_1781)"/>
<path opacity="0.4" d="M27.5106 59.0283H15.5V71.0371H27.5106H39.5212V59.0283H27.5106Z" fill="#40E2FF"/>
<path opacity="0.2" d="M39.5214 35.0089H27.5107V47.0177H39.5214V35.0089Z" fill="#40E2FF"/>
<path opacity="0.4" d="M51.5301 83.0478H39.5212V95.0566H51.5301V83.0478Z" fill="#40E2FF"/>
<path opacity="0.6" d="M51.5301 47.0177H39.5212V59.0283H51.5301V47.0177Z" fill="#40E2FF"/>
<path opacity="0.4" d="M51.5301 23H39.5212V35.0107H51.5301V23Z" fill="#40E2FF"/>
<path opacity="0.6" d="M63.5407 95.0566H51.53V107.067H63.5407V95.0566Z" fill="#40E2FF"/>
<path opacity="0.2" d="M51.5301 71.0371H39.5212V83.0478H51.5301H63.5407H64.597L60.4076 71.0371H51.5301Z" fill="#40E2FF"/>
<path opacity="0.6" d="M60.4075 71.0371L56.2181 59.0283H51.53V71.0371H60.4075Z" fill="#40E2FF"/>
<path opacity="0.4" d="M75.5495 47.0177H72.9275L75.5495 47.9328V47.0177Z" fill="#40E2FF"/>
<path opacity="0.2" d="M87.5602 35.0089H75.5496V47.0177H87.5602V35.0089Z" fill="#40E2FF"/>
<path opacity="0.6" d="M99.5689 56.3116V47.0177H87.5601V52.1222L99.5689 56.3116Z" fill="#40E2FF"/>
<defs>
<linearGradient id="paint0_linear_650_1781" x1="53.1643" y1="79.0232" x2="125.711" y2="79.0232" gradientUnits="userSpaceOnUse">
<stop stop-color="#40E2FF"/>
<stop offset="1" stop-color="#40E2FF" stop-opacity="0.1"/>
</linearGradient>
<linearGradient id="paint1_linear_650_1781" x1="51.3751" y1="79.0232" x2="127.499" y2="79.0232" gradientUnits="userSpaceOnUse">
<stop stop-color="#40E2FF"/>
<stop offset="1" stop-color="#40E2FF" stop-opacity="0.1"/>
</linearGradient>
<linearGradient id="paint2_linear_650_1781" x1="94.6402" y1="47.5439" x2="60.3666" y2="106.908" gradientUnits="userSpaceOnUse">
<stop stop-color="#9AF0FC"/>
<stop offset="0.0723" stop-color="#74EAFD"/>
<stop offset="0.1542" stop-color="#4EE4FF"/>
<stop offset="0.1975" stop-color="#40E2FF"/>
<stop offset="1" stop-color="#40E2FF" stop-opacity="0.1"/>
</linearGradient>
</defs>
</svg>
