<svg width="142" height="141" viewBox="0 0 142 141" fill="none" xmlns="http://www.w3.org/2000/svg">
<path opacity="0.6" d="M52.1622 54.6681C52.1897 54.575 52.2172 54.4798 52.2468 54.3867C52.2722 54.3063 52.2997 54.2281 52.3251 54.1498C52.361 54.0419 52.3949 53.9319 52.4308 53.824C52.4562 53.7478 52.4858 53.6717 52.5112 53.5955C52.5493 53.4855 52.5874 53.3755 52.6276 53.2676C52.6551 53.1915 52.6868 53.1153 52.7143 53.0392C52.7545 52.9313 52.7947 52.8234 52.837 52.7176C52.8666 52.6414 52.9005 52.5653 52.9322 52.487C52.9745 52.3812 53.0168 52.2776 53.0613 52.1739C53.0951 52.0956 53.1289 52.0195 53.1628 51.9433C53.2072 51.8418 53.2516 51.7381 53.2982 51.6366C53.3341 51.5562 53.3722 51.4779 53.4103 51.3997C53.4568 51.3023 53.5013 51.205 53.5478 51.1077C53.588 51.0273 53.6282 50.9469 53.6684 50.8644C53.7149 50.7714 53.7615 50.6762 53.808 50.5831C53.8503 50.5006 53.8948 50.4202 53.9371 50.3398C53.9857 50.2488 54.0323 50.1579 54.0809 50.0669C54.1232 49.9886 54.1676 49.9104 54.2121 49.8342C54.2628 49.7432 54.3136 49.6502 54.3665 49.5592C54.4109 49.4809 54.4575 49.4069 54.504 49.3286C54.5569 49.2376 54.6098 49.1488 54.6648 49.0578C54.7134 48.9774 54.7642 48.8992 54.815 48.8188C54.8679 48.7341 54.9208 48.6495 54.9736 48.5649C55.0244 48.4866 55.0773 48.4084 55.1281 48.3301C55.1831 48.2476 55.2381 48.163 55.2931 48.0805C55.346 48.0022 55.401 47.926 55.456 47.8478C55.5131 47.7674 55.5681 47.6849 55.6252 47.6045C55.6802 47.5262 55.7373 47.45 55.7945 47.3739C55.8516 47.2956 55.9087 47.2152 55.9679 47.137C56.025 47.0608 56.0864 46.9846 56.1435 46.9064C56.2027 46.8302 56.2599 46.7519 56.3212 46.6779C56.3826 46.6017 56.4439 46.5256 56.5074 46.4494C56.5666 46.3754 56.6258 46.3013 56.6872 46.2273C56.7485 46.1533 56.8141 46.0792 56.8755 46.0052C56.9368 45.9332 56.9982 45.8592 57.0616 45.7873C57.1272 45.7132 57.1928 45.6392 57.2584 45.5673C57.3218 45.4975 57.3832 45.4255 57.4466 45.3557C57.5143 45.2817 57.582 45.2119 57.6497 45.1399C57.7132 45.0701 57.7788 45.0024 57.8422 44.9326C57.9099 44.8607 57.9819 44.7909 58.0496 44.7211C58.1151 44.6534 58.1807 44.5857 58.2463 44.5201C58.3182 44.4503 58.3902 44.3805 58.4621 44.3107C58.5277 44.2451 58.5954 44.1795 58.6631 44.116C58.735 44.0483 58.809 43.9807 58.8831 43.913C58.9508 43.8495 59.0185 43.786 59.0883 43.7226C59.1644 43.6549 59.2406 43.5872 59.3167 43.5216C59.3844 43.4602 59.4542 43.3989 59.5219 43.3397C59.6002 43.272 59.6785 43.2085 59.7568 43.1429C59.8266 43.0837 59.8943 43.0245 59.9662 42.9673C60.0445 42.9018 60.1249 42.8404 60.2052 42.7748C60.2772 42.7177 60.347 42.6606 60.4189 42.6035C60.4993 42.5421 60.5797 42.4808 60.6601 42.4194C60.7341 42.3644 60.806 42.3073 60.8801 42.2523C60.9605 42.1931 61.043 42.1338 61.1234 42.0746C61.1974 42.0196 61.2736 41.9646 61.3497 41.9117C61.4322 41.8525 61.5147 41.7975 61.5993 41.7404C61.6755 41.6875 61.7517 41.6346 61.8278 41.5838C61.9124 41.5267 61.9992 41.4717 62.0838 41.4167C62.1599 41.3659 62.2361 41.3151 62.3144 41.2665C62.399 41.2115 62.4857 41.1586 62.5725 41.1057C62.6507 41.0571 62.729 41.0063 62.8073 40.9597C62.894 40.9069 62.9808 40.8582 63.0654 40.8074C63.1458 40.7609 63.2261 40.7122 63.3087 40.6657C63.3954 40.6149 63.4842 40.5684 63.571 40.5197C63.6535 40.4732 63.7339 40.4266 63.8185 40.3822C63.9073 40.3336 63.9983 40.287 64.0871 40.2405C64.1697 40.1961 64.2522 40.1537 64.3347 40.1093C64.4256 40.0628 64.5166 40.0184 64.6097 39.9739C64.6922 39.9337 64.7747 39.8914 64.8593 39.8512C64.9524 39.8068 65.0455 39.7645 65.1385 39.7201C65.2232 39.682 65.3057 39.6418 65.3903 39.6037C65.4834 39.5614 65.5765 39.5233 65.6695 39.481C65.7563 39.4429 65.843 39.4049 65.9297 39.3689C66.0228 39.3287 66.118 39.2927 66.2132 39.2526C66.2999 39.2166 66.3867 39.1806 66.4734 39.1468C66.5686 39.1087 66.6659 39.0727 66.7611 39.0368C66.85 39.0029 66.9367 38.9691 67.0256 38.9373C67.1208 38.9014 67.2181 38.8696 67.3154 38.8358C67.4042 38.8041 67.4931 38.7723 67.584 38.7427C67.6792 38.711 67.7766 38.6793 67.8739 38.6496C67.9648 38.62 68.0558 38.5904 68.1489 38.5608C68.2462 38.5312 68.3435 38.5037 68.4408 38.474C68.5339 38.4465 68.6249 38.4191 68.7179 38.3915C68.8174 38.364 68.9168 38.3387 69.0162 38.3112C69.1093 38.2858 69.2003 38.2604 69.2934 38.2371C69.3928 38.2117 69.4922 38.1885 69.5916 38.1652C69.6868 38.1419 69.7799 38.1186 69.8751 38.0975C69.9745 38.0742 70.0761 38.0531 70.1755 38.0319C70.2707 38.0108 70.3659 37.9896 70.4611 37.9706C70.5626 37.9494 70.6642 37.9325 70.7657 37.9134C70.8609 37.8944 70.9582 37.8754 71.0534 37.8584C71.155 37.8415 71.2565 37.8246 71.3581 37.8077C71.4554 37.7907 71.5527 37.7759 71.65 37.7611C71.7515 37.7463 71.8531 37.7315 71.9546 37.7188C72.0541 37.7061 72.1514 37.6913 72.2508 37.6786C72.3523 37.6659 72.456 37.6554 72.5575 37.6427C72.657 37.6321 72.7564 37.6194 72.8558 37.6088C72.9595 37.5982 73.0631 37.5898 73.1668 37.5813C73.2662 37.5729 73.3657 37.5623 73.4651 37.5559C73.5687 37.5475 73.6745 37.5432 73.7782 37.5369C73.8776 37.5305 73.9791 37.5242 74.0786 37.5179C74.1843 37.5136 74.2901 37.5094 74.3959 37.5052C74.4974 37.5009 74.5969 37.4967 74.6984 37.4946C74.8042 37.4925 74.91 37.4925 75.0157 37.4904C75.1067 37.4904 75.1977 37.4861 75.2886 37.4861C75.3119 37.4861 75.3331 37.4861 75.3563 37.4861C88.6923 37.5221 99.4749 48.3639 99.4369 61.6999C99.4369 62.0955 99.4242 62.4911 99.4051 62.8825C99.4051 62.9015 99.403 62.9206 99.403 62.9417C99.3946 63.1067 99.3819 63.2696 99.3713 63.4346C99.3692 63.4748 99.3671 63.515 99.3628 63.5573C99.3523 63.6948 99.3374 63.8323 99.3248 63.9699C99.3184 64.0354 99.3142 64.1031 99.3057 64.1687C99.293 64.2978 99.2761 64.4289 99.2613 64.558C99.2528 64.6299 99.2444 64.7039 99.2359 64.7759C99.219 64.9028 99.1999 65.0297 99.1809 65.1566C99.1703 65.2307 99.1619 65.3047 99.1492 65.3767C99.1322 65.4909 99.1111 65.603 99.092 65.7151C99.0772 65.8019 99.0646 65.8865 99.0476 65.9732C99.0286 66.079 99.0074 66.1848 98.9863 66.2905C98.9693 66.3815 98.9524 66.4725 98.9334 66.5634C98.9101 66.6713 98.8868 66.7792 98.8615 66.8871C98.8424 66.9738 98.8234 67.0627 98.8043 67.1494C98.779 67.2531 98.7536 67.3589 98.7282 67.4625C98.707 67.5514 98.6859 67.6423 98.6626 67.7312C98.6351 67.837 98.6055 67.9427 98.5759 68.0485C98.5526 68.1352 98.5293 68.2199 98.5061 68.3066C98.4743 68.4166 98.4405 68.5266 98.4066 68.6366C98.3834 68.717 98.3601 68.7974 98.3347 68.8757C98.3008 68.9836 98.2649 69.0893 98.231 69.1951C98.2035 69.2755 98.1782 69.358 98.1507 69.4405C98.1147 69.5442 98.0787 69.6457 98.0407 69.7472C98.011 69.8297 97.9835 69.9144 97.9518 69.9969C97.9137 70.1005 97.8735 70.2042 97.8333 70.3078C97.8016 70.3882 97.7741 70.4686 97.7424 70.5469C97.7022 70.6484 97.6599 70.75 97.6176 70.8515C97.5837 70.9319 97.552 71.0123 97.5181 71.0927C97.4758 71.1942 97.4293 71.2937 97.3848 71.3952C97.351 71.4735 97.3172 71.5518 97.2812 71.63C97.2368 71.7295 97.1881 71.8289 97.1416 71.9283C97.1056 72.0066 97.0696 72.0849 97.0316 72.161C96.985 72.2583 96.9342 72.3556 96.8856 72.4529C96.8475 72.5291 96.8094 72.6074 96.7692 72.6835C96.7185 72.7808 96.6656 72.8782 96.6148 72.9755C96.5746 73.0495 96.5366 73.1257 96.4964 73.1997C96.4435 73.297 96.3885 73.3901 96.3356 73.4874C96.2933 73.5615 96.2531 73.6355 96.2108 73.7095C96.1558 73.8047 96.1008 73.8978 96.0436 73.9909C95.9992 74.0649 95.9569 74.1369 95.9125 74.2109C95.8554 74.3019 95.7982 74.3928 95.7411 74.4838C95.6946 74.5578 95.6502 74.6298 95.6036 74.7038C95.5444 74.7948 95.4851 74.8836 95.4259 74.9725C95.3794 75.0444 95.3307 75.1163 95.2842 75.1883C95.2228 75.2792 95.1594 75.3681 95.0959 75.459C95.0472 75.5267 95.0007 75.5966 94.952 75.6642C94.8886 75.7531 94.823 75.8419 94.7574 75.9308C94.7088 75.9985 94.6601 76.0662 94.6093 76.1318C94.5438 76.2206 94.474 76.3074 94.4063 76.3962C94.3555 76.4618 94.3068 76.5274 94.2561 76.5908C94.1884 76.6776 94.1186 76.7622 94.0487 76.8468C93.9958 76.9124 93.9451 76.978 93.8922 77.0414C93.8245 77.1239 93.7526 77.2043 93.6849 77.2868C93.6299 77.3524 93.5749 77.418 93.5177 77.4836C93.4479 77.5639 93.3739 77.6443 93.302 77.7247C93.2449 77.7882 93.1898 77.8517 93.1327 77.9151C93.0587 77.9955 92.9846 78.0738 92.9106 78.152C92.8535 78.2134 92.7964 78.2769 92.7371 78.3382C92.6631 78.4165 92.5869 78.4926 92.5108 78.5709C92.4515 78.6323 92.3923 78.6915 92.3331 78.7528C92.2569 78.829 92.1786 78.9052 92.1004 78.9792C92.039 79.0384 91.9798 79.0977 91.9184 79.1569C91.8402 79.2309 91.7598 79.305 91.6794 79.379C91.618 79.4362 91.5567 79.4933 91.4932 79.5504C91.4128 79.6223 91.3303 79.6942 91.2499 79.7662C91.1865 79.8212 91.123 79.8783 91.0596 79.9333C90.9792 80.0031 90.8967 80.0708 90.8142 80.1406C90.7486 80.1956 90.683 80.2527 90.6174 80.3056C90.5349 80.3733 90.4503 80.441 90.3657 80.5087C90.3001 80.5616 90.2324 80.6166 90.1668 80.6674C90.0822 80.7351 89.9955 80.7985 89.9087 80.8641C89.841 80.9149 89.7755 80.9678 89.7056 81.0185C89.6189 81.0841 89.5301 81.1455 89.4433 81.2089C89.3735 81.2597 89.3058 81.3105 89.236 81.3591C89.1493 81.4205 89.0604 81.4818 88.9716 81.5411C88.8997 81.5897 88.8298 81.6405 88.7579 81.6891C88.6691 81.7484 88.5802 81.8055 88.4914 81.8647C88.4194 81.9113 88.3454 81.9599 88.2735 82.0086C88.1846 82.0657 88.0937 82.1207 88.0048 82.1757C87.9286 82.2222 87.8546 82.2709 87.7784 82.3153C87.6896 82.3703 87.5986 82.4211 87.5077 82.4761C87.4315 82.5205 87.3553 82.5671 87.2771 82.6115C87.1861 82.6644 87.093 82.7151 87.0021 82.7659C86.9238 82.8082 86.8455 82.8527 86.7672 82.895C86.6742 82.9457 86.5811 82.9923 86.4901 83.0409C86.4097 83.0832 86.3314 83.1255 86.2511 83.1657C86.158 83.2144 86.0628 83.2588 85.9676 83.3054C85.8872 83.3456 85.8068 83.3857 85.7264 83.4238C85.6312 83.4704 85.536 83.5127 85.4387 83.5571C85.3562 83.5952 85.2758 83.6333 85.1933 83.6713C85.0981 83.7137 85.0008 83.756 84.9056 83.7962C84.8231 83.8321 84.7385 83.8702 84.656 83.904C84.5608 83.9442 84.4635 83.9823 84.3683 84.0225C84.2837 84.0564 84.1969 84.0923 84.1123 84.1262C84.015 84.1642 83.9177 84.2002 83.8204 84.2383C83.7336 84.27 83.649 84.3039 83.5623 84.3356C83.484 84.3631 83.4057 84.3906 83.3296 84.4181C83.2936 84.4329 83.2577 84.4477 83.2196 84.4604C82.7944 84.6064 82.3438 84.7502 81.8551 84.8877C81.4341 85.0062 80.9687 85.1226 80.4673 85.2326C80.4483 85.2368 80.4271 85.241 80.4081 85.2453C80.315 85.2664 80.2219 85.2855 80.1267 85.3045C80.1077 85.3087 80.0865 85.313 80.0654 85.3151C80.0125 85.3256 79.9575 85.3362 79.9046 85.3468C79.875 85.3532 79.8454 85.3574 79.8179 85.3637C79.7227 85.3807 79.6296 85.3997 79.5344 85.4166C79.4667 85.4293 79.399 85.4399 79.3313 85.4505C79.3144 85.4526 79.2996 85.4547 79.2827 85.4589C79.2636 85.4611 79.2446 85.4653 79.2256 85.4674C79.1304 85.4822 79.033 85.4991 78.9378 85.5139C78.8342 85.5287 78.7305 85.5435 78.6269 85.5562C78.5296 85.5689 78.4322 85.5837 78.3349 85.5964C78.2313 85.6091 78.1276 85.6197 78.024 85.6324C77.9245 85.643 77.8272 85.6557 77.7278 85.6662C77.6241 85.6768 77.5205 85.6853 77.4168 85.6937C77.3174 85.7022 77.218 85.7128 77.1185 85.7191C77.0149 85.7276 76.9091 85.7318 76.8033 85.7382C76.7039 85.7445 76.6045 85.7509 76.5029 85.7572C76.3971 85.7614 76.2914 85.7657 76.1877 85.7699C76.0925 85.7741 75.9994 85.7784 75.9042 85.7805C75.6737 85.7911 75.4346 85.7974 75.1892 85.7974C74.8825 85.7974 74.5651 85.7868 74.2394 85.7699C72.6443 85.7064 71.0513 85.478 69.4012 85.0718C69.3949 85.0697 69.3907 85.0697 69.3843 85.0676H69.3822C69.3737 85.0654 69.3674 85.0633 69.3589 85.0612C69.3124 85.0506 69.2701 85.0316 69.2257 85.0189C69.2214 85.0168 69.2193 85.0168 69.2151 85.0147C62.0436 83.1552 56.1689 78.0822 53.2136 71.4269C52.818 71.3973 52.4224 71.3825 52.0247 71.3825C49.5369 71.3825 47.1316 71.941 44.8786 73.0389C42.3336 74.2807 40.2055 76.1191 38.6337 78.3805C39.1245 79.4383 39.6597 80.4706 40.2372 81.4776L36.4209 85.2728C35.8306 85.8609 35.8285 86.8234 36.4145 87.4136L49.3845 100.456C49.4015 100.473 49.4205 100.487 49.4374 100.504C49.4586 100.523 49.4776 100.542 49.4988 100.559C49.5136 100.572 49.5305 100.583 49.5453 100.593C49.5707 100.612 49.5961 100.631 49.6215 100.65C49.6363 100.661 49.6511 100.667 49.668 100.678C49.6955 100.695 49.723 100.712 49.7505 100.726C49.7674 100.735 49.7844 100.741 49.8013 100.75C49.8288 100.762 49.8563 100.777 49.8838 100.788C49.9028 100.796 49.924 100.803 49.9451 100.809C49.9705 100.817 49.998 100.828 50.0234 100.836C50.0467 100.843 50.07 100.847 50.0932 100.853C50.1165 100.86 50.1419 100.866 50.1652 100.87C50.1905 100.874 50.2159 100.877 50.2392 100.881C50.2625 100.885 50.2857 100.889 50.309 100.891C50.3344 100.893 50.3577 100.893 50.383 100.896C50.4063 100.898 50.4317 100.9 50.455 100.9C50.4825 100.9 50.5079 100.898 50.5354 100.896C50.5565 100.893 50.5798 100.896 50.6009 100.893C50.6263 100.891 50.6538 100.887 50.6792 100.883C50.7004 100.879 50.7236 100.879 50.7448 100.874C50.7723 100.87 50.7977 100.862 50.8252 100.855C50.8463 100.851 50.8654 100.847 50.8865 100.841C50.914 100.832 50.9415 100.822 50.969 100.813C50.9881 100.807 51.0071 100.8 51.0262 100.794C51.0558 100.783 51.0833 100.769 51.1108 100.756C51.1277 100.748 51.1446 100.741 51.1594 100.733C51.1869 100.718 51.2123 100.701 51.2398 100.686C51.2567 100.676 51.2737 100.667 51.2885 100.657C51.3096 100.642 51.3308 100.627 51.3519 100.61C51.371 100.595 51.3921 100.583 51.4112 100.566C51.4239 100.555 51.4344 100.542 51.4471 100.532C51.4725 100.508 51.5 100.487 51.5254 100.462L54.5654 97.4389C54.1782 95.9877 54.4025 94.437 55.219 93.1318C56.2302 91.5134 57.9671 90.5488 59.8646 90.5488C59.9958 90.5488 60.127 90.553 60.2602 90.5636L87.4463 92.4633C89.4264 92.6008 91.1273 93.7495 91.9988 95.5329C92.3162 96.1844 92.4981 96.872 92.5467 97.5616C93.2597 97.2125 93.962 96.8466 94.6516 96.4573L98.6689 100.498C98.6859 100.515 98.7049 100.53 98.7218 100.547C98.743 100.566 98.762 100.585 98.7832 100.604C98.8001 100.618 98.8192 100.629 98.8361 100.642C98.8594 100.659 98.8826 100.678 98.9059 100.693C98.9249 100.705 98.944 100.716 98.9651 100.726C98.9884 100.741 99.0117 100.756 99.0349 100.769C99.054 100.779 99.073 100.786 99.092 100.796C99.1174 100.809 99.1428 100.822 99.1682 100.832C99.1872 100.841 99.2084 100.847 99.2274 100.853C99.2528 100.862 99.2803 100.872 99.3057 100.881C99.3269 100.887 99.348 100.891 99.3671 100.896C99.3946 100.902 99.4199 100.91 99.4474 100.915C99.4686 100.919 99.4898 100.921 99.5109 100.923C99.5384 100.927 99.5659 100.932 99.5934 100.936C99.6146 100.938 99.6378 100.938 99.659 100.94C99.6865 100.942 99.7119 100.944 99.7394 100.944C99.7648 100.944 99.7902 100.942 99.8134 100.94C99.8367 100.938 99.86 100.938 99.8832 100.936C99.9086 100.934 99.934 100.929 99.9594 100.925C99.9827 100.921 100.006 100.919 100.027 100.915C100.052 100.91 100.076 100.902 100.101 100.898C100.124 100.891 100.148 100.887 100.169 100.881C100.192 100.874 100.213 100.866 100.237 100.858C100.26 100.849 100.283 100.843 100.306 100.832C100.33 100.824 100.353 100.811 100.376 100.8C100.397 100.79 100.421 100.781 100.442 100.771C100.463 100.76 100.484 100.745 100.507 100.733C100.528 100.72 100.552 100.709 100.571 100.695C100.588 100.684 100.605 100.669 100.622 100.659C100.645 100.642 100.67 100.625 100.693 100.606C100.706 100.595 100.719 100.583 100.734 100.57C100.759 100.549 100.784 100.525 100.81 100.502L113.852 87.5321C114.442 86.944 114.444 85.9815 113.858 85.3912L109.837 81.3464C111.362 78.6703 112.589 75.8018 113.471 72.783L119.244 72.7999C119.272 72.7999 119.297 72.7978 119.322 72.7957C119.348 72.7935 119.375 72.7935 119.401 72.7914C119.426 72.7893 119.451 72.783 119.477 72.7808C119.5 72.7766 119.525 72.7745 119.549 72.7703C119.574 72.766 119.597 72.7576 119.623 72.7512C119.646 72.7449 119.669 72.7406 119.693 72.7322C119.718 72.7237 119.741 72.7153 119.765 72.7068C119.788 72.6983 119.809 72.692 119.832 72.6814C119.856 72.6708 119.879 72.6581 119.902 72.6476C119.923 72.637 119.944 72.6285 119.963 72.618C119.987 72.6053 120.008 72.5904 120.029 72.5778C120.048 72.5651 120.069 72.5545 120.088 72.5418C120.111 72.527 120.133 72.5101 120.154 72.4931C120.171 72.4804 120.188 72.4699 120.205 72.4551C120.228 72.436 120.249 72.417 120.27 72.3958C120.285 72.3831 120.3 72.3704 120.312 72.3577C120.334 72.3366 120.353 72.3154 120.372 72.2922C120.384 72.2774 120.397 72.2647 120.41 72.2499C120.427 72.2287 120.441 72.2076 120.456 72.1864C120.469 72.1695 120.484 72.1504 120.496 72.1335C120.509 72.1145 120.522 72.0933 120.532 72.0743C120.545 72.0531 120.56 72.032 120.573 72.0108C120.583 71.9897 120.594 71.9685 120.602 71.9473C120.613 71.9241 120.626 71.9008 120.636 71.8775C120.645 71.8585 120.651 71.8394 120.657 71.8204C120.668 71.7929 120.678 71.7675 120.687 71.7379C120.691 71.7252 120.693 71.7104 120.697 71.6956C120.708 71.6618 120.717 71.6279 120.725 71.594V71.5919C120.746 71.4946 120.757 71.3931 120.757 71.2915L120.807 52.8974C120.81 52.0639 120.131 51.3827 119.297 51.3785L113.767 51.3637C112.923 48.1312 111.683 45.0596 110.107 42.1994L113.888 38.4402C114.478 37.8521 114.48 36.8896 113.894 36.2993L100.924 23.2574C100.888 23.2214 100.85 23.1855 100.81 23.1537C100.803 23.1495 100.797 23.1453 100.793 23.141C100.759 23.1135 100.723 23.0881 100.687 23.0628C100.677 23.0543 100.664 23.0501 100.651 23.0416C100.619 23.0226 100.59 23.0035 100.558 22.9866C100.543 22.9781 100.528 22.9739 100.516 22.9654C100.486 22.9506 100.454 22.9358 100.425 22.9231C100.41 22.9168 100.393 22.9126 100.378 22.9062C100.349 22.8956 100.317 22.8829 100.287 22.8745C100.268 22.8681 100.251 22.866 100.232 22.8618C100.203 22.8533 100.175 22.847 100.146 22.8406C100.127 22.8364 100.107 22.8343 100.086 22.8322C100.059 22.8279 100.029 22.8216 99.9996 22.8195C99.9784 22.8174 99.9573 22.8174 99.9361 22.8152C99.9086 22.8131 99.8811 22.811 99.8557 22.811C99.8303 22.811 99.805 22.8131 99.7796 22.8152C99.7563 22.8174 99.733 22.8174 99.7119 22.8195C99.6844 22.8216 99.6569 22.8279 99.6294 22.8301C99.6082 22.8322 99.5871 22.8343 99.568 22.8385C99.5405 22.8449 99.5109 22.8512 99.4834 22.8597C99.4644 22.8639 99.4453 22.8681 99.4263 22.8745C99.3988 22.8829 99.3692 22.8935 99.3417 22.9041C99.3226 22.9104 99.3057 22.9168 99.2867 22.9231C99.257 22.9358 99.2296 22.9485 99.1999 22.9633C99.1851 22.9718 99.1682 22.9781 99.1534 22.9845C99.1217 23.0014 99.0942 23.0183 99.0624 23.0374C99.0497 23.0458 99.037 23.0522 99.0243 23.0606C98.9884 23.0839 98.9545 23.1093 98.9207 23.1368C98.9143 23.141 98.908 23.1453 98.9017 23.1495C98.8615 23.1812 98.8234 23.2151 98.7874 23.2531L95.1424 26.877C92.4177 25.2904 89.4878 24.0168 86.4034 23.103L86.4182 17.6915C86.4203 16.858 85.7412 16.1769 84.9077 16.1726L66.5136 16.1219C66.4861 16.1219 66.4586 16.124 66.4311 16.1261C66.4057 16.1282 66.3825 16.1282 66.3571 16.1303C66.3274 16.1324 66.2999 16.1388 66.2724 16.143C66.2513 16.1472 66.2301 16.1494 66.209 16.1536C66.1772 16.1599 66.1476 16.1684 66.118 16.1769C66.1011 16.1811 66.0821 16.1853 66.0651 16.1896C66.0334 16.2001 66.0017 16.2128 65.972 16.2234C65.9572 16.2297 65.9424 16.234 65.9276 16.2403C65.8959 16.2551 65.8642 16.2699 65.8324 16.2869C65.8197 16.2932 65.807 16.2974 65.7965 16.3038C65.7647 16.3207 65.7351 16.3398 65.7034 16.3609C65.6928 16.3673 65.6822 16.3736 65.6716 16.3799C65.6399 16.4011 65.6103 16.4244 65.5807 16.4476C65.5722 16.454 65.5638 16.4603 65.5553 16.4667C65.5236 16.4921 65.4939 16.5196 65.4664 16.5471C65.4601 16.5534 65.4538 16.5576 65.4474 16.564C65.4178 16.5936 65.3882 16.6253 65.3607 16.6571C65.3564 16.6613 65.3522 16.6655 65.348 16.6698C65.3205 16.7036 65.2951 16.7375 65.2718 16.7713C65.2676 16.7755 65.2655 16.7798 65.2612 16.7861C65.2359 16.8221 65.2147 16.8602 65.1914 16.8982C65.1893 16.9025 65.1872 16.9067 65.1851 16.9109C65.1639 16.9511 65.1428 16.9934 65.1237 17.0357C65.1216 17.0379 65.1216 17.04 65.1195 17.0421C65.0412 17.2219 64.9989 17.4208 64.9989 17.6302L64.9841 22.7158C63.7085 23.0437 62.4603 23.433 61.2376 23.8814C60.4231 24.1797 59.6214 24.5034 58.8323 24.8525C58.4388 25.0259 58.0474 25.2079 57.6582 25.394C56.8818 25.7663 56.1202 26.1641 55.3735 26.585L51.8364 23.0289C51.8004 22.9929 51.7623 22.957 51.7222 22.9253C51.7179 22.921 51.7116 22.9168 51.7073 22.9147C51.6735 22.8872 51.6375 22.8597 51.6016 22.8364C51.5931 22.8301 51.5846 22.8279 51.5762 22.8216C51.5423 22.8004 51.5085 22.7793 51.4725 22.7602C51.4598 22.7539 51.4471 22.7497 51.4344 22.7433C51.4027 22.7285 51.371 22.7116 51.3371 22.6989C51.3223 22.6925 51.3075 22.6883 51.2927 22.6841C51.261 22.6735 51.2314 22.6608 51.1996 22.6524C51.1827 22.6481 51.1658 22.6439 51.1489 22.6397C51.1192 22.6312 51.0875 22.6227 51.0579 22.6164C51.0367 22.6122 51.0177 22.61 50.9965 22.6079C50.969 22.6037 50.9415 22.5995 50.914 22.5952C50.8908 22.5931 50.8675 22.5931 50.8442 22.591C50.8188 22.5889 50.7935 22.5868 50.7681 22.5868C50.7406 22.5868 50.7131 22.5889 50.6856 22.591C50.6644 22.5931 50.6433 22.591 50.6221 22.5931C50.5925 22.5952 50.565 22.6016 50.5354 22.6058C50.5163 22.6079 50.4973 22.61 50.4782 22.6143C50.4465 22.6206 50.4148 22.6291 50.383 22.6375C50.3682 22.6418 50.3513 22.6439 50.3365 22.6481C50.3027 22.6587 50.2709 22.6693 50.2371 22.682C50.2244 22.6862 50.2096 22.6904 50.1969 22.6968C50.1609 22.7116 50.1271 22.7285 50.0932 22.7454C50.0826 22.7497 50.0721 22.7539 50.0636 22.7602C50.0277 22.7793 49.9938 22.7983 49.9621 22.8195C49.9536 22.8258 49.9451 22.8301 49.9367 22.8343C49.905 22.8554 49.8732 22.8787 49.8415 22.9041C49.833 22.9104 49.8224 22.9168 49.814 22.9231C49.7738 22.9549 49.7357 22.9887 49.6998 23.0268L36.6578 35.9968C36.0676 36.5849 36.0655 37.5475 36.6515 38.1377L40.1822 41.6896C38.5025 44.6322 37.1845 47.8076 36.2897 51.1564L31.35 51.1437C31.3225 51.1437 31.295 51.1458 31.2675 51.1479C31.2422 51.15 31.2189 51.15 31.1935 51.1521C31.1639 51.1543 31.1364 51.1606 31.1089 51.1648C31.0877 51.1691 31.0666 51.1712 31.0454 51.1754C31.0158 51.1818 30.9862 51.1902 30.9566 51.1987C30.9375 51.2029 30.9185 51.2071 30.8995 51.2135C30.8677 51.2241 30.8381 51.2346 30.8064 51.2473C30.7916 51.2537 30.7746 51.2579 30.7598 51.2643C30.7281 51.277 30.6985 51.2939 30.6689 51.3087C30.6562 51.315 30.6414 51.3214 30.6287 51.3277C30.5969 51.3447 30.5673 51.3637 30.5377 51.3827C30.5271 51.3891 30.5144 51.3954 30.5039 51.4039C30.4721 51.425 30.4425 51.4483 30.4129 51.4716C30.4044 51.4779 30.396 51.4843 30.3875 51.4906C30.3558 51.516 30.3262 51.5435 30.2987 51.571C30.2923 51.5774 30.286 51.5816 30.2796 51.5879C30.25 51.6175 30.2204 51.6493 30.1929 51.681C30.1886 51.6852 30.1844 51.6895 30.1802 51.6937C30.1527 51.7276 30.1273 51.7614 30.104 51.7952C30.0998 51.7995 30.0977 51.8037 30.0935 51.8101C30.0681 51.846 30.0469 51.8841 30.0236 51.9222C30.0215 51.9264 30.0194 51.9306 30.0173 51.9349C29.9961 51.9751 29.975 52.0174 29.9559 52.0597C29.9538 52.0618 29.9538 52.0639 29.9517 52.066C29.8734 52.2458 29.8311 52.4447 29.8311 52.6541L29.8015 63.6144C32.1814 61.3742 34.9104 59.4808 37.9334 58.0084C42.414 55.7999 47.2056 54.6829 52.1622 54.6681Z" fill="url(#paint0_linear_650_1628)"/>
<path opacity="0.6" d="M83.8141 84.2255C83.9114 84.1896 84.0108 84.1515 84.106 84.1134C84.1928 84.0796 84.2774 84.0436 84.362 84.0098C84.4572 83.9717 84.5545 83.9315 84.6497 83.8913C84.7343 83.8553 84.8168 83.8194 84.8993 83.7834C84.9945 83.7411 85.0918 83.7009 85.187 83.6586C85.2695 83.6226 85.3499 83.5824 85.4324 83.5443C85.5276 83.4999 85.625 83.4555 85.7201 83.4111C85.8005 83.373 85.8809 83.3328 85.9613 83.2926C86.0565 83.2461 86.1517 83.1995 86.2448 83.153C86.3252 83.1128 86.4034 83.0705 86.4838 83.0282C86.5769 82.9795 86.67 82.9309 86.761 82.8822C86.8392 82.8399 86.9175 82.7955 86.9958 82.7532C87.0867 82.7024 87.1798 82.6516 87.2708 82.5987C87.3491 82.5543 87.4252 82.5078 87.5014 82.4633C87.5923 82.4104 87.6833 82.3576 87.7722 82.3026C87.8483 82.256 87.9224 82.2095 87.9985 82.1629C88.0874 82.1079 88.1783 82.0529 88.2672 81.9958C88.3412 81.9493 88.4131 81.9006 88.4851 81.852C88.5739 81.7927 88.6649 81.7356 88.7516 81.6764C88.8236 81.6277 88.8934 81.5791 88.9653 81.5283C89.0541 81.4669 89.143 81.4077 89.2297 81.3464C89.2995 81.2977 89.3672 81.2469 89.437 81.1962C89.5259 81.1327 89.6126 81.0692 89.6994 81.0058C89.7671 80.955 89.8348 80.9021 89.9024 80.8513C89.9892 80.7858 90.0759 80.7202 90.1605 80.6546C90.2282 80.6017 90.2938 80.5488 90.3594 80.4959C90.444 80.4282 90.5286 80.3627 90.6111 80.2929C90.6767 80.2379 90.7423 80.1828 90.8079 80.1278C90.8904 80.058 90.9729 79.9903 91.0533 79.9205C91.1167 79.8655 91.1802 79.8084 91.2437 79.7534C91.3241 79.6815 91.4066 79.6096 91.4869 79.5376C91.5504 79.4805 91.6096 79.4234 91.6731 79.3663C91.7535 79.2922 91.8339 79.2182 91.9122 79.1441C91.9735 79.0849 92.0327 79.0257 92.0941 78.9664C92.1724 78.8903 92.2506 78.8162 92.3268 78.7401C92.386 78.6809 92.4453 78.6195 92.5045 78.5582C92.5806 78.482 92.6568 78.4037 92.7308 78.3255C92.7901 78.2641 92.8472 78.2028 92.9043 78.1393C92.9784 78.061 93.0524 77.9827 93.1264 77.9024C93.1836 77.8389 93.2407 77.7754 93.2957 77.712C93.3676 77.6316 93.4395 77.5512 93.5115 77.4708C93.5686 77.4052 93.6236 77.3396 93.6786 77.2741C93.7484 77.1916 93.8182 77.1112 93.8859 77.0287C93.9388 76.9652 93.9917 76.8996 94.0424 76.834C94.1123 76.7494 94.1821 76.6648 94.2498 76.5781C94.3005 76.5125 94.3492 76.4469 94.4 76.3834C94.4677 76.2967 94.5354 76.2079 94.6031 76.119C94.6538 76.0513 94.7025 75.9836 94.7511 75.918C94.8167 75.8292 94.8823 75.7403 94.9458 75.6515C94.9944 75.5838 95.041 75.514 95.0896 75.4463C95.1531 75.3553 95.2165 75.2665 95.2779 75.1755C95.3266 75.1036 95.3731 75.0316 95.4196 74.9597C95.4789 74.8709 95.5402 74.782 95.5973 74.6911C95.6439 74.6191 95.6883 74.5451 95.7348 74.471C95.792 74.3801 95.8491 74.2891 95.9062 74.1981C95.9506 74.1262 95.9929 74.0522 96.0373 73.9781C96.0924 73.8851 96.1495 73.792 96.2045 73.6968C96.2468 73.6227 96.287 73.5487 96.3293 73.4746C96.3822 73.3795 96.4372 73.2843 96.4901 73.1869C96.5303 73.1129 96.5683 73.0367 96.6085 72.9627C96.6614 72.8654 96.7122 72.7681 96.763 72.6708C96.8032 72.5946 96.8391 72.5163 96.8793 72.4402C96.928 72.3429 96.9766 72.2456 97.0253 72.1482C97.0634 72.0721 97.0972 71.9938 97.1353 71.9155C97.1818 71.8161 97.2305 71.7167 97.2749 71.6173C97.3109 71.539 97.3447 71.4607 97.3786 71.3824C97.423 71.283 97.4674 71.1815 97.5118 71.0799C97.5457 70.9995 97.5774 70.9191 97.6113 70.8388C97.6536 70.7372 97.6959 70.6357 97.7361 70.5341C97.7678 70.4559 97.7974 70.3755 97.8271 70.2951C97.8672 70.1914 97.9074 70.0878 97.9455 69.9841C97.9751 69.9016 98.0047 69.817 98.0344 69.7345C98.0703 69.6329 98.1084 69.5293 98.1444 69.4277C98.1719 69.3473 98.1973 69.2648 98.2248 69.1823C98.2607 69.0766 98.2946 68.9708 98.3284 68.8629C98.3538 68.7825 98.3771 68.7021 98.4004 68.6238C98.4342 68.5138 98.468 68.4038 98.4998 68.2938C98.5252 68.2092 98.5463 68.1225 98.5696 68.0357C98.5992 67.93 98.6288 67.8242 98.6563 67.7184C98.6796 67.6296 98.7007 67.5386 98.7219 67.4498C98.7473 67.3461 98.7748 67.2424 98.798 67.1367C98.8192 67.0499 98.8361 66.9611 98.8552 66.8743C98.8784 66.7664 98.9038 66.6586 98.9271 66.5507C98.9461 66.4597 98.9631 66.3687 98.98 66.2778C99.0011 66.172 99.0223 66.0662 99.0413 65.9605C99.0561 65.8758 99.071 65.7891 99.0858 65.7024C99.1048 65.5902 99.126 65.476 99.1429 65.3639C99.1535 65.2898 99.164 65.2179 99.1746 65.1439C99.1937 65.0169 99.2127 64.89 99.2296 64.7631C99.2381 64.6912 99.2465 64.6192 99.255 64.5452C99.2698 64.4162 99.2867 64.2871 99.2994 64.1559C99.3058 64.0904 99.3121 64.0227 99.3185 63.9571C99.3312 63.8196 99.346 63.6821 99.3565 63.5446C99.3608 63.5044 99.3608 63.4642 99.365 63.4219C99.3777 63.259 99.3883 63.094 99.3967 62.929C99.3967 62.9099 99.3989 62.8909 99.3989 62.8697C99.4179 62.4784 99.4306 62.0849 99.4306 61.6872C99.4666 48.3512 88.6861 37.5093 75.35 37.4734C75.2358 37.4734 75.1237 37.4755 75.0094 37.4776C74.9037 37.4797 74.7979 37.4797 74.6921 37.4818C74.5906 37.4839 74.4912 37.4882 74.3896 37.4924C74.2838 37.4966 74.1781 37.4987 74.0723 37.5051C73.9707 37.5093 73.8713 37.5178 73.7719 37.5241C73.6682 37.5305 73.5625 37.5368 73.4588 37.5432C73.3594 37.5516 73.2599 37.5601 73.1605 37.5686C73.0569 37.577 72.9532 37.5855 72.8495 37.5961C72.7501 37.6066 72.6507 37.6172 72.5513 37.6299C72.4497 37.6405 72.3461 37.6532 72.2445 37.6659C72.1451 37.6786 72.0478 37.6934 71.9483 37.7061C71.8468 37.7209 71.7453 37.7336 71.6437 37.7484C71.5464 37.7632 71.4491 37.7801 71.3518 37.7949C71.2502 37.8118 71.1487 37.8266 71.0472 37.8457C70.9498 37.8626 70.8546 37.8816 70.7594 37.9007C70.6579 37.9197 70.5564 37.9388 70.4548 37.9578C70.3596 37.9768 70.2644 37.998 70.1692 38.0191C70.0698 38.0403 69.9683 38.0615 69.8688 38.0847C69.7736 38.1059 69.6805 38.1313 69.5854 38.1524C69.4859 38.1757 69.3865 38.199 69.2871 38.2244C69.194 38.2476 69.1009 38.273 69.0099 38.2984C68.9105 38.3259 68.8111 38.3513 68.7117 38.3788C68.6186 38.4042 68.5276 38.4338 68.4345 38.4613C68.3372 38.4909 68.2399 38.5184 68.1426 38.548C68.0495 38.5755 67.9585 38.6073 67.8676 38.6369C67.7703 38.6686 67.673 38.6982 67.5778 38.73C67.4889 38.7596 67.4001 38.7913 67.3091 38.823C67.2118 38.8569 67.1166 38.8907 67.0193 38.9246C66.9304 38.9563 66.8437 38.9902 66.7548 39.024C66.6596 39.06 66.5623 39.0959 66.4671 39.134C66.3804 39.1679 66.2937 39.2038 66.2069 39.2398C66.1117 39.2779 66.0186 39.3159 65.9235 39.3561C65.8367 39.3921 65.75 39.4323 65.6632 39.4683C65.5702 39.5085 65.4771 39.5486 65.384 39.591C65.2994 39.629 65.2169 39.6692 65.1323 39.7073C65.0392 39.7496 64.9461 39.794 64.853 39.8385C64.7684 39.8787 64.6859 39.921 64.6034 39.9612C64.5124 40.0056 64.4193 40.05 64.3284 40.0966C64.2459 40.1389 64.1634 40.1833 64.0809 40.2277C63.992 40.2743 63.901 40.3208 63.8122 40.3695C63.7297 40.4139 63.6472 40.4604 63.5647 40.507C63.4779 40.5556 63.3891 40.6043 63.3024 40.6529C63.2199 40.6995 63.1395 40.7481 63.0591 40.7947C62.9724 40.8454 62.8856 40.8962 62.801 40.947C62.7227 40.9956 62.6445 41.0443 62.5662 41.0929C62.4794 41.1458 62.3927 41.1987 62.3081 41.2537C62.2319 41.3024 62.1558 41.3532 62.0775 41.4039C61.9929 41.4589 61.9061 41.516 61.8215 41.571C61.7454 41.6218 61.6692 41.6768 61.5931 41.7276C61.5106 41.7847 61.4259 41.8418 61.3434 41.8989C61.2673 41.9518 61.1932 42.009 61.1171 42.0618C61.0367 42.1211 60.9542 42.1782 60.8738 42.2395C60.7998 42.2945 60.7278 42.3517 60.6538 42.4067C60.5734 42.468 60.493 42.5294 60.4126 42.5907C60.3407 42.6478 60.2709 42.7049 60.199 42.7621C60.1186 42.8255 60.0382 42.889 59.9599 42.9546C59.8901 43.0117 59.8203 43.0709 59.7505 43.1302C59.6722 43.1957 59.5939 43.2613 59.5157 43.3269C59.4458 43.3861 59.3781 43.4475 59.3104 43.5088C59.2343 43.5765 59.1581 43.6421 59.082 43.7098C59.0122 43.7733 58.9445 43.8367 58.8768 43.9002C58.8027 43.9679 58.7308 44.0356 58.6568 44.1033C58.5891 44.1667 58.5235 44.2323 58.4558 44.2979C58.3839 44.3677 58.3119 44.4375 58.24 44.5073C58.1744 44.5729 58.1089 44.6406 58.0433 44.7083C57.9735 44.7781 57.9037 44.85 57.836 44.9199C57.7704 44.9876 57.7069 45.0574 57.6434 45.1272C57.5758 45.1991 57.5081 45.271 57.4404 45.343C57.3769 45.4128 57.3155 45.4847 57.2521 45.5545C57.1865 45.6285 57.1209 45.7005 57.0553 45.7745C56.9919 45.8464 56.9305 45.9205 56.8692 45.9924C56.8057 46.0664 56.7423 46.1405 56.6809 46.2145C56.6196 46.2886 56.5624 46.3626 56.5011 46.4367C56.4397 46.5128 56.3763 46.589 56.3149 46.6651C56.2557 46.7413 56.1965 46.8174 56.1372 46.8936C56.078 46.9698 56.0188 47.0459 55.9616 47.1242C55.9024 47.2025 55.8453 47.2829 55.7882 47.3611C55.7311 47.4373 55.6739 47.5156 55.6189 47.5917C55.5618 47.6721 55.5068 47.7546 55.4497 47.835C55.3968 47.9133 55.3418 47.9894 55.2868 48.0677C55.2318 48.1502 55.1768 48.2348 55.1218 48.3173C55.0689 48.3956 55.0181 48.4739 54.9674 48.5521C54.9124 48.6368 54.8616 48.7214 54.8087 48.806C54.7579 48.8864 54.7072 48.9647 54.6585 49.045C54.6035 49.1339 54.5506 49.2249 54.4977 49.3158C54.4512 49.392 54.4068 49.4681 54.3602 49.5464C54.3073 49.6374 54.2566 49.7305 54.2058 49.8214C54.1614 49.8997 54.1169 49.9759 54.0746 50.0541C54.026 50.1451 53.9773 50.2361 53.9308 50.327C53.8885 50.4074 53.844 50.4899 53.8017 50.5703C53.7531 50.6634 53.7086 50.7565 53.6621 50.8517C53.6219 50.9321 53.5796 51.0124 53.5415 51.095C53.495 51.1923 53.4506 51.2896 53.404 51.3869C53.3659 51.4652 53.3279 51.5455 53.2919 51.6238C53.2454 51.7254 53.2009 51.8269 53.1565 51.9306C53.1227 52.0067 53.0888 52.085 53.055 52.1612C53.0105 52.2648 52.9682 52.3706 52.9259 52.4742C52.8942 52.5504 52.8625 52.6266 52.8307 52.7048C52.7884 52.8127 52.7482 52.9206 52.708 53.0264C52.6784 53.1025 52.6488 53.1787 52.6213 53.2549C52.5811 53.3627 52.543 53.4728 52.5049 53.5828C52.4774 53.6589 52.4499 53.7351 52.4246 53.8112C52.3886 53.9191 52.3526 54.0291 52.3188 54.137C52.2934 54.2174 52.2659 54.2957 52.2405 54.3739C52.2109 54.467 52.1834 54.5601 52.1559 54.6553C52.1876 54.6553 52.2215 54.6532 52.2532 54.6532H52.2553C52.9534 54.6532 53.6515 54.6786 54.3454 54.723C55.4116 51.4736 57.2352 48.4971 59.7272 46.0114C63.8862 41.8651 69.4098 39.5804 75.2823 39.5804H75.3437C81.229 39.5973 86.7546 41.9032 90.9052 46.077C95.0558 50.2509 97.332 55.7892 97.3151 61.6745C97.2982 67.5492 94.9986 73.0685 90.8396 77.2148C88.978 79.0701 86.8435 80.5509 84.527 81.6235C84.5545 81.7779 84.5862 81.9324 84.6116 82.0889C84.7724 83.0705 84.2266 84.0224 83.3148 84.3905C83.3931 84.363 83.4714 84.3377 83.5475 84.308C83.6427 84.2911 83.7274 84.2573 83.8141 84.2255Z" fill="url(#paint1_linear_650_1628)"/>
<path opacity="0.6" d="M69.2109 85.0041C69.1707 84.9914 69.1305 84.9808 69.0924 84.966C69.0438 84.9469 68.9994 84.9237 68.9528 84.9004C68.9126 84.8814 68.8724 84.8644 68.8343 84.8433C68.7899 84.8179 68.7476 84.7883 68.7053 84.7608C68.6693 84.7375 68.6313 84.7164 68.5974 84.691C68.5551 84.6592 68.517 84.6233 68.4789 84.5894C68.4472 84.5619 68.4134 84.5365 68.3838 84.5069C68.3457 84.471 68.3118 84.4287 68.278 84.3885C68.2505 84.3567 68.2209 84.3292 68.1955 84.2975C68.1616 84.2552 68.132 84.2065 68.1024 84.16C68.0812 84.1283 68.0559 84.0965 68.0368 84.0627C68.0072 84.0098 67.9818 83.9548 67.9564 83.8998C67.9416 83.868 67.9247 83.8384 67.9099 83.8067C67.8739 83.7178 67.8422 83.6269 67.8168 83.5338C67.6983 83.0811 67.5566 82.6411 67.4043 82.2095C64.5315 81.1116 61.8998 79.4065 59.6658 77.1598C58.0708 75.5563 56.7528 73.7476 55.7353 71.7971C54.906 71.6046 54.0619 71.4734 53.2073 71.4121C56.1647 78.0695 62.0373 83.1424 69.2109 85.0041Z" fill="url(#paint2_linear_650_1628)"/>
<path opacity="0.6" d="M80.4021 85.2304C80.4212 85.2262 80.4423 85.222 80.4614 85.2177C80.3302 85.2474 80.199 85.2749 80.0615 85.3024C80.0827 85.2981 80.1017 85.2939 80.1229 85.2918C80.216 85.2727 80.309 85.2516 80.4021 85.2304Z" fill="url(#paint3_linear_650_1628)"/>
<path opacity="0.6" d="M76.5013 85.7444C76.6007 85.7402 76.7001 85.7317 76.8017 85.7253C76.9074 85.719 77.0111 85.7127 77.1169 85.7063C77.2163 85.6978 77.3157 85.6894 77.4152 85.6809C77.5188 85.6725 77.6225 85.664 77.7261 85.6534C77.8256 85.6428 77.9229 85.6323 78.0223 85.6196C78.126 85.6069 78.2296 85.5963 78.3333 85.5836C78.4306 85.5709 78.5279 85.5561 78.6252 85.5434C78.7289 85.5286 78.8325 85.5159 78.9362 85.5011C79.0335 85.4863 79.1287 85.4694 79.2239 85.4546C79.2429 85.4524 79.262 85.4482 79.281 85.4461C78.3164 85.6048 77.2311 85.7232 76.0211 85.7634C75.983 85.7655 75.9428 85.7655 75.9026 85.7677C75.9978 85.7655 76.093 85.7613 76.1861 85.7571C76.2897 85.7528 76.3955 85.7507 76.5013 85.7444Z" fill="url(#paint4_linear_650_1628)"/>
<path opacity="0.6" d="M79.8137 85.3509C79.8433 85.3446 79.8729 85.3404 79.9004 85.334C79.7143 85.37 79.5239 85.4059 79.3271 85.4377C79.3948 85.4271 79.4625 85.4165 79.5302 85.4038C79.6233 85.3869 79.7185 85.3679 79.8137 85.3509Z" fill="url(#paint5_linear_650_1628)"/>
<path opacity="0.6" d="M88.2696 105.952L86.3107 108.856C87.3917 108.298 88.1575 107.219 88.2696 105.952Z" fill="url(#paint6_linear_650_1628)"/>
<path opacity="0.6" d="M121.866 50.3271C121.18 49.6395 120.271 49.2588 119.304 49.2566L115.371 49.2461C114.677 46.9592 113.784 44.7295 112.71 42.5908L115.382 39.9337C116.801 38.5227 116.808 36.221 115.396 34.8015L102.426 21.7596C101.741 21.0699 100.827 20.6913 99.8519 20.6913C98.8851 20.6913 97.9755 21.0657 97.2922 21.7448L94.7769 24.2474C92.7693 23.1812 90.6749 22.2779 88.5193 21.548L88.5299 17.6894C88.5362 15.6882 86.9115 14.055 84.9103 14.0508L66.5161 14C66.514 14 66.5119 14 66.5098 14H66.5056C64.5107 14 62.8817 15.6226 62.8754 17.6196L62.8648 21.1038C60.4151 21.8379 58.033 22.7983 55.7526 23.9682L53.3282 21.5311C52.6428 20.8415 51.7289 20.4628 50.7558 20.4628C49.789 20.4628 48.8793 20.8372 48.196 21.5163L35.1541 34.4863C33.7346 35.8974 33.7283 38.199 35.1393 39.6185L37.5573 42.0513C36.3938 44.2853 35.4333 46.6207 34.6887 49.0239L31.3462 49.0155C29.3407 49.0155 27.7118 50.638 27.7076 52.6351L27.6716 65.7934C28.3422 65.0297 29.0509 64.2977 29.7935 63.5996L29.8231 52.6393C29.8231 52.432 29.8675 52.2331 29.9437 52.0512C29.9458 52.0491 29.9458 52.047 29.9479 52.0448C29.9669 52.0025 29.986 51.9602 30.0092 51.92C30.0114 51.9158 30.0135 51.9116 30.0156 51.9073C30.0367 51.8693 30.06 51.8312 30.0854 51.7952C30.0896 51.791 30.0917 51.7868 30.096 51.7804C30.1214 51.7444 30.1467 51.7106 30.1721 51.6789C30.1764 51.6746 30.1806 51.6704 30.1848 51.6662C30.2123 51.6344 30.2398 51.6027 30.2716 51.5731C30.2779 51.5667 30.2843 51.5625 30.2906 51.5562C30.3202 51.5287 30.3498 51.5012 30.3794 51.4758C30.3879 51.4694 30.3964 51.4631 30.4048 51.4567C30.4344 51.4335 30.4641 51.4102 30.4958 51.389C30.5064 51.3827 30.5191 51.3764 30.5297 51.3679C30.5593 51.3489 30.5889 51.3298 30.6206 51.3129C30.6333 51.3065 30.6481 51.3002 30.6608 51.2938C30.6904 51.279 30.7222 51.2621 30.7518 51.2494C30.7666 51.2431 30.7835 51.2388 30.7983 51.2325C30.8279 51.2198 30.8597 51.2092 30.8914 51.1987C30.9104 51.1923 30.9295 51.1881 30.9485 51.1838C30.9781 51.1754 31.0056 51.1669 31.0374 51.1606C31.0585 51.1563 31.0797 51.1542 31.1008 51.15C31.1283 51.1458 31.1579 51.1394 31.1854 51.1373C31.2087 51.1352 31.2341 51.1352 31.2595 51.1331C31.2849 51.131 31.3103 51.1288 31.3378 51.1288C31.3399 51.1288 31.3399 51.1288 31.342 51.1288L36.2816 51.1415C37.1765 47.7927 38.4944 44.6174 40.1741 41.6747L36.6434 38.1228C36.0574 37.5326 36.0595 36.5701 36.6497 35.982L49.6917 23.012C49.7277 22.976 49.7679 22.94 49.8059 22.9083C49.8144 22.902 49.825 22.8956 49.8334 22.8893C49.8652 22.866 49.8969 22.8406 49.9286 22.8194C49.9371 22.8131 49.9455 22.8089 49.954 22.8046C49.9879 22.7835 50.0217 22.7623 50.0556 22.7454C50.0661 22.7412 50.0767 22.7369 50.0852 22.7306C50.119 22.7137 50.155 22.6967 50.1888 22.6819C50.2015 22.6777 50.2163 22.6735 50.229 22.6671C50.2608 22.6544 50.2946 22.6439 50.3285 22.6333C50.3433 22.6291 50.3602 22.6269 50.375 22.6227C50.4067 22.6142 50.4385 22.6058 50.4702 22.5994C50.4892 22.5952 50.5083 22.5952 50.5273 22.591C50.5569 22.5867 50.5844 22.5804 50.614 22.5783C50.6352 22.5762 50.6564 22.5762 50.6775 22.5762C50.705 22.5741 50.7304 22.5719 50.7579 22.5719H50.76C50.7854 22.5719 50.8108 22.5741 50.8362 22.5762C50.8594 22.5783 50.8827 22.5783 50.906 22.5804C50.9335 22.5825 50.961 22.5889 50.9885 22.5931C51.0096 22.5952 51.0287 22.5973 51.0498 22.6016C51.0816 22.6079 51.1112 22.6164 51.1408 22.6248C51.1577 22.6291 51.1746 22.6333 51.1916 22.6375C51.2233 22.646 51.255 22.6587 51.2847 22.6692C51.2995 22.6756 51.3143 22.6798 51.3291 22.6841C51.3629 22.6968 51.3947 22.7137 51.4264 22.7285C51.4391 22.7348 51.4518 22.7391 51.4645 22.7454C51.5004 22.7644 51.5343 22.7856 51.5681 22.8068C51.5766 22.811 51.585 22.8152 51.5935 22.8216C51.6295 22.8448 51.6654 22.8723 51.6993 22.8998C51.7035 22.9041 51.7099 22.9062 51.7141 22.9104C51.7543 22.9421 51.7924 22.9781 51.8283 23.0141L55.3654 26.5702C56.1122 26.1492 56.8738 25.7515 57.6501 25.3792C58.0373 25.193 58.4286 25.0132 58.8242 24.8376C59.6133 24.4886 60.4151 24.1649 61.2295 23.8666C62.4523 23.4202 63.7025 23.031 64.9761 22.701L64.9909 17.6154C64.9909 17.408 65.0353 17.2092 65.1115 17.0273C65.1136 17.0251 65.1136 17.023 65.1157 17.0209C65.1347 16.9786 65.1538 16.9363 65.177 16.8961C65.1791 16.8919 65.1813 16.8876 65.1834 16.8834C65.2045 16.8453 65.2278 16.8072 65.2532 16.7713C65.2574 16.767 65.2595 16.7628 65.2638 16.7565C65.2892 16.7205 65.3145 16.6867 65.3399 16.6549C65.3442 16.6507 65.3484 16.6465 65.3526 16.6422C65.3801 16.6105 65.4076 16.5788 65.4394 16.5492C65.4457 16.5428 65.452 16.5386 65.4584 16.5322C65.488 16.5047 65.5176 16.4772 65.5472 16.4518C65.5557 16.4455 65.5642 16.4392 65.5726 16.4328C65.6022 16.4095 65.6319 16.3863 65.6636 16.3651C65.6742 16.3588 65.6847 16.3524 65.6953 16.3461C65.7249 16.327 65.7567 16.308 65.7884 16.289C65.8011 16.2826 65.8138 16.2784 65.8244 16.272C65.8561 16.2551 65.8878 16.2403 65.9196 16.2255C65.9344 16.2191 65.9492 16.2149 65.964 16.2086C65.9957 16.1959 66.0253 16.1853 66.0571 16.1747C66.074 16.1684 66.093 16.1663 66.11 16.162C66.1396 16.1536 66.1713 16.1451 66.2009 16.1388C66.2221 16.1345 66.2432 16.1324 66.2644 16.1282C66.2919 16.1239 66.3215 16.1176 66.349 16.1155C66.3723 16.1134 66.3977 16.1134 66.423 16.1113C66.4484 16.1091 66.4738 16.107 66.5013 16.107C66.5034 16.107 66.5034 16.107 66.5056 16.107L84.8997 16.1578C85.7332 16.1599 86.4122 16.8432 86.4101 17.6767L86.3953 23.0881C89.4797 24.002 92.4097 25.2755 95.1344 26.8621L98.7794 23.2383C98.8153 23.2024 98.8555 23.1664 98.8936 23.1347C98.8999 23.1304 98.9063 23.1262 98.9126 23.122C98.9465 23.0945 98.9803 23.0691 99.0163 23.0458C99.029 23.0373 99.0417 23.031 99.0544 23.0225C99.084 23.0035 99.1136 22.9866 99.1453 22.9696C99.1601 22.9612 99.1771 22.9548 99.1919 22.9485C99.2215 22.9358 99.249 22.921 99.2786 22.9083C99.2955 22.902 99.3146 22.8956 99.3336 22.8893C99.3611 22.8787 99.3886 22.8681 99.4182 22.8596C99.4373 22.8533 99.4563 22.8512 99.4754 22.8448C99.5029 22.8385 99.5304 22.83 99.56 22.8237C99.5811 22.8194 99.6023 22.8173 99.6213 22.8152C99.6488 22.811 99.6763 22.8068 99.7038 22.8046C99.7271 22.8025 99.7504 22.8025 99.7715 22.8004C99.7969 22.7983 99.8202 22.7962 99.8456 22.7962H99.8477C99.8752 22.7962 99.9027 22.7983 99.9281 22.8004C99.9492 22.8025 99.9704 22.8025 99.9915 22.8046C100.021 22.8068 100.049 22.8131 100.078 22.8173C100.097 22.8194 100.118 22.8216 100.138 22.8258C100.167 22.8321 100.195 22.8406 100.224 22.8469C100.243 22.8512 100.26 22.8554 100.279 22.8596C100.311 22.8681 100.341 22.8808 100.37 22.8914C100.385 22.8977 100.402 22.902 100.417 22.9083C100.448 22.921 100.478 22.9358 100.508 22.9506C100.523 22.957 100.537 22.9633 100.55 22.9718C100.582 22.9887 100.613 23.0077 100.643 23.0268C100.654 23.0331 100.666 23.0395 100.679 23.0479C100.715 23.0712 100.749 23.0987 100.785 23.1262C100.791 23.1304 100.798 23.1347 100.802 23.1389C100.842 23.1706 100.88 23.2066 100.916 23.2425L113.886 36.2845C114.472 36.8747 114.47 37.8373 113.88 38.4254L110.099 42.1846C111.677 45.0447 112.915 48.1164 113.759 51.3489L119.289 51.3637C120.122 51.3658 120.802 52.0491 120.799 52.8826L120.749 71.2767C120.749 71.3804 120.738 71.4798 120.717 71.5771V71.5792C120.711 71.6131 120.7 71.6469 120.689 71.6808C120.685 71.6956 120.683 71.7083 120.679 71.7231C120.67 71.7506 120.66 71.7781 120.649 71.8056C120.643 71.8246 120.637 71.8437 120.628 71.8627C120.617 71.886 120.605 71.9092 120.594 71.9325C120.584 71.9537 120.575 71.9748 120.565 71.996C120.552 72.0171 120.539 72.0383 120.524 72.0594C120.512 72.0785 120.501 72.0996 120.488 72.1187C120.476 72.1377 120.461 72.1546 120.448 72.1715C120.433 72.1927 120.419 72.2139 120.402 72.235C120.389 72.2498 120.376 72.2625 120.364 72.2773C120.345 72.2985 120.326 72.3217 120.304 72.3429C120.292 72.3556 120.277 72.3683 120.262 72.381C120.241 72.4 120.22 72.4212 120.197 72.4402C120.18 72.4529 120.163 72.4656 120.146 72.4783C120.125 72.4952 120.101 72.5121 120.08 72.5269C120.061 72.5396 120.04 72.5502 120.021 72.5629C120 72.5756 119.979 72.5904 119.955 72.6031C119.936 72.6137 119.913 72.6221 119.894 72.6327C119.871 72.6433 119.847 72.656 119.824 72.6666C119.803 72.675 119.78 72.6835 119.756 72.692C119.733 72.7004 119.71 72.711 119.685 72.7173C119.661 72.7237 119.638 72.73 119.615 72.7364C119.589 72.7427 119.566 72.7512 119.541 72.7554C119.517 72.7597 119.492 72.7639 119.469 72.766C119.443 72.7702 119.418 72.7745 119.393 72.7766C119.367 72.7787 119.342 72.7787 119.314 72.7808C119.289 72.7829 119.266 72.785 119.24 72.785C119.238 72.785 119.238 72.785 119.236 72.785L113.463 72.7681C112.581 75.7848 111.354 78.6534 109.829 81.3316L113.85 85.3764C114.436 85.9666 114.434 86.9292 113.844 87.5173L100.802 100.487C100.778 100.511 100.751 100.534 100.726 100.555C100.713 100.566 100.7 100.578 100.685 100.591C100.662 100.61 100.637 100.627 100.613 100.644C100.597 100.657 100.58 100.669 100.563 100.68C100.542 100.692 100.52 100.705 100.499 100.718C100.478 100.731 100.457 100.743 100.434 100.756C100.413 100.767 100.391 100.775 100.368 100.786C100.345 100.796 100.322 100.809 100.298 100.817C100.275 100.826 100.252 100.834 100.228 100.843C100.205 100.851 100.184 100.86 100.161 100.866C100.137 100.872 100.114 100.877 100.093 100.883C100.068 100.889 100.044 100.896 100.019 100.9C99.9958 100.904 99.9746 100.906 99.9513 100.91C99.926 100.915 99.9006 100.919 99.8752 100.921C99.8519 100.923 99.8286 100.923 99.8054 100.925C99.7821 100.927 99.7567 100.929 99.7313 100.929H99.7292C99.7017 100.929 99.6763 100.927 99.6488 100.925C99.6277 100.923 99.6044 100.923 99.5832 100.921C99.5557 100.919 99.5282 100.913 99.5007 100.908C99.4796 100.906 99.4584 100.904 99.4373 100.9C99.4098 100.896 99.3844 100.887 99.3569 100.881C99.3357 100.877 99.3146 100.872 99.2955 100.866C99.268 100.857 99.2427 100.847 99.2173 100.838C99.1982 100.832 99.1771 100.826 99.158 100.817C99.1326 100.807 99.1073 100.794 99.0819 100.781C99.0628 100.773 99.0438 100.764 99.0248 100.754C99.0015 100.741 98.9782 100.726 98.955 100.712C98.9359 100.699 98.9148 100.69 98.8957 100.678C98.8724 100.663 98.8492 100.644 98.8259 100.627C98.809 100.614 98.7899 100.602 98.773 100.589C98.7519 100.572 98.7307 100.551 98.7117 100.532C98.6947 100.515 98.6757 100.5 98.6588 100.483L94.6415 96.4425C93.9518 96.8317 93.2495 97.1977 92.5366 97.5468C92.5979 98.4099 92.452 99.2751 92.1029 100.083C92.8285 99.7617 93.5478 99.4169 94.2543 99.0551L97.1589 101.977C97.8443 102.666 98.7582 103.045 99.7335 103.045C100.7 103.045 101.61 102.67 102.293 101.991L115.335 89.0214C116.021 88.3381 116.401 87.4284 116.403 86.4574C116.406 85.4864 116.031 84.5746 115.35 83.8892L112.439 80.9635C113.454 79.0109 114.318 76.9779 115.014 74.8942L119.228 74.9069C121.233 74.9069 122.862 73.2843 122.866 71.2873L122.917 52.8932C122.925 51.9264 122.549 51.0146 121.866 50.3271Z" fill="url(#paint7_linear_650_1628)"/>
<path opacity="0.6" d="M51.4452 100.523C51.4325 100.534 51.4219 100.547 51.4092 100.557C51.3902 100.572 51.369 100.587 51.35 100.601C51.3288 100.616 51.3077 100.633 51.2865 100.648C51.2696 100.659 51.2548 100.667 51.2379 100.678C51.2104 100.695 51.185 100.709 51.1575 100.724C51.1406 100.733 51.1236 100.739 51.1088 100.747C51.0813 100.76 51.0538 100.775 51.0242 100.786C51.0052 100.794 50.9861 100.798 50.9671 100.805C50.9396 100.815 50.9142 100.824 50.8846 100.832C50.8634 100.838 50.8444 100.843 50.8232 100.847C50.7957 100.853 50.7704 100.862 50.7429 100.866C50.7217 100.87 50.6984 100.872 50.6773 100.874C50.6519 100.879 50.6244 100.883 50.599 100.885C50.5779 100.887 50.5546 100.887 50.5334 100.887C50.508 100.889 50.4805 100.891 50.4552 100.891H50.453C50.4298 100.891 50.4044 100.889 50.3811 100.887C50.3557 100.885 50.3325 100.885 50.3071 100.883C50.2838 100.881 50.2605 100.877 50.2373 100.872C50.2119 100.868 50.1865 100.866 50.1632 100.862C50.1378 100.857 50.1146 100.849 50.0913 100.845C50.068 100.838 50.0447 100.834 50.0215 100.828C49.9961 100.819 49.9686 100.809 49.9432 100.8C49.9221 100.794 49.903 100.788 49.8819 100.779C49.8544 100.769 49.8269 100.754 49.7994 100.741C49.7824 100.733 49.7655 100.726 49.7486 100.718C49.7211 100.703 49.6936 100.686 49.6661 100.669C49.6513 100.661 49.6343 100.652 49.6195 100.642C49.5942 100.625 49.5688 100.604 49.5434 100.585C49.5286 100.574 49.5116 100.563 49.4968 100.551C49.4757 100.534 49.4566 100.515 49.4355 100.496C49.4186 100.479 49.3995 100.464 49.3826 100.447L36.4126 87.4051C35.8266 86.8149 35.8287 85.8524 36.4189 85.2642L40.2353 81.4691C39.6577 80.4642 39.1225 79.4298 38.6317 78.372C38.1494 79.0659 37.7199 79.8 37.3476 80.57C37.4365 80.7435 37.5232 80.9191 37.6142 81.0904L36.7595 81.9387C36.7024 82.0889 36.6432 82.2391 36.5924 82.3914C35.7568 84.82 35.5114 87.3522 35.8372 89.8252L47.8827 101.938C48.5681 102.628 49.482 103.007 50.4552 103.007C51.4219 103.007 52.3316 102.632 53.0149 101.953L55.4646 99.5184L54.9379 98.4395C54.7792 98.1116 54.6544 97.7752 54.5634 97.4325L51.5235 100.456C51.4981 100.477 51.4706 100.5 51.4452 100.523Z" fill="url(#paint8_linear_650_1628)"/>
<path d="M75.2888 37.4797C75.1978 37.4797 75.1068 37.4818 75.0159 37.484C75.1301 37.4818 75.2422 37.4797 75.3565 37.4797C75.3353 37.4797 75.312 37.4797 75.2888 37.4797Z" fill="url(#paint9_linear_650_1628)"/>
<path d="M75.2888 37.4797C75.1978 37.4797 75.1068 37.4818 75.0159 37.484C75.1301 37.4818 75.2422 37.4797 75.3565 37.4797C75.3353 37.4797 75.312 37.4797 75.2888 37.4797Z" fill="url(#paint10_linear_650_1628)"/>
<path d="M54.5613 97.4304L51.5214 100.453L54.5613 97.4304Z" fill="url(#paint11_linear_650_1628)"/>
<path d="M54.5613 97.4304L51.5214 100.453L54.5613 97.4304Z" fill="url(#paint12_linear_650_1628)"/>
<path d="M79.3254 85.4377C79.5201 85.406 79.7126 85.37 79.9072 85.3319C79.7168 85.37 79.5243 85.4038 79.3254 85.4377Z" fill="url(#paint13_linear_650_1628)"/>
<path d="M88.2699 105.952L86.3109 108.856C87.3919 108.298 88.1577 107.219 88.2699 105.952Z" fill="url(#paint14_linear_650_1628)"/>
<path d="M76.0192 85.7613C75.9748 85.7634 75.9282 85.7655 75.8838 85.7677C77.0388 85.7401 78.1706 85.6302 79.2813 85.4461C78.3166 85.6048 77.2292 85.7211 76.0192 85.7613Z" fill="url(#paint15_linear_650_1628)"/>
<path d="M80.0574 85.3045C80.1949 85.277 80.3303 85.2474 80.4678 85.2177C80.3324 85.2474 80.1991 85.2749 80.0574 85.3045Z" fill="url(#paint16_linear_650_1628)"/>
<path d="M80.7134 85.1627C80.779 85.1479 80.8466 85.131 80.9122 85.1141C80.8466 85.131 80.7832 85.1479 80.7134 85.1627Z" fill="url(#paint17_linear_650_1628)"/>
<path d="M121.866 50.3271C121.18 49.6395 120.271 49.2588 119.304 49.2566L115.371 49.2461C114.677 46.9592 113.785 44.7295 112.71 42.5908L115.382 39.9337C116.801 38.5227 116.808 36.221 115.397 34.8015L102.427 21.7596C101.741 21.0699 100.827 20.6913 99.8521 20.6913C98.8853 20.6913 97.9756 21.0657 97.2923 21.7448L94.777 24.2474C92.7695 23.1812 90.6751 22.2779 88.5194 21.548L88.53 17.6894C88.5321 16.7226 88.1577 15.8087 87.4723 15.1212C86.7869 14.4337 85.8772 14.0529 84.9104 14.0508L66.5163 14C66.5142 14 66.5121 14 66.51 14H66.5057C64.5108 14 62.8819 15.6226 62.8756 17.6196L62.865 21.1038C60.4152 21.8379 58.0332 22.7983 55.7527 23.9682L53.3284 21.5311C52.643 20.8415 51.7291 20.4628 50.7559 20.4628C49.7892 20.4628 48.8795 20.8372 48.1962 21.5163L35.1543 34.4863C34.4688 35.1696 34.0881 36.0793 34.0859 37.0503C34.0838 38.0213 34.4583 38.9331 35.1394 39.6206L37.5575 42.0534C36.3939 44.2874 35.4335 46.6229 34.6867 49.0261L31.3443 49.0176C29.3388 49.0176 27.7099 50.6402 27.7056 52.6372L27.6697 65.7955C28.3403 65.0318 29.049 64.2998 29.7915 63.6017L29.8211 52.6414C29.8232 51.81 30.5044 51.131 31.3337 51.131C31.3358 51.131 31.3358 51.131 31.3379 51.131L36.2755 51.1437C37.1703 47.7948 38.4883 44.6195 40.168 41.6769L36.6351 38.125C36.047 37.5347 36.0512 36.5722 36.6414 35.9841L49.6834 23.0141C49.9774 22.7221 50.3646 22.5762 50.7517 22.5762C51.141 22.5762 51.5302 22.7243 51.8243 23.0204L55.3614 26.5765C58.3484 24.8947 61.5724 23.5853 64.972 22.7094L64.9868 17.6238C64.9889 16.7924 65.6701 16.1134 66.5015 16.1134C66.5036 16.1134 66.5036 16.1134 66.5057 16.1134L84.8999 16.1641C85.7312 16.1663 86.4124 16.8496 86.4082 17.6831L86.3934 23.0945C89.4778 24.0083 92.4077 25.2819 95.1324 26.8685L98.7774 23.2447C99.0715 22.9527 99.4586 22.8068 99.8436 22.8068C100.233 22.8068 100.622 22.9548 100.916 23.251L113.886 36.293C114.474 36.8832 114.47 37.8457 113.88 38.4338L110.099 42.193C111.678 45.0532 112.915 48.1249 113.759 51.3573L119.289 51.3721C120.123 51.3742 120.802 52.0575 120.8 52.891L120.749 71.2852C120.747 72.1165 120.066 72.7956 119.234 72.7956C119.232 72.7956 119.232 72.7956 119.23 72.7956L113.457 72.7787C112.575 75.7954 111.348 78.664 109.822 81.3422L113.844 85.387C114.432 85.9772 114.428 86.9397 113.838 87.5278L100.796 100.498C100.502 100.79 100.114 100.936 99.7294 100.936C99.3401 100.936 98.9509 100.788 98.6568 100.492L94.6395 96.451C93.9499 96.8402 93.2475 97.2062 92.5346 97.5552C92.596 98.4184 92.45 99.2836 92.101 100.092C92.8266 99.768 93.5458 99.4253 94.2524 99.0636L97.157 101.985C97.8424 102.675 98.7563 103.053 99.7315 103.053C100.698 103.053 101.608 102.679 102.291 102L115.333 89.0298C116.019 88.3465 116.399 87.4369 116.402 86.4659C116.404 85.4949 116.029 84.5831 115.348 83.8956L112.439 80.9698C113.455 79.0173 114.318 76.9843 115.014 74.9005L119.228 74.9132C121.233 74.9132 122.862 73.2906 122.866 71.2936L122.917 52.8995C122.926 51.9264 122.549 51.0146 121.866 50.3271Z" fill="url(#paint18_linear_650_1628)"/>
<path d="M50.4556 100.891C50.0664 100.891 49.6771 100.743 49.3831 100.447L36.4131 87.4051C35.825 86.8149 35.8292 85.8524 36.4194 85.2642L40.2357 81.4691C39.6582 80.4642 39.123 79.4298 38.6322 78.372C38.1499 79.0659 37.7204 79.8 37.3481 80.57C37.437 80.7435 37.5237 80.9169 37.6147 81.0904L36.76 81.9387C36.7029 82.0889 36.6437 82.2391 36.5929 82.3914C35.7573 84.82 35.5119 87.3522 35.8377 89.8252L47.8832 101.938C48.5686 102.628 49.4825 103.007 50.4578 103.007C51.4245 103.007 52.3342 102.632 53.0175 101.953L55.4672 99.5184L54.9405 98.4395C54.7818 98.1116 54.657 97.7752 54.566 97.4325L51.5261 100.456C51.2278 100.745 50.8428 100.891 50.4556 100.891Z" fill="url(#paint19_linear_650_1628)"/>
<path d="M69.2115 85.0019C69.1713 84.9892 69.1311 84.9786 69.093 84.9638C69.0444 84.9448 68.9999 84.9215 68.9534 84.8982C68.9132 84.8792 68.873 84.8623 68.8349 84.8411C68.7905 84.8157 68.7482 84.7861 68.7059 84.7586C68.6699 84.7353 68.6318 84.7142 68.598 84.6888C68.5557 84.6571 68.5176 84.6211 68.4795 84.5873C68.4478 84.5598 68.4139 84.5344 68.3843 84.5048C68.3462 84.4688 68.3124 84.4265 68.2786 84.3863C68.251 84.3546 68.2214 84.3271 68.196 84.2953C68.1622 84.253 68.1326 84.2044 68.103 84.1578C68.0818 84.1261 68.0564 84.0943 68.0374 84.0605C68.0078 84.0076 67.9824 83.9526 67.957 83.8976C67.9422 83.8659 67.9253 83.8363 67.9105 83.8045C67.8745 83.7157 67.8428 83.6247 67.8174 83.5316C67.6968 83.0747 67.555 82.6304 67.4006 82.1925C62.3721 80.2569 58.23 76.5315 55.7549 71.7992C54.9193 71.6024 54.0688 71.4713 53.21 71.4099C56.1653 78.0695 62.0379 83.1424 69.2115 85.0019Z" fill="url(#paint20_linear_650_1628)"/>
<path d="M99.4374 61.6936C99.4734 48.3575 88.6929 37.5157 75.3569 37.4797C75.3336 37.4797 75.3125 37.4797 75.2892 37.4797C64.3796 37.4797 55.1519 44.721 52.1627 54.668C52.1945 54.668 52.2283 54.6659 52.26 54.6659H52.2621C52.9603 54.6659 53.6584 54.6913 54.3522 54.7357C55.4184 51.4863 57.242 48.5099 59.734 46.0242C63.8931 41.8778 69.4166 39.5931 75.2892 39.5931H75.3505C81.2358 39.61 86.7614 41.9159 90.912 46.0897C95.0626 50.2636 97.3389 55.8019 97.3219 61.6872C97.305 67.5619 95.0055 73.0812 90.8464 77.2275C88.9848 79.0828 86.8503 80.5637 84.5338 81.6362C84.5613 81.7906 84.5931 81.9451 84.6185 82.1016C84.7792 83.0832 84.2334 84.0373 83.3217 84.4033C92.6848 81.1031 99.4099 72.1906 99.4374 61.6936Z" fill="url(#paint21_linear_650_1628)"/>
<g opacity="0.49">
<path d="M71.8136 124.94C70.1022 124.94 68.5748 123.986 67.8259 122.45L64.9171 116.485C60.9062 118.234 56.6646 119.12 52.294 119.12C46.4405 119.12 40.7012 117.502 35.6981 114.441C30.5575 111.295 26.4386 106.755 23.7837 101.314C20.071 93.7029 19.5464 85.1035 22.3028 77.0964C25.0593 69.0893 30.769 62.637 38.3805 58.9244C42.7553 56.7898 47.4242 55.7088 52.256 55.7088C58.1116 55.7088 63.8509 57.3272 68.854 60.3904C73.9947 63.5382 78.1156 68.0781 80.7706 73.5191C82.1329 76.3136 83.0743 79.2542 83.5672 82.2581C83.6497 82.768 83.3536 83.263 82.8649 83.4301C81.3756 83.9378 79.4928 84.4963 75.9832 84.6888C75.7272 84.7036 75.4565 84.71 75.1772 84.71C73.5187 84.71 71.5428 84.4604 69.6135 84.0098C69.2327 83.9209 68.9323 83.629 68.8329 83.2503C68.5367 82.1312 68.1411 81.0608 67.6588 80.0686C64.7183 74.0416 58.7251 70.2972 52.0148 70.2972C49.3641 70.2972 46.8044 70.8917 44.4033 72.0615C40.2273 74.0987 37.0964 77.6379 35.5838 82.0297C34.0713 86.4214 34.359 91.1411 36.3962 95.3149C39.3367 101.342 45.3299 105.086 52.0402 105.086C54.3461 105.086 56.5821 104.638 58.7061 103.749L55.8798 97.955C55.2049 96.5715 55.2896 94.968 56.104 93.6648C56.9206 92.3596 58.3211 91.579 59.8527 91.579C59.9584 91.579 60.0663 91.5832 60.1742 91.5895L87.3582 93.4892C88.9575 93.6014 90.3304 94.528 91.0328 95.9686C91.7351 97.4092 91.6188 99.0614 90.7239 100.39L75.4861 122.983C74.6568 124.21 73.286 124.94 71.8136 124.94Z" fill="#40DEFF"/>
<path d="M52.2538 56.7666C63.6013 56.7666 74.5087 63.0982 79.8186 73.9845C81.1598 76.7346 82.0504 79.5588 82.5221 82.4295C81.0265 82.9394 79.2241 83.4513 75.9239 83.6332C75.6828 83.6459 75.4332 83.6523 75.1772 83.6523C73.5165 83.6523 71.5851 83.3836 69.8546 82.9796C69.5521 81.8372 69.1459 80.7075 68.6086 79.6054C65.4121 73.0516 58.8456 69.2395 52.0126 69.2395C49.2985 69.2395 46.542 69.8403 43.9378 71.1117C34.7799 75.5775 30.9763 86.6224 35.4442 95.7803C38.6407 102.334 45.2071 106.146 52.0401 106.146C54.7543 106.146 57.5108 105.545 60.1149 104.274C60.1213 104.272 60.1276 104.268 60.134 104.263L56.8317 97.4918C55.7295 95.2324 57.3944 92.6367 59.8526 92.6367C59.9351 92.6367 60.0155 92.6388 60.1001 92.6452L87.2862 94.5449C89.8777 94.7268 91.3014 97.6441 89.8481 99.7976L74.6102 122.391C73.9354 123.392 72.8734 123.878 71.8178 123.878C70.6014 123.878 69.3892 123.233 68.78 121.983L65.4185 115.09C61.179 117.104 56.7048 118.058 52.2961 118.058C40.9487 118.058 30.0455 111.731 24.7377 100.847C17.3187 85.6366 23.6355 67.289 38.8459 59.87C43.1678 57.7651 47.7436 56.7666 52.2538 56.7666ZM52.2538 54.6511H52.2517C47.2591 54.6511 42.4358 55.7681 37.9151 57.9746C30.0497 61.8099 24.1496 68.48 21.3022 76.7537C18.4526 85.0273 18.9963 93.9145 22.8338 101.78C25.5754 107.403 29.8339 112.093 35.1459 115.344C40.314 118.507 46.2437 120.18 52.294 120.18C56.4721 120.18 60.5359 119.395 64.403 117.847L66.876 122.916C67.8026 124.817 69.696 126 71.8157 126C73.6413 126 75.3401 125.095 76.3619 123.58L91.5997 100.987C92.7103 99.3407 92.852 97.2929 91.9826 95.5096C91.1131 93.7262 89.4101 92.5775 87.4322 92.44L60.2461 90.5403C60.1149 90.5318 59.9817 90.5255 59.8505 90.5255C57.9529 90.5255 56.2161 91.4901 55.2049 93.1085C54.1958 94.7226 54.0922 96.709 54.9278 98.4226L57.2463 103.176C55.5709 103.745 53.8256 104.033 52.0401 104.033C49.0213 104.033 46.0639 103.197 43.483 101.619C40.8365 99.9986 38.7126 97.6589 37.346 94.8559C33.3985 86.762 36.7706 76.9631 44.8665 73.0156C47.1216 71.9156 49.5248 71.3592 52.0126 71.3592C55.0314 71.3592 57.9889 72.1948 60.5698 73.773C63.2162 75.3934 65.3402 77.731 66.7068 80.5362C67.1595 81.4649 67.5318 82.4697 67.809 83.5232C68.0099 84.2806 68.6107 84.8644 69.3723 85.0421C71.3799 85.5118 73.4404 85.7699 75.1772 85.7699C75.4733 85.7699 75.7653 85.7614 76.0403 85.7466C79.5097 85.5562 81.5342 85.002 83.2033 84.4329C84.1807 84.0986 84.7751 83.1086 84.608 82.0889C84.1003 78.9834 83.1272 75.9456 81.7183 73.0579C78.9745 67.435 74.716 62.7428 69.404 59.4913C64.2338 56.3245 58.3041 54.6511 52.2538 54.6511Z" fill="#40DEFF"/>
</g>
<path d="M52.2538 56.7666C63.6013 56.7666 74.5087 63.0982 79.8186 73.9845C81.1598 76.7346 82.0504 79.5588 82.5221 82.4295C81.0265 82.9394 78.6698 83.61 75.3697 83.6459C75.2956 83.6459 75.2195 83.6481 75.1454 83.6481C73.324 83.6481 71.5851 83.409 69.8546 82.9817C69.5521 81.8393 69.1459 80.7096 68.6086 79.6075C65.4121 73.0537 58.8457 69.2416 52.0126 69.2416C49.2985 69.2416 46.542 69.8424 43.9378 71.1138C34.7799 75.5796 30.9763 86.6245 35.4442 95.7825C38.6407 102.336 45.2071 106.148 52.0401 106.148C54.7543 106.148 57.5108 105.548 60.1149 104.276C60.1213 104.274 60.1276 104.27 60.134 104.266L56.8317 97.4939C55.7295 95.2345 57.3944 92.6389 59.8526 92.6389C59.9351 92.6389 60.0155 92.641 60.1001 92.6473L87.2862 94.547C89.8777 94.7289 91.3014 97.6462 89.8481 99.7998L74.6102 122.393C73.9354 123.394 72.8734 123.88 71.8178 123.88C70.6014 123.88 69.3892 123.235 68.78 121.985L65.4185 115.093C61.179 117.107 56.7048 118.061 52.2961 118.061C40.9487 118.061 30.0455 111.733 24.7377 100.849C17.3187 85.6387 23.6355 67.2911 38.8459 59.8721C43.1678 57.7651 47.7436 56.7666 52.2538 56.7666ZM52.2538 54.6511H52.2517C47.2591 54.6511 42.4358 55.7681 37.9151 57.9746C30.0497 61.8099 24.1496 68.48 21.3022 76.7537C18.4526 85.0273 18.9963 93.9145 22.8338 101.78C25.5754 107.403 29.8339 112.093 35.1459 115.344C40.314 118.507 46.2437 120.18 52.294 120.18C56.4721 120.18 60.5359 119.395 64.403 117.847L66.876 122.916C67.8026 124.817 69.696 126 71.8157 126C73.6413 126 75.3401 125.095 76.3619 123.58L91.5997 100.987C92.7103 99.3407 92.852 97.2929 91.9826 95.5096C91.1131 93.7262 89.4101 92.5775 87.4322 92.44L60.2461 90.5403C60.1149 90.5318 59.9817 90.5255 59.8505 90.5255C57.9529 90.5255 56.2161 91.4901 55.2049 93.1085C54.1958 94.7226 54.0922 96.709 54.9278 98.4226L57.2463 103.176C55.5709 103.745 53.8256 104.033 52.0401 104.033C49.0213 104.033 46.0639 103.197 43.483 101.619C40.8365 99.9986 38.7126 97.6589 37.346 94.8559C33.3985 86.762 36.7706 76.9631 44.8665 73.0156C47.1216 71.9156 49.5248 71.3592 52.0126 71.3592C55.0314 71.3592 57.9889 72.1948 60.5698 73.773C63.2162 75.3934 65.3402 77.731 66.7068 80.5362C67.1595 81.4649 67.5318 82.4697 67.809 83.5232C68.0057 84.27 68.5959 84.8518 69.3469 85.0358C71.3291 85.5266 73.2267 85.7635 75.1454 85.7635C75.228 85.7635 75.3105 85.7635 75.393 85.7614C79.0147 85.7233 81.585 84.985 83.2033 84.4329C84.1807 84.0986 84.7751 83.1086 84.608 82.0889C84.1003 78.9834 83.1272 75.9456 81.7183 73.0579C78.9745 67.435 74.716 62.7428 69.404 59.4913C64.2338 56.3245 58.3041 54.6511 52.2538 54.6511Z" fill="url(#paint22_linear_650_1628)"/>
<defs>
<linearGradient id="paint0_linear_650_1628" x1="105.692" y1="27.4799" x2="44.6256" y2="96.2249" gradientUnits="userSpaceOnUse">
<stop stop-color="#40DEFF"/>
<stop offset="1" stop-color="#40DEFF" stop-opacity="0.1"/>
</linearGradient>
<linearGradient id="paint1_linear_650_1628" x1="107.059" y1="25.8644" x2="43.182" y2="97.7734" gradientUnits="userSpaceOnUse">
<stop stop-color="#40DEFF"/>
<stop offset="1" stop-color="#40DEFF" stop-opacity="0.1"/>
</linearGradient>
<linearGradient id="paint2_linear_650_1628" x1="107.422" y1="26.1868" x2="43.5449" y2="98.0959" gradientUnits="userSpaceOnUse">
<stop stop-color="#40DEFF"/>
<stop offset="1" stop-color="#40DEFF" stop-opacity="0.1"/>
</linearGradient>
<linearGradient id="paint3_linear_650_1628" x1="121.572" y1="38.76" x2="57.7015" y2="110.669" gradientUnits="userSpaceOnUse">
<stop stop-color="#40DEFF"/>
<stop offset="1" stop-color="#40DEFF" stop-opacity="0.1"/>
</linearGradient>
<linearGradient id="paint4_linear_650_1628" x1="120.25" y1="37.5828" x2="56.375" y2="109.492" gradientUnits="userSpaceOnUse">
<stop stop-color="#40DEFF"/>
<stop offset="1" stop-color="#40DEFF" stop-opacity="0.1"/>
</linearGradient>
<linearGradient id="paint5_linear_650_1628" x1="121.271" y1="38.4901" x2="57.3957" y2="110.399" gradientUnits="userSpaceOnUse">
<stop stop-color="#40DEFF"/>
<stop offset="1" stop-color="#40DEFF" stop-opacity="0.1"/>
</linearGradient>
<linearGradient id="paint6_linear_650_1628" x1="136.586" y1="52.0933" x2="72.7095" y2="124.002" gradientUnits="userSpaceOnUse">
<stop stop-color="#40DEFF"/>
<stop offset="1" stop-color="#40DEFF" stop-opacity="0.1"/>
</linearGradient>
<linearGradient id="paint7_linear_650_1628" x1="107.097" y1="25.8982" x2="43.2204" y2="97.8073" gradientUnits="userSpaceOnUse">
<stop stop-color="#40DEFF"/>
<stop offset="1" stop-color="#40DEFF" stop-opacity="0.1"/>
</linearGradient>
<linearGradient id="paint8_linear_650_1628" x1="104.835" y1="23.8891" x2="40.9585" y2="95.7982" gradientUnits="userSpaceOnUse">
<stop stop-color="#40DEFF"/>
<stop offset="1" stop-color="#40DEFF" stop-opacity="0.1"/>
</linearGradient>
<linearGradient id="paint9_linear_650_1628" x1="93.6075" y1="16.7565" x2="32.5783" y2="85.4983" gradientUnits="userSpaceOnUse">
<stop stop-color="#40DEFF"/>
<stop offset="1" stop-color="#40DEFF" stop-opacity="0.1"/>
</linearGradient>
<linearGradient id="paint10_linear_650_1628" x1="95.0126" y1="15.1757" x2="31.175" y2="87.0807" gradientUnits="userSpaceOnUse">
<stop stop-color="#40DEFF"/>
<stop offset="1" stop-color="#40DEFF" stop-opacity="0.1"/>
</linearGradient>
<linearGradient id="paint11_linear_650_1628" x1="111.745" y1="32.8569" x2="50.6783" y2="101.603" gradientUnits="userSpaceOnUse">
<stop stop-color="#40DEFF"/>
<stop offset="1" stop-color="#40DEFF" stop-opacity="0.1"/>
</linearGradient>
<linearGradient id="paint12_linear_650_1628" x1="113.15" y1="31.2752" x2="49.2733" y2="103.184" gradientUnits="userSpaceOnUse">
<stop stop-color="#40DEFF"/>
<stop offset="1" stop-color="#40DEFF" stop-opacity="0.1"/>
</linearGradient>
<linearGradient id="paint13_linear_650_1628" x1="121.273" y1="38.4899" x2="57.3956" y2="110.399" gradientUnits="userSpaceOnUse">
<stop offset="0.00545635" stop-color="#9AF0FC"/>
<stop offset="0.3" stop-color="#40DEFF"/>
<stop offset="1" stop-color="#40DEFF" stop-opacity="0.1"/>
</linearGradient>
<linearGradient id="paint14_linear_650_1628" x1="136.587" y1="52.0932" x2="72.7097" y2="124.002" gradientUnits="userSpaceOnUse">
<stop offset="0.00545635" stop-color="#9AF0FC"/>
<stop offset="0.3" stop-color="#40DEFF"/>
<stop offset="1" stop-color="#40DEFF" stop-opacity="0.1"/>
</linearGradient>
<linearGradient id="paint15_linear_650_1628" x1="120.246" y1="37.5792" x2="56.3711" y2="109.488" gradientUnits="userSpaceOnUse">
<stop offset="0.00545635" stop-color="#9AF0FC"/>
<stop offset="0.3" stop-color="#40DEFF"/>
<stop offset="1" stop-color="#40DEFF" stop-opacity="0.1"/>
</linearGradient>
<linearGradient id="paint16_linear_650_1628" x1="121.573" y1="38.7595" x2="57.7003" y2="110.668" gradientUnits="userSpaceOnUse">
<stop offset="0.00545635" stop-color="#9AF0FC"/>
<stop offset="0.3" stop-color="#40DEFF"/>
<stop offset="1" stop-color="#40DEFF" stop-opacity="0.1"/>
</linearGradient>
<linearGradient id="paint17_linear_650_1628" x1="121.819" y1="38.9803" x2="57.948" y2="110.887" gradientUnits="userSpaceOnUse">
<stop offset="0.00545635" stop-color="#9AF0FC"/>
<stop offset="0.3" stop-color="#40DEFF"/>
<stop offset="1" stop-color="#40DEFF" stop-opacity="0.1"/>
</linearGradient>
<linearGradient id="paint18_linear_650_1628" x1="107.097" y1="25.8982" x2="43.2205" y2="97.8073" gradientUnits="userSpaceOnUse">
<stop offset="0.00545635" stop-color="#9AF0FC"/>
<stop offset="0.3" stop-color="#40DEFF"/>
<stop offset="1" stop-color="#40DEFF" stop-opacity="0.1"/>
</linearGradient>
<linearGradient id="paint19_linear_650_1628" x1="104.836" y1="23.8891" x2="40.9589" y2="95.7982" gradientUnits="userSpaceOnUse">
<stop offset="0.00545635" stop-color="#9AF0FC"/>
<stop offset="0.3" stop-color="#40DEFF"/>
<stop offset="1" stop-color="#40DEFF" stop-opacity="0.1"/>
</linearGradient>
<linearGradient id="paint20_linear_650_1628" x1="107.422" y1="26.1866" x2="43.5454" y2="98.0958" gradientUnits="userSpaceOnUse">
<stop offset="0.00545635" stop-color="#9AF0FC"/>
<stop offset="0.3" stop-color="#40DEFF"/>
<stop offset="1" stop-color="#40DEFF" stop-opacity="0.1"/>
</linearGradient>
<linearGradient id="paint21_linear_650_1628" x1="107.059" y1="25.8644" x2="43.1825" y2="97.7735" gradientUnits="userSpaceOnUse">
<stop offset="0.00545635" stop-color="#9AF0FC"/>
<stop offset="0.3" stop-color="#40DEFF"/>
<stop offset="1" stop-color="#40DEFF" stop-opacity="0.1"/>
</linearGradient>
<linearGradient id="paint22_linear_650_1628" x1="74.5343" y1="63.0559" x2="36.4049" y2="116.349" gradientUnits="userSpaceOnUse">
<stop stop-color="#40DEFF" stop-opacity="0.1"/>
<stop offset="0.7458" stop-color="#40DEFF"/>
<stop offset="0.7648" stop-color="#49E0FF"/>
<stop offset="0.8702" stop-color="#75E9FD"/>
<stop offset="0.9521" stop-color="#90EEFC"/>
<stop offset="1" stop-color="#9AF0FC"/>
</linearGradient>
</defs>
</svg>
